<svg width="1143" height="346" viewBox="0 0 1143 346" fill="none" xmlns="http://www.w3.org/2000/svg">
<path d="M30.5154 324.057H1137.93" stroke="#CCCCCC" stroke-dasharray="4 2"/>
<path d="M30.5154 244.385H1137.93" stroke="#CCCCCC" stroke-dasharray="4 2"/>
<path d="M30.5154 164.713H1137.93" stroke="#CCCCCC" stroke-dasharray="4 2"/>
<path d="M30.5154 85.0413H1137.93" stroke="#CCCCCC" stroke-dasharray="4 2"/>
<path d="M30.5154 5.36957H1137.93" stroke="#CCCCCC" stroke-dasharray="4 2"/>
<path d="M31.0076 5.07826V324.348" stroke="#CCCCCC" stroke-dasharray="4 2"/>
<path d="M131.592 5.07828V324.348" stroke="#CCCCCC" stroke-dasharray="4 2"/>
<path d="M232.177 5.07828V324.348" stroke="#CCCCCC" stroke-dasharray="4 2"/>
<path d="M332.761 5.07828V324.348" stroke="#CCCCCC" stroke-dasharray="4 2"/>
<path d="M433.346 5.07828V324.348" stroke="#CCCCCC" stroke-dasharray="4 2"/>
<path d="M533.93 5.07828V324.348" stroke="#CCCCCC" stroke-dasharray="4 2"/>
<path d="M634.515 5.07828V324.348" stroke="#CCCCCC" stroke-dasharray="4 2"/>
<path d="M735.099 5.07828V324.348" stroke="#CCCCCC" stroke-dasharray="4 2"/>
<path d="M835.684 5.07828V324.348" stroke="#CCCCCC" stroke-dasharray="4 2"/>
<path d="M936.268 5.07828V324.348" stroke="#CCCCCC" stroke-dasharray="4 2"/>
<path d="M1036.85 5.07828V324.348" stroke="#CCCCCC" stroke-dasharray="4 2"/>
<path d="M1137.44 5.07828V324.348" stroke="#CCCCCC" stroke-dasharray="4 2"/>
<path d="M19.9862 322.742V324.042C19.9862 324.742 19.9237 325.332 19.7987 325.812C19.6737 326.292 19.494 326.679 19.2596 326.972C19.0252 327.265 18.742 327.478 18.41 327.611C18.0819 327.74 17.7108 327.804 17.2967 327.804C16.9686 327.804 16.6658 327.763 16.3885 327.681C16.1112 327.599 15.8612 327.468 15.6385 327.289C15.4198 327.105 15.2323 326.867 15.076 326.574C14.9198 326.281 14.8006 325.925 14.7186 325.507C14.6366 325.089 14.5955 324.601 14.5955 324.042V322.742C14.5955 322.042 14.658 321.457 14.783 320.984C14.9119 320.511 15.0936 320.132 15.328 319.847C15.5623 319.558 15.8436 319.351 16.1717 319.226C16.5037 319.101 16.8748 319.039 17.285 319.039C17.617 319.039 17.9217 319.08 18.1991 319.162C18.4803 319.24 18.7303 319.367 18.9491 319.542C19.1678 319.714 19.3533 319.945 19.5057 320.234C19.6619 320.519 19.7811 320.869 19.8631 321.283C19.9451 321.697 19.9862 322.183 19.9862 322.742ZM18.8963 324.218V322.56C18.8963 322.177 18.8729 321.841 18.826 321.552C18.783 321.259 18.7186 321.009 18.6326 320.802C18.5467 320.595 18.4373 320.427 18.3045 320.298C18.1756 320.169 18.0252 320.076 17.8533 320.017C17.6854 319.955 17.4959 319.923 17.285 319.923C17.0272 319.923 16.7987 319.972 16.5994 320.07C16.4002 320.164 16.2323 320.314 16.0955 320.521C15.9627 320.728 15.8612 320.999 15.7908 321.335C15.7205 321.671 15.6854 322.08 15.6854 322.56V324.218C15.6854 324.601 15.7069 324.939 15.7498 325.232C15.7967 325.525 15.8651 325.779 15.9549 325.994C16.0448 326.205 16.1541 326.378 16.283 326.515C16.4119 326.652 16.5604 326.753 16.7283 326.82C16.9002 326.882 17.0897 326.914 17.2967 326.914C17.5623 326.914 17.7948 326.863 17.994 326.761C18.1932 326.66 18.3592 326.501 18.492 326.287C18.6287 326.068 18.7303 325.789 18.7967 325.449C18.8631 325.105 18.8963 324.695 18.8963 324.218Z" fill="#333333"/>
<path d="M13.4706 247.125V248.015H7.88663V247.236L10.6815 244.125C11.0253 243.742 11.2909 243.418 11.4784 243.152C11.6698 242.882 11.8026 242.642 11.8769 242.431C11.955 242.216 11.994 241.998 11.994 241.775C11.994 241.494 11.9355 241.24 11.8183 241.013C11.705 240.783 11.537 240.599 11.3144 240.463C11.0917 240.326 10.8222 240.257 10.5058 240.257C10.1269 240.257 9.81045 240.332 9.55655 240.48C9.30655 240.625 9.11905 240.828 8.99405 241.089C8.86905 241.351 8.80655 241.652 8.80655 241.992H7.72256C7.72256 241.511 7.82803 241.072 8.03897 240.673C8.24991 240.275 8.56241 239.959 8.97647 239.724C9.39053 239.486 9.9003 239.367 10.5058 239.367C11.0448 239.367 11.5058 239.463 11.8886 239.654C12.2714 239.841 12.5644 240.107 12.7675 240.451C12.9745 240.791 13.078 241.189 13.078 241.646C13.078 241.896 13.0351 242.15 12.9491 242.408C12.8671 242.662 12.7519 242.916 12.6034 243.17C12.4589 243.423 12.289 243.673 12.0937 243.92C11.9023 244.166 11.6972 244.408 11.4784 244.646L9.19327 247.125H13.4706ZM16.0019 243.955L15.1347 243.732L15.5624 239.484H19.9394V240.486H16.4823L16.2245 242.806C16.3808 242.716 16.578 242.632 16.8163 242.554C17.0585 242.476 17.3358 242.437 17.6483 242.437C18.0429 242.437 18.3964 242.505 18.7089 242.642C19.0214 242.775 19.287 242.966 19.5058 243.216C19.7284 243.466 19.8983 243.767 20.0155 244.119C20.1327 244.47 20.1913 244.863 20.1913 245.296C20.1913 245.707 20.1347 246.084 20.0214 246.427C19.912 246.771 19.746 247.072 19.5233 247.33C19.3007 247.584 19.0194 247.781 18.6796 247.921C18.3437 248.062 17.9472 248.132 17.4901 248.132C17.1464 248.132 16.8202 248.086 16.5116 247.992C16.2069 247.894 15.9335 247.748 15.6913 247.552C15.453 247.353 15.2577 247.107 15.1054 246.814C14.9569 246.517 14.8632 246.17 14.8241 245.771H15.8554C15.9023 246.091 15.996 246.361 16.1366 246.58C16.2773 246.798 16.4608 246.964 16.6874 247.078C16.9179 247.187 17.1855 247.242 17.4901 247.242C17.748 247.242 17.9765 247.197 18.1757 247.107C18.3749 247.017 18.5429 246.888 18.6796 246.72C18.8163 246.552 18.9198 246.349 18.9901 246.111C19.0644 245.873 19.1015 245.605 19.1015 245.308C19.1015 245.039 19.0644 244.789 18.9901 244.558C18.9159 244.328 18.8046 244.127 18.6562 243.955C18.5116 243.783 18.3339 243.65 18.123 243.556C17.912 243.459 17.6698 243.41 17.3964 243.41C17.0331 243.41 16.7577 243.459 16.5702 243.556C16.3866 243.654 16.1972 243.787 16.0019 243.955Z" fill="#333333"/>
<path d="M9.25186 164.283L8.38467 164.06L8.81241 159.812H13.1894V160.814H9.73233L9.47452 163.135C9.63077 163.045 9.82803 162.961 10.0663 162.883C10.3085 162.804 10.5858 162.765 10.8983 162.765C11.2929 162.765 11.6464 162.834 11.9589 162.97C12.2714 163.103 12.537 163.295 12.7558 163.545C12.9784 163.795 13.1483 164.095 13.2655 164.447C13.3827 164.799 13.4413 165.191 13.4413 165.625C13.4413 166.035 13.3847 166.412 13.2714 166.756C13.162 167.099 12.996 167.4 12.7733 167.658C12.5507 167.912 12.2694 168.109 11.9296 168.25C11.5937 168.39 11.1972 168.461 10.7401 168.461C10.3964 168.461 10.0702 168.414 9.76163 168.32C9.45694 168.222 9.1835 168.076 8.94131 167.881C8.70303 167.681 8.50772 167.435 8.35538 167.142C8.20694 166.845 8.11319 166.498 8.07413 166.099H9.10538C9.15225 166.42 9.246 166.689 9.38663 166.908C9.52725 167.127 9.71084 167.293 9.93741 167.406C10.1679 167.515 10.4355 167.57 10.7401 167.57C10.998 167.57 11.2265 167.525 11.4257 167.435C11.6249 167.345 11.7929 167.217 11.9296 167.049C12.0663 166.881 12.1698 166.677 12.2401 166.439C12.3144 166.201 12.3515 165.933 12.3515 165.636C12.3515 165.367 12.3144 165.117 12.2401 164.886C12.1659 164.656 12.0546 164.455 11.9062 164.283C11.7616 164.111 11.5839 163.978 11.373 163.885C11.162 163.787 10.9198 163.738 10.6464 163.738C10.2831 163.738 10.0077 163.787 9.82022 163.885C9.63663 163.982 9.44717 164.115 9.25186 164.283ZM19.9862 163.398V164.699C19.9862 165.398 19.9237 165.988 19.7987 166.468C19.6737 166.949 19.494 167.336 19.2597 167.629C19.0253 167.922 18.7421 168.135 18.4101 168.267C18.0819 168.396 17.7108 168.461 17.2968 168.461C16.9687 168.461 16.6659 168.42 16.3886 168.338C16.1112 168.256 15.8612 168.125 15.6386 167.945C15.4198 167.761 15.2323 167.523 15.0761 167.23C14.9198 166.937 14.8007 166.582 14.7187 166.164C14.6366 165.746 14.5956 165.258 14.5956 164.699V163.398C14.5956 162.699 14.6581 162.113 14.7831 161.64C14.912 161.168 15.0937 160.789 15.328 160.504C15.5624 160.215 15.8437 160.008 16.1718 159.883C16.5038 159.758 16.8749 159.695 17.2851 159.695C17.6171 159.695 17.9218 159.736 18.1991 159.818C18.4804 159.896 18.7304 160.023 18.9491 160.199C19.1679 160.371 19.3534 160.601 19.5058 160.89C19.662 161.176 19.7812 161.525 19.8632 161.939C19.9452 162.353 19.9862 162.84 19.9862 163.398ZM18.8964 164.875V163.217C18.8964 162.834 18.873 162.498 18.8261 162.209C18.7831 161.916 18.7187 161.666 18.6327 161.459C18.5468 161.252 18.4374 161.084 18.3046 160.955C18.1757 160.826 18.0253 160.732 17.8534 160.674C17.6855 160.611 17.496 160.58 17.2851 160.58C17.0273 160.58 16.7987 160.629 16.5995 160.726C16.4003 160.82 16.2323 160.97 16.0956 161.177C15.9628 161.385 15.8612 161.656 15.7909 161.992C15.7206 162.328 15.6855 162.736 15.6855 163.217V164.875C15.6855 165.258 15.7069 165.595 15.7499 165.888C15.7968 166.181 15.8651 166.435 15.955 166.65C16.0448 166.861 16.1542 167.035 16.2831 167.172C16.412 167.308 16.5605 167.41 16.7284 167.476C16.9003 167.539 17.0898 167.57 17.2968 167.57C17.5624 167.57 17.7948 167.519 17.994 167.418C18.1933 167.316 18.3593 167.158 18.4921 166.943C18.6288 166.724 18.7304 166.445 18.7968 166.105C18.8632 165.761 18.8964 165.351 18.8964 164.875Z" fill="#333333"/>
<path d="M13.3944 80.1405V80.7499L9.86124 88.6717H8.71866L12.246 81.0311H7.62881V80.1405H13.3944ZM16.0019 84.6112L15.1347 84.3885L15.5624 80.1405H19.9394V81.1424H16.4823L16.2245 83.4628C16.3808 83.3729 16.578 83.2889 16.8163 83.2108C17.0585 83.1327 17.3358 83.0936 17.6483 83.0936C18.0429 83.0936 18.3964 83.162 18.7089 83.2987C19.0214 83.4315 19.287 83.6229 19.5058 83.8729C19.7284 84.1229 19.8983 84.4237 20.0155 84.7753C20.1327 85.1268 20.1913 85.5194 20.1913 85.953C20.1913 86.3632 20.1347 86.7401 20.0214 87.0839C19.912 87.4276 19.746 87.7284 19.5233 87.9862C19.3007 88.2401 19.0194 88.4374 18.6796 88.578C18.3437 88.7186 17.9472 88.7889 17.4901 88.7889C17.1464 88.7889 16.8202 88.7421 16.5116 88.6483C16.2069 88.5507 15.9335 88.4042 15.6913 88.2089C15.453 88.0096 15.2577 87.7635 15.1054 87.4706C14.9569 87.1737 14.8632 86.826 14.8241 86.4276H15.8554C15.9023 86.7479 15.996 87.0174 16.1366 87.2362C16.2773 87.4549 16.4608 87.621 16.6874 87.7342C16.9179 87.8436 17.1855 87.8983 17.4901 87.8983C17.748 87.8983 17.9765 87.8534 18.1757 87.7635C18.3749 87.6737 18.5429 87.5448 18.6796 87.3768C18.8163 87.2089 18.9198 87.0057 18.9901 86.7674C19.0644 86.5292 19.1015 86.2616 19.1015 85.9647C19.1015 85.6952 19.0644 85.4452 18.9901 85.2147C18.9159 84.9842 18.8046 84.7831 18.6562 84.6112C18.5116 84.4393 18.3339 84.3065 18.123 84.2128C17.912 84.1151 17.6698 84.0663 17.3964 84.0663C17.0331 84.0663 16.7577 84.1151 16.5702 84.2128C16.3866 84.3104 16.1972 84.4432 16.0019 84.6112Z" fill="#333333"/>
<path d="M4.69322 0.421875V9H3.60924V1.77539L1.42369 2.57227V1.59375L4.5233 0.421875H4.69322ZM13.2362 4.05469V5.35547C13.2362 6.05469 13.1737 6.64453 13.0487 7.125C12.9237 7.60547 12.744 7.99219 12.5096 8.28516C12.2753 8.57812 11.992 8.79102 11.66 8.92383C11.3319 9.05273 10.9608 9.11719 10.5467 9.11719C10.2186 9.11719 9.91588 9.07617 9.63853 8.99414C9.36119 8.91211 9.11119 8.78125 8.88853 8.60156C8.66978 8.41797 8.48228 8.17969 8.32603 7.88672C8.16978 7.59375 8.05064 7.23828 7.96861 6.82031C7.88658 6.40234 7.84556 5.91406 7.84556 5.35547V4.05469C7.84556 3.35547 7.90806 2.76953 8.03306 2.29688C8.16197 1.82422 8.34361 1.44531 8.57799 1.16016C8.81236 0.871094 9.09361 0.664062 9.42174 0.539062C9.75377 0.414063 10.1249 0.351562 10.535 0.351562C10.867 0.351562 11.1717 0.392578 11.4491 0.474609C11.7303 0.552734 11.9803 0.679688 12.1991 0.855469C12.4178 1.02734 12.6034 1.25781 12.7557 1.54688C12.912 1.83203 13.0311 2.18164 13.1131 2.5957C13.1952 3.00977 13.2362 3.49609 13.2362 4.05469ZM12.1463 5.53125V3.87305C12.1463 3.49023 12.1229 3.1543 12.076 2.86523C12.0331 2.57227 11.9686 2.32227 11.8827 2.11523C11.7967 1.9082 11.6874 1.74023 11.5545 1.61133C11.4256 1.48242 11.2753 1.38867 11.1034 1.33008C10.9354 1.26758 10.746 1.23633 10.535 1.23633C10.2772 1.23633 10.0487 1.28516 9.84947 1.38281C9.65025 1.47656 9.48228 1.62695 9.34556 1.83398C9.21275 2.04102 9.11119 2.3125 9.04088 2.64844C8.97056 2.98437 8.93541 3.39258 8.93541 3.87305V5.53125C8.93541 5.91406 8.95689 6.25195 8.99986 6.54492C9.04674 6.83789 9.1151 7.0918 9.20494 7.30664C9.29478 7.51758 9.40416 7.69141 9.53306 7.82812C9.66197 7.96484 9.81041 8.06641 9.97838 8.13281C10.1503 8.19531 10.3397 8.22656 10.5467 8.22656C10.8124 8.22656 11.0448 8.17578 11.244 8.07422C11.4432 7.97266 11.6092 7.81445 11.742 7.59961C11.8788 7.38086 11.9803 7.10156 12.0467 6.76172C12.1131 6.41797 12.1463 6.00781 12.1463 5.53125ZM19.9862 4.05469V5.35547C19.9862 6.05469 19.9237 6.64453 19.7987 7.125C19.6737 7.60547 19.494 7.99219 19.2596 8.28516C19.0253 8.57812 18.742 8.79102 18.41 8.92383C18.0819 9.05273 17.7108 9.11719 17.2967 9.11719C16.9686 9.11719 16.6659 9.07617 16.3885 8.99414C16.1112 8.91211 15.8612 8.78125 15.6385 8.60156C15.4198 8.41797 15.2323 8.17969 15.076 7.88672C14.9198 7.59375 14.8006 7.23828 14.7186 6.82031C14.6366 6.40234 14.5956 5.91406 14.5956 5.35547V4.05469C14.5956 3.35547 14.6581 2.76953 14.7831 2.29688C14.912 1.82422 15.0936 1.44531 15.328 1.16016C15.5624 0.871094 15.8436 0.664062 16.1717 0.539062C16.5038 0.414063 16.8749 0.351562 17.285 0.351562C17.617 0.351562 17.9217 0.392578 18.1991 0.474609C18.4803 0.552734 18.7303 0.679688 18.9491 0.855469C19.1678 1.02734 19.3534 1.25781 19.5057 1.54688C19.662 1.83203 19.7811 2.18164 19.8631 2.5957C19.9452 3.00977 19.9862 3.49609 19.9862 4.05469ZM18.8963 5.53125V3.87305C18.8963 3.49023 18.8729 3.1543 18.826 2.86523C18.7831 2.57227 18.7186 2.32227 18.6327 2.11523C18.5467 1.9082 18.4374 1.74023 18.3045 1.61133C18.1756 1.48242 18.0253 1.38867 17.8534 1.33008C17.6854 1.26758 17.496 1.23633 17.285 1.23633C17.0272 1.23633 16.7987 1.28516 16.5995 1.38281C16.4003 1.47656 16.2323 1.62695 16.0956 1.83398C15.9628 2.04102 15.8612 2.3125 15.7909 2.64844C15.7206 2.98437 15.6854 3.39258 15.6854 3.87305V5.53125C15.6854 5.91406 15.7069 6.25195 15.7499 6.54492C15.7967 6.83789 15.8651 7.0918 15.9549 7.30664C16.0448 7.51758 16.1542 7.69141 16.2831 7.82812C16.412 7.96484 16.5604 8.06641 16.7284 8.13281C16.9003 8.19531 17.0897 8.22656 17.2967 8.22656C17.5624 8.22656 17.7948 8.17578 17.994 8.07422C18.1932 7.97266 18.3592 7.81445 18.492 7.59961C18.6288 7.38086 18.7303 7.10156 18.7967 6.76172C18.8631 6.41797 18.8963 6.00781 18.8963 5.53125Z" fill="#333333"/>
<path d="M33.1776 338.817V332.776H34.3026V338.817C34.3026 339.38 34.1874 339.854 33.9569 340.241C33.7264 340.628 33.4081 340.923 33.0018 341.126C32.5995 341.325 32.1366 341.425 31.6132 341.425C31.0897 341.425 30.6249 341.335 30.2186 341.155C29.8124 340.975 29.494 340.702 29.2635 340.335C29.0331 339.968 28.9178 339.505 28.9178 338.946H30.0487C30.0487 339.305 30.1151 339.6 30.2479 339.831C30.3807 340.061 30.5643 340.231 30.7987 340.341C31.037 340.45 31.3085 340.505 31.6132 340.505C31.91 340.505 32.1757 340.442 32.41 340.317C32.6483 340.188 32.8358 339.999 32.9725 339.749C33.1093 339.495 33.1776 339.184 33.1776 338.817ZM39.7928 340.223V336.96C39.7928 336.71 39.7421 336.493 39.6405 336.309C39.5428 336.122 39.3944 335.977 39.1952 335.876C38.996 335.774 38.7499 335.723 38.4569 335.723C38.1835 335.723 37.9432 335.77 37.7362 335.864C37.5331 335.958 37.3729 336.081 37.2557 336.233C37.1425 336.386 37.0858 336.55 37.0858 336.725H36.0018C36.0018 336.499 36.0604 336.274 36.1776 336.052C36.2948 335.829 36.4628 335.628 36.6815 335.448C36.9042 335.264 37.1698 335.12 37.4784 335.014C37.7909 334.905 38.1385 334.85 38.5214 334.85C38.9823 334.85 39.3885 334.928 39.7401 335.085C40.0956 335.241 40.3729 335.477 40.5721 335.794C40.7753 336.106 40.8768 336.499 40.8768 336.971V339.925C40.8768 340.136 40.8944 340.36 40.9296 340.598C40.9686 340.837 41.0253 341.042 41.0995 341.214V341.307H39.9686C39.9139 341.182 39.871 341.016 39.8397 340.809C39.8085 340.598 39.7928 340.403 39.7928 340.223ZM39.9803 337.464L39.9921 338.225H38.8964C38.5878 338.225 38.3124 338.251 38.0702 338.302C37.828 338.348 37.6249 338.421 37.4608 338.518C37.2968 338.616 37.1718 338.739 37.0858 338.887C36.9999 339.032 36.9569 339.202 36.9569 339.397C36.9569 339.596 37.0018 339.778 37.0917 339.942C37.1815 340.106 37.3163 340.237 37.496 340.335C37.6796 340.428 37.9042 340.475 38.1698 340.475C38.5018 340.475 38.7948 340.405 39.0487 340.264C39.3026 340.124 39.5038 339.952 39.6522 339.749C39.8046 339.546 39.8866 339.348 39.8983 339.157L40.3612 339.678C40.3339 339.843 40.2596 340.024 40.1385 340.223C40.0175 340.423 39.8553 340.614 39.6522 340.798C39.453 340.977 39.2147 341.128 38.9374 341.249C38.6639 341.366 38.3553 341.425 38.0116 341.425C37.5819 341.425 37.205 341.341 36.8807 341.173C36.5604 341.005 36.3104 340.78 36.1307 340.499C35.955 340.214 35.8671 339.895 35.8671 339.544C35.8671 339.204 35.9335 338.905 36.0663 338.647C36.1991 338.386 36.3905 338.169 36.6405 337.997C36.8905 337.821 37.1913 337.688 37.5428 337.598C37.8944 337.509 38.287 337.464 38.7206 337.464H39.9803ZM43.6659 336.321V341.307H42.5819V334.968H43.6073L43.6659 336.321ZM43.4081 337.897L42.9569 337.88C42.9608 337.446 43.0253 337.046 43.1503 336.678C43.2753 336.307 43.451 335.985 43.6776 335.712C43.9042 335.438 44.1737 335.227 44.4862 335.079C44.8026 334.927 45.1522 334.85 45.535 334.85C45.8475 334.85 46.1288 334.893 46.3788 334.979C46.6288 335.061 46.8417 335.194 47.0175 335.378C47.1971 335.561 47.3339 335.8 47.4276 336.093C47.5214 336.382 47.5682 336.735 47.5682 337.153V341.307H46.4784V337.141C46.4784 336.809 46.4296 336.544 46.3319 336.345C46.2343 336.141 46.0917 335.995 45.9042 335.905C45.7167 335.811 45.4862 335.764 45.2128 335.764C44.9432 335.764 44.6971 335.821 44.4745 335.934C44.2557 336.048 44.0663 336.204 43.9061 336.403C43.7499 336.602 43.6268 336.831 43.537 337.089C43.451 337.343 43.4081 337.612 43.4081 337.897ZM53.0936 339.843V334.968H54.1835V341.307H53.1464L53.0936 339.843ZM53.2987 338.507L53.7499 338.495C53.7499 338.917 53.705 339.307 53.6151 339.667C53.5292 340.022 53.3885 340.331 53.1932 340.593C52.9979 340.854 52.7421 341.059 52.4257 341.208C52.1093 341.352 51.7245 341.425 51.2714 341.425C50.9628 341.425 50.6796 341.38 50.4218 341.29C50.1678 341.2 49.9491 341.061 49.7655 340.874C49.5819 340.686 49.4393 340.442 49.3378 340.141C49.2401 339.841 49.1913 339.479 49.1913 339.057V334.968H50.2753V339.069C50.2753 339.354 50.3065 339.591 50.369 339.778C50.4354 339.962 50.5233 340.108 50.6327 340.218C50.746 340.323 50.871 340.397 51.0077 340.44C51.1483 340.483 51.2928 340.505 51.4413 340.505C51.9022 340.505 52.2675 340.417 52.537 340.241C52.8065 340.061 52.9999 339.821 53.1171 339.52C53.2382 339.216 53.2987 338.878 53.2987 338.507ZM59.5741 340.223V336.96C59.5741 336.71 59.5233 336.493 59.4218 336.309C59.3241 336.122 59.1757 335.977 58.9764 335.876C58.7772 335.774 58.5311 335.723 58.2382 335.723C57.9647 335.723 57.7245 335.77 57.5175 335.864C57.3143 335.958 57.1542 336.081 57.037 336.233C56.9237 336.386 56.8671 336.55 56.8671 336.725H55.7831C55.7831 336.499 55.8417 336.274 55.9589 336.052C56.076 335.829 56.244 335.628 56.4628 335.448C56.6854 335.264 56.951 335.12 57.2596 335.014C57.5721 334.905 57.9198 334.85 58.3026 334.85C58.7635 334.85 59.1698 334.928 59.5214 335.085C59.8768 335.241 60.1542 335.477 60.3534 335.794C60.5565 336.106 60.6581 336.499 60.6581 336.971V339.925C60.6581 340.136 60.6757 340.36 60.7108 340.598C60.7499 340.837 60.8065 341.042 60.8807 341.214V341.307H59.7499C59.6952 341.182 59.6522 341.016 59.621 340.809C59.5897 340.598 59.5741 340.403 59.5741 340.223ZM59.7616 337.464L59.7733 338.225H58.6776C58.369 338.225 58.0936 338.251 57.8514 338.302C57.6093 338.348 57.4061 338.421 57.2421 338.518C57.078 338.616 56.953 338.739 56.8671 338.887C56.7811 339.032 56.7382 339.202 56.7382 339.397C56.7382 339.596 56.7831 339.778 56.8729 339.942C56.9628 340.106 57.0975 340.237 57.2772 340.335C57.4608 340.428 57.6854 340.475 57.951 340.475C58.2831 340.475 58.576 340.405 58.83 340.264C59.0839 340.124 59.285 339.952 59.4335 339.749C59.5858 339.546 59.6678 339.348 59.6796 339.157L60.1425 339.678C60.1151 339.843 60.0409 340.024 59.9198 340.223C59.7987 340.423 59.6366 340.614 59.4335 340.798C59.2343 340.977 58.996 341.128 58.7186 341.249C58.4452 341.366 58.1366 341.425 57.7928 341.425C57.3632 341.425 56.9862 341.341 56.662 341.173C56.3417 341.005 56.0917 340.78 55.912 340.499C55.7362 340.214 55.6483 339.895 55.6483 339.544C55.6483 339.204 55.7147 338.905 55.8475 338.647C55.9803 338.386 56.1718 338.169 56.4218 337.997C56.6718 337.821 56.9725 337.688 57.3241 337.598C57.6757 337.509 58.0682 337.464 58.5018 337.464H59.7616ZM63.4471 335.964V341.307H62.3632V334.968H63.4178L63.4471 335.964ZM65.4276 334.932L65.4218 335.94C65.3319 335.921 65.246 335.909 65.1639 335.905C65.0858 335.897 64.996 335.893 64.8944 335.893C64.6444 335.893 64.4237 335.932 64.2323 336.011C64.0409 336.089 63.8788 336.198 63.746 336.339C63.6132 336.479 63.5077 336.647 63.4296 336.843C63.3553 337.034 63.3065 337.245 63.2831 337.475L62.9784 337.651C62.9784 337.268 63.0155 336.909 63.0897 336.573C63.1678 336.237 63.287 335.94 63.4471 335.682C63.6073 335.421 63.8104 335.218 64.0565 335.073C64.3065 334.925 64.6034 334.85 64.9471 334.85C65.0253 334.85 65.1151 334.86 65.2167 334.88C65.3182 334.895 65.3885 334.913 65.4276 334.932ZM68.3163 340.651L70.08 334.968H71.2401L68.6971 342.286C68.6385 342.442 68.5604 342.61 68.4628 342.79C68.369 342.973 68.2479 343.147 68.0995 343.311C67.951 343.475 67.7714 343.608 67.5604 343.71C67.3534 343.815 67.1053 343.868 66.8163 343.868C66.7303 343.868 66.621 343.856 66.4882 343.833C66.3553 343.809 66.2616 343.79 66.2069 343.774L66.201 342.895C66.2323 342.899 66.2811 342.903 66.3475 342.907C66.4178 342.915 66.4667 342.919 66.494 342.919C66.7401 342.919 66.9491 342.886 67.121 342.819C67.2928 342.757 67.4374 342.649 67.5546 342.497C67.6757 342.348 67.7792 342.143 67.8651 341.882L68.3163 340.651ZM67.0214 334.968L68.6678 339.889L68.9491 341.032L68.1698 341.43L65.8378 334.968H67.0214Z" fill="#333333"/>
<path d="M111.283 334.594V343.125H110.152V334.594H111.283ZM114.857 338.431V339.357H111.037V338.431H114.857ZM115.437 334.594V335.519H111.037V334.594H115.437ZM119.123 343.242C118.682 343.242 118.281 343.168 117.922 343.019C117.566 342.867 117.26 342.654 117.002 342.381C116.748 342.107 116.553 341.783 116.416 341.408C116.279 341.033 116.211 340.623 116.211 340.178V339.931C116.211 339.416 116.287 338.957 116.439 338.554C116.592 338.148 116.799 337.804 117.06 337.523C117.322 337.242 117.619 337.029 117.951 336.885C118.283 336.74 118.627 336.668 118.982 336.668C119.435 336.668 119.826 336.746 120.154 336.902C120.486 337.058 120.758 337.277 120.969 337.558C121.18 337.836 121.336 338.164 121.437 338.543C121.539 338.918 121.59 339.328 121.59 339.773V340.26H116.855V339.375H120.506V339.293C120.49 339.011 120.432 338.738 120.33 338.472C120.232 338.207 120.076 337.988 119.861 337.816C119.646 337.644 119.353 337.558 118.982 337.558C118.736 337.558 118.51 337.611 118.303 337.717C118.096 337.818 117.918 337.97 117.769 338.174C117.621 338.377 117.506 338.625 117.424 338.918C117.342 339.211 117.301 339.549 117.301 339.931V340.178C117.301 340.478 117.342 340.761 117.424 341.027C117.51 341.289 117.633 341.519 117.793 341.719C117.957 341.918 118.154 342.074 118.385 342.187C118.619 342.301 118.885 342.357 119.182 342.357C119.564 342.357 119.889 342.279 120.154 342.123C120.42 341.967 120.652 341.758 120.851 341.496L121.508 342.017C121.371 342.224 121.197 342.422 120.986 342.609C120.775 342.797 120.516 342.949 120.207 343.066C119.902 343.183 119.541 343.242 119.123 343.242ZM122.849 334.125H123.939V341.894L123.846 343.125H122.849V334.125ZM128.223 339.902V340.025C128.223 340.486 128.168 340.914 128.058 341.308C127.949 341.699 127.789 342.039 127.578 342.328C127.367 342.617 127.109 342.842 126.805 343.002C126.5 343.162 126.15 343.242 125.756 343.242C125.353 343.242 125 343.174 124.695 343.037C124.394 342.896 124.141 342.695 123.933 342.433C123.726 342.172 123.56 341.855 123.435 341.484C123.314 341.113 123.23 340.695 123.183 340.23V339.691C123.23 339.222 123.314 338.803 123.435 338.431C123.56 338.06 123.726 337.744 123.933 337.482C124.141 337.217 124.394 337.015 124.695 336.879C124.996 336.738 125.346 336.668 125.744 336.668C126.142 336.668 126.496 336.746 126.805 336.902C127.113 337.054 127.371 337.273 127.578 337.558C127.789 337.844 127.949 338.185 128.058 338.584C128.168 338.978 128.223 339.418 128.223 339.902ZM127.133 340.025V339.902C127.133 339.586 127.103 339.289 127.045 339.011C126.986 338.73 126.892 338.484 126.764 338.273C126.635 338.058 126.465 337.89 126.254 337.769C126.043 337.644 125.783 337.582 125.474 337.582C125.201 337.582 124.963 337.629 124.76 337.722C124.56 337.816 124.391 337.943 124.25 338.103C124.109 338.26 123.994 338.439 123.904 338.642C123.818 338.842 123.754 339.049 123.711 339.263V340.676C123.773 340.949 123.875 341.213 124.016 341.467C124.16 341.717 124.351 341.922 124.59 342.082C124.832 342.242 125.131 342.322 125.486 342.322C125.779 342.322 126.029 342.263 126.236 342.146C126.447 342.025 126.617 341.859 126.746 341.648C126.879 341.437 126.976 341.193 127.039 340.916C127.101 340.638 127.133 340.342 127.133 340.025ZM130.678 337.781V343.125H129.594V336.785H130.648L130.678 337.781ZM132.658 336.75L132.652 337.758C132.562 337.738 132.476 337.726 132.394 337.722C132.316 337.715 132.226 337.711 132.125 337.711C131.875 337.711 131.654 337.75 131.463 337.828C131.271 337.906 131.109 338.015 130.976 338.156C130.844 338.297 130.738 338.465 130.66 338.66C130.586 338.851 130.537 339.062 130.514 339.293L130.209 339.469C130.209 339.086 130.246 338.726 130.32 338.39C130.398 338.054 130.517 337.758 130.678 337.5C130.838 337.238 131.041 337.035 131.287 336.89C131.537 336.742 131.834 336.668 132.178 336.668C132.256 336.668 132.346 336.678 132.447 336.697C132.549 336.713 132.619 336.73 132.658 336.75ZM137.539 341.66V336.785H138.629V343.125H137.592L137.539 341.66ZM137.744 340.324L138.195 340.312C138.195 340.734 138.15 341.125 138.06 341.484C137.974 341.84 137.834 342.148 137.639 342.41C137.443 342.672 137.187 342.877 136.871 343.025C136.555 343.17 136.17 343.242 135.717 343.242C135.408 343.242 135.125 343.197 134.867 343.107C134.613 343.017 134.394 342.879 134.211 342.691C134.027 342.504 133.885 342.26 133.783 341.959C133.685 341.658 133.637 341.297 133.637 340.875V336.785H134.721V340.886C134.721 341.172 134.752 341.408 134.814 341.595C134.881 341.779 134.969 341.926 135.078 342.035C135.191 342.14 135.316 342.215 135.453 342.258C135.594 342.301 135.738 342.322 135.887 342.322C136.348 342.322 136.713 342.234 136.982 342.058C137.252 341.879 137.445 341.638 137.562 341.338C137.683 341.033 137.744 340.695 137.744 340.324ZM144.019 342.041V338.777C144.019 338.527 143.969 338.31 143.867 338.127C143.769 337.939 143.621 337.795 143.422 337.693C143.223 337.592 142.976 337.541 142.683 337.541C142.41 337.541 142.17 337.588 141.963 337.681C141.76 337.775 141.599 337.898 141.482 338.051C141.369 338.203 141.312 338.367 141.312 338.543H140.228C140.228 338.316 140.287 338.092 140.404 337.869C140.521 337.646 140.689 337.445 140.908 337.265C141.131 337.082 141.396 336.937 141.705 336.832C142.017 336.722 142.365 336.668 142.748 336.668C143.209 336.668 143.615 336.746 143.967 336.902C144.322 337.058 144.599 337.295 144.799 337.611C145.002 337.924 145.103 338.316 145.103 338.789V341.742C145.103 341.953 145.121 342.178 145.156 342.416C145.195 342.654 145.252 342.859 145.326 343.031V343.125H144.195C144.141 343 144.098 342.834 144.066 342.627C144.035 342.416 144.019 342.22 144.019 342.041ZM144.207 339.281L144.219 340.043H143.123C142.814 340.043 142.539 340.068 142.297 340.119C142.055 340.166 141.851 340.238 141.687 340.336C141.523 340.433 141.398 340.556 141.312 340.705C141.226 340.849 141.183 341.019 141.183 341.215C141.183 341.414 141.228 341.595 141.318 341.76C141.408 341.924 141.543 342.054 141.723 342.152C141.906 342.246 142.131 342.293 142.396 342.293C142.728 342.293 143.021 342.222 143.275 342.082C143.529 341.941 143.73 341.769 143.879 341.566C144.031 341.363 144.113 341.166 144.125 340.974L144.588 341.496C144.56 341.66 144.486 341.842 144.365 342.041C144.244 342.24 144.082 342.431 143.879 342.615C143.68 342.795 143.441 342.945 143.164 343.066C142.891 343.183 142.582 343.242 142.238 343.242C141.808 343.242 141.432 343.158 141.107 342.99C140.787 342.822 140.537 342.597 140.357 342.316C140.182 342.031 140.094 341.713 140.094 341.361C140.094 341.021 140.16 340.722 140.293 340.465C140.426 340.203 140.617 339.986 140.867 339.814C141.117 339.638 141.418 339.506 141.769 339.416C142.121 339.326 142.514 339.281 142.947 339.281H144.207ZM147.892 337.781V343.125H146.808V336.785H147.863L147.892 337.781ZM149.873 336.75L149.867 337.758C149.777 337.738 149.691 337.726 149.609 337.722C149.531 337.715 149.441 337.711 149.34 337.711C149.09 337.711 148.869 337.75 148.678 337.828C148.486 337.906 148.324 338.015 148.191 338.156C148.058 338.297 147.953 338.465 147.875 338.66C147.801 338.851 147.752 339.062 147.728 339.293L147.424 339.469C147.424 339.086 147.461 338.726 147.535 338.39C147.613 338.054 147.732 337.758 147.892 337.5C148.053 337.238 148.256 337.035 148.502 336.89C148.752 336.742 149.049 336.668 149.392 336.668C149.471 336.668 149.56 336.678 149.662 336.697C149.764 336.713 149.834 336.73 149.873 336.75ZM152.762 342.469L154.525 336.785H155.685L153.142 344.103C153.084 344.26 153.006 344.428 152.908 344.607C152.814 344.791 152.693 344.965 152.545 345.129C152.396 345.293 152.217 345.426 152.006 345.527C151.799 345.633 151.551 345.685 151.262 345.685C151.176 345.685 151.066 345.674 150.933 345.65C150.801 345.627 150.707 345.607 150.652 345.592L150.646 344.713C150.678 344.717 150.726 344.72 150.793 344.724C150.863 344.732 150.912 344.736 150.939 344.736C151.185 344.736 151.394 344.703 151.566 344.636C151.738 344.574 151.883 344.467 152 344.314C152.121 344.166 152.224 343.961 152.31 343.699L152.762 342.469ZM151.467 336.785L153.113 341.707L153.394 342.849L152.615 343.248L150.283 336.785H151.467Z" fill="#333333"/>
<path d="M220.926 334.594H222.021L224.816 341.549L227.605 334.594H228.707L225.238 343.125H224.383L220.926 334.594ZM220.568 334.594H221.535L221.693 339.797V343.125H220.568V334.594ZM228.092 334.594H229.058V343.125H227.933V339.797L228.092 334.594ZM234.619 342.041V338.777C234.619 338.527 234.568 338.31 234.467 338.127C234.369 337.939 234.221 337.795 234.021 337.693C233.822 337.592 233.576 337.541 233.283 337.541C233.01 337.541 232.769 337.588 232.562 337.681C232.359 337.775 232.199 337.898 232.082 338.051C231.969 338.203 231.912 338.367 231.912 338.543H230.828C230.828 338.316 230.887 338.092 231.004 337.869C231.121 337.646 231.289 337.445 231.508 337.265C231.73 337.082 231.996 336.937 232.305 336.832C232.617 336.722 232.965 336.668 233.348 336.668C233.808 336.668 234.215 336.746 234.566 336.902C234.922 337.058 235.199 337.295 235.398 337.611C235.601 337.924 235.703 338.316 235.703 338.789V341.742C235.703 341.953 235.721 342.178 235.756 342.416C235.795 342.654 235.851 342.859 235.926 343.031V343.125H234.795C234.74 343 234.697 342.834 234.666 342.627C234.635 342.416 234.619 342.22 234.619 342.041ZM234.807 339.281L234.818 340.043H233.723C233.414 340.043 233.139 340.068 232.896 340.119C232.654 340.166 232.451 340.238 232.287 340.336C232.123 340.433 231.998 340.556 231.912 340.705C231.826 340.849 231.783 341.019 231.783 341.215C231.783 341.414 231.828 341.595 231.918 341.76C232.008 341.924 232.142 342.054 232.322 342.152C232.506 342.246 232.73 342.293 232.996 342.293C233.328 342.293 233.621 342.222 233.875 342.082C234.129 341.941 234.33 341.769 234.478 341.566C234.631 341.363 234.713 341.166 234.724 340.974L235.187 341.496C235.16 341.66 235.086 341.842 234.965 342.041C234.844 342.24 234.682 342.431 234.478 342.615C234.279 342.795 234.041 342.945 233.764 343.066C233.49 343.183 233.182 343.242 232.838 343.242C232.408 343.242 232.031 343.158 231.707 342.99C231.387 342.822 231.137 342.597 230.957 342.316C230.781 342.031 230.693 341.713 230.693 341.361C230.693 341.021 230.76 340.722 230.892 340.465C231.025 340.203 231.217 339.986 231.467 339.814C231.717 339.638 232.017 339.506 232.369 339.416C232.721 339.326 233.113 339.281 233.547 339.281H234.807ZM238.492 337.781V343.125H237.408V336.785H238.463L238.492 337.781ZM240.473 336.75L240.467 337.758C240.377 337.738 240.291 337.726 240.209 337.722C240.131 337.715 240.041 337.711 239.939 337.711C239.689 337.711 239.469 337.75 239.277 337.828C239.086 337.906 238.924 338.015 238.791 338.156C238.658 338.297 238.553 338.465 238.474 338.66C238.4 338.851 238.351 339.062 238.328 339.293L238.023 339.469C238.023 339.086 238.06 338.726 238.135 338.39C238.213 338.054 238.332 337.758 238.492 337.5C238.652 337.238 238.855 337.035 239.101 336.89C239.351 336.742 239.648 336.668 239.992 336.668C240.07 336.668 240.16 336.678 240.262 336.697C240.363 336.713 240.433 336.73 240.473 336.75ZM243.894 342.351C244.152 342.351 244.391 342.299 244.609 342.193C244.828 342.088 245.008 341.943 245.148 341.76C245.289 341.572 245.369 341.359 245.389 341.121H246.42C246.4 341.496 246.273 341.845 246.039 342.17C245.808 342.49 245.506 342.75 245.131 342.949C244.756 343.144 244.344 343.242 243.894 343.242C243.418 343.242 243.002 343.158 242.646 342.99C242.295 342.822 242.002 342.592 241.767 342.299C241.537 342.006 241.363 341.67 241.246 341.291C241.133 340.908 241.076 340.504 241.076 340.078V339.832C241.076 339.406 241.133 339.004 241.246 338.625C241.363 338.242 241.537 337.904 241.767 337.611C242.002 337.318 242.295 337.088 242.646 336.92C243.002 336.752 243.418 336.668 243.894 336.668C244.391 336.668 244.824 336.769 245.195 336.972C245.566 337.172 245.857 337.445 246.068 337.793C246.283 338.136 246.4 338.527 246.42 338.965H245.389C245.369 338.703 245.295 338.467 245.166 338.256C245.041 338.045 244.869 337.877 244.65 337.752C244.435 337.623 244.183 337.558 243.894 337.558C243.562 337.558 243.283 337.625 243.057 337.758C242.834 337.886 242.656 338.062 242.523 338.285C242.394 338.504 242.301 338.748 242.242 339.017C242.187 339.283 242.16 339.554 242.16 339.832V340.078C242.16 340.355 242.187 340.629 242.242 340.898C242.297 341.168 242.389 341.412 242.517 341.631C242.65 341.849 242.828 342.025 243.051 342.158C243.277 342.287 243.558 342.351 243.894 342.351ZM248.723 334.125V343.125H247.639V334.125H248.723ZM248.465 339.715L248.014 339.697C248.017 339.263 248.082 338.863 248.207 338.496C248.332 338.125 248.508 337.803 248.734 337.529C248.961 337.256 249.23 337.045 249.543 336.896C249.859 336.744 250.209 336.668 250.592 336.668C250.904 336.668 251.185 336.711 251.435 336.797C251.685 336.879 251.898 337.011 252.074 337.195C252.254 337.379 252.391 337.617 252.484 337.91C252.578 338.199 252.625 338.553 252.625 338.97V343.125H251.535V338.959C251.535 338.627 251.486 338.361 251.389 338.162C251.291 337.959 251.148 337.812 250.961 337.722C250.773 337.629 250.543 337.582 250.269 337.582C250 337.582 249.754 337.638 249.531 337.752C249.312 337.865 249.123 338.021 248.963 338.22C248.807 338.42 248.683 338.648 248.594 338.906C248.508 339.16 248.465 339.429 248.465 339.715Z" fill="#333333"/>
<path d="M324.944 335.068L322.12 342.843H320.965L324.217 334.312H324.961L324.944 335.068ZM327.311 342.843L324.481 335.068L324.463 334.312H325.208L328.471 342.843H327.311ZM327.165 339.685V340.611H322.372V339.685H327.165ZM330.534 337.722V345.281H329.444V336.504H330.44L330.534 337.722ZM334.805 339.621V339.744C334.805 340.205 334.751 340.633 334.641 341.027C334.532 341.418 334.372 341.758 334.161 342.047C333.954 342.336 333.698 342.56 333.393 342.72C333.088 342.881 332.739 342.961 332.344 342.961C331.942 342.961 331.586 342.894 331.278 342.761C330.969 342.629 330.708 342.435 330.493 342.181C330.278 341.927 330.106 341.623 329.977 341.267C329.852 340.912 329.766 340.511 329.719 340.066V339.41C329.766 338.941 329.854 338.521 329.983 338.15C330.112 337.779 330.282 337.463 330.493 337.201C330.708 336.935 330.967 336.734 331.272 336.597C331.577 336.457 331.928 336.386 332.327 336.386C332.725 336.386 333.079 336.465 333.387 336.621C333.696 336.773 333.956 336.992 334.167 337.277C334.377 337.562 334.536 337.904 334.641 338.302C334.751 338.697 334.805 339.136 334.805 339.621ZM333.715 339.744V339.621C333.715 339.304 333.682 339.008 333.616 338.73C333.549 338.449 333.446 338.203 333.305 337.992C333.168 337.777 332.993 337.609 332.778 337.488C332.563 337.363 332.307 337.301 332.01 337.301C331.737 337.301 331.499 337.347 331.295 337.441C331.096 337.535 330.926 337.662 330.786 337.822C330.645 337.978 330.53 338.158 330.44 338.361C330.354 338.56 330.29 338.767 330.247 338.982V340.5C330.325 340.773 330.434 341.031 330.575 341.273C330.715 341.511 330.903 341.705 331.137 341.853C331.372 341.998 331.667 342.07 332.022 342.07C332.315 342.07 332.567 342.009 332.778 341.888C332.993 341.763 333.168 341.593 333.305 341.379C333.446 341.164 333.549 340.918 333.616 340.64C333.682 340.359 333.715 340.06 333.715 339.744ZM337.272 337.5V342.843H336.188V336.504H337.243L337.272 337.5ZM339.252 336.468L339.247 337.476C339.157 337.457 339.071 337.445 338.989 337.441C338.911 337.433 338.821 337.429 338.719 337.429C338.469 337.429 338.249 337.468 338.057 337.547C337.866 337.625 337.704 337.734 337.571 337.875C337.438 338.015 337.333 338.183 337.254 338.379C337.18 338.57 337.131 338.781 337.108 339.011L336.803 339.187C336.803 338.804 336.84 338.445 336.915 338.109C336.993 337.773 337.112 337.476 337.272 337.218C337.432 336.957 337.635 336.754 337.881 336.609C338.131 336.461 338.428 336.386 338.772 336.386C338.85 336.386 338.94 336.396 339.042 336.416C339.143 336.431 339.213 336.449 339.252 336.468ZM341.432 336.504V342.843H340.342V336.504H341.432ZM340.26 334.822C340.26 334.646 340.313 334.498 340.418 334.377C340.528 334.256 340.688 334.195 340.899 334.195C341.106 334.195 341.264 334.256 341.374 334.377C341.487 334.498 341.543 334.646 341.543 334.822C341.543 334.99 341.487 335.134 341.374 335.256C341.264 335.373 341.106 335.431 340.899 335.431C340.688 335.431 340.528 335.373 340.418 335.256C340.313 335.134 340.26 334.99 340.26 334.822ZM344.35 333.843V342.843H343.26V333.843H344.35Z" fill="#333333"/>
<path d="M423.754 334.312H424.85L427.645 341.267L430.434 334.312H431.536L428.067 342.843H427.211L423.754 334.312ZM423.397 334.312H424.364L424.522 339.515V342.843H423.397V334.312ZM430.92 334.312H431.887V342.843H430.762V339.515L430.92 334.312ZM437.448 341.759V338.496C437.448 338.246 437.397 338.029 437.295 337.845C437.198 337.658 437.049 337.513 436.85 337.412C436.651 337.31 436.405 337.259 436.112 337.259C435.838 337.259 435.598 337.306 435.391 337.4C435.188 337.494 435.028 337.617 434.911 337.769C434.797 337.922 434.741 338.086 434.741 338.261H433.657C433.657 338.035 433.715 337.81 433.832 337.588C433.95 337.365 434.118 337.164 434.336 336.984C434.559 336.801 434.825 336.656 435.133 336.551C435.446 336.441 435.793 336.386 436.176 336.386C436.637 336.386 437.043 336.465 437.395 336.621C437.75 336.777 438.028 337.013 438.227 337.33C438.43 337.642 438.532 338.035 438.532 338.508V341.461C438.532 341.672 438.549 341.896 438.584 342.134C438.623 342.373 438.68 342.578 438.754 342.75V342.843H437.623C437.569 342.718 437.526 342.552 437.495 342.345C437.463 342.134 437.448 341.939 437.448 341.759ZM437.635 339L437.647 339.761H436.551C436.243 339.761 435.967 339.787 435.725 339.838C435.483 339.884 435.28 339.957 435.116 340.054C434.952 340.152 434.827 340.275 434.741 340.424C434.655 340.568 434.612 340.738 434.612 340.933C434.612 341.133 434.657 341.314 434.747 341.478C434.836 341.642 434.971 341.773 435.151 341.871C435.334 341.965 435.559 342.011 435.825 342.011C436.157 342.011 436.45 341.941 436.704 341.801C436.957 341.66 437.159 341.488 437.307 341.285C437.459 341.082 437.541 340.884 437.553 340.693L438.016 341.215C437.989 341.379 437.914 341.56 437.793 341.759C437.672 341.959 437.51 342.15 437.307 342.334C437.108 342.513 436.87 342.664 436.592 342.785C436.319 342.902 436.01 342.961 435.666 342.961C435.237 342.961 434.86 342.877 434.536 342.709C434.215 342.541 433.965 342.316 433.786 342.035C433.61 341.75 433.522 341.431 433.522 341.08C433.522 340.74 433.588 340.441 433.721 340.183C433.854 339.922 434.045 339.705 434.295 339.533C434.545 339.357 434.846 339.224 435.198 339.134C435.549 339.045 435.942 339 436.375 339H437.635ZM441.924 342.187L443.688 336.504H444.848L442.305 343.822C442.247 343.978 442.168 344.146 442.071 344.326C441.977 344.509 441.856 344.683 441.707 344.847C441.559 345.011 441.379 345.144 441.168 345.246C440.961 345.351 440.713 345.404 440.424 345.404C440.338 345.404 440.229 345.392 440.096 345.369C439.963 345.345 439.87 345.326 439.815 345.31L439.809 344.431C439.84 344.435 439.889 344.439 439.955 344.443C440.026 344.451 440.075 344.455 440.102 344.455C440.348 344.455 440.557 344.422 440.729 344.355C440.901 344.293 441.045 344.185 441.163 344.033C441.284 343.884 441.387 343.679 441.473 343.418L441.924 342.187ZM440.629 336.504L442.276 341.426L442.557 342.568L441.778 342.967L439.446 336.504H440.629Z" fill="#333333"/>
<path d="M525.829 340.353V334.312H526.954V340.353C526.954 340.916 526.839 341.39 526.608 341.777C526.378 342.164 526.059 342.459 525.653 342.662C525.251 342.861 524.788 342.961 524.265 342.961C523.741 342.961 523.276 342.871 522.87 342.691C522.464 342.511 522.145 342.238 521.915 341.871C521.684 341.504 521.569 341.041 521.569 340.482H522.7C522.7 340.842 522.767 341.136 522.899 341.367C523.032 341.597 523.216 341.767 523.45 341.877C523.688 341.986 523.96 342.041 524.265 342.041C524.561 342.041 524.827 341.978 525.061 341.853C525.3 341.724 525.487 341.535 525.624 341.285C525.761 341.031 525.829 340.72 525.829 340.353ZM532.585 341.379V336.504H533.675V342.843H532.638L532.585 341.379ZM532.79 340.043L533.241 340.031C533.241 340.453 533.196 340.843 533.106 341.203C533.02 341.558 532.88 341.867 532.684 342.129C532.489 342.39 532.233 342.595 531.917 342.744C531.6 342.888 531.216 342.961 530.763 342.961C530.454 342.961 530.171 342.916 529.913 342.826C529.659 342.736 529.44 342.597 529.257 342.41C529.073 342.222 528.931 341.978 528.829 341.677C528.731 341.377 528.683 341.015 528.683 340.593V336.504H529.767V340.605C529.767 340.89 529.798 341.127 529.86 341.314C529.927 341.498 530.015 341.644 530.124 341.754C530.237 341.859 530.362 341.933 530.499 341.976C530.64 342.019 530.784 342.041 530.933 342.041C531.393 342.041 531.759 341.953 532.028 341.777C532.298 341.597 532.491 341.357 532.608 341.056C532.729 340.752 532.79 340.414 532.79 340.043ZM536.411 337.857V342.843H535.327V336.504H536.352L536.411 337.857ZM536.153 339.433L535.702 339.416C535.706 338.982 535.77 338.582 535.895 338.215C536.02 337.843 536.196 337.521 536.423 337.248C536.649 336.974 536.919 336.763 537.231 336.615C537.548 336.463 537.897 336.386 538.28 336.386C538.593 336.386 538.874 336.429 539.124 336.515C539.374 336.597 539.587 336.73 539.763 336.914C539.942 337.097 540.079 337.336 540.173 337.629C540.267 337.918 540.313 338.271 540.313 338.689V342.843H539.224V338.677C539.224 338.345 539.175 338.08 539.077 337.881C538.979 337.677 538.837 337.531 538.649 337.441C538.462 337.347 538.231 337.301 537.958 337.301C537.688 337.301 537.442 337.357 537.22 337.47C537.001 337.584 536.811 337.74 536.651 337.939C536.495 338.138 536.372 338.367 536.282 338.625C536.196 338.879 536.153 339.148 536.153 339.433ZM544.591 342.961C544.149 342.961 543.749 342.886 543.39 342.738C543.034 342.586 542.727 342.373 542.47 342.099C542.216 341.826 542.02 341.502 541.884 341.127C541.747 340.752 541.679 340.342 541.679 339.896V339.65C541.679 339.134 541.755 338.676 541.907 338.273C542.059 337.867 542.267 337.523 542.528 337.242C542.79 336.961 543.087 336.748 543.419 336.603C543.751 336.459 544.095 336.386 544.45 336.386C544.903 336.386 545.294 336.465 545.622 336.621C545.954 336.777 546.225 336.996 546.436 337.277C546.647 337.554 546.804 337.883 546.905 338.261C547.007 338.636 547.058 339.047 547.058 339.492V339.978H542.323V339.093H545.974V339.011C545.958 338.73 545.899 338.457 545.798 338.191C545.7 337.926 545.544 337.707 545.329 337.535C545.114 337.363 544.821 337.277 544.45 337.277C544.204 337.277 543.977 337.33 543.77 337.435C543.563 337.537 543.386 337.689 543.237 337.892C543.089 338.095 542.974 338.343 542.892 338.636C542.809 338.929 542.768 339.267 542.768 339.65V339.896C542.768 340.197 542.809 340.48 542.892 340.746C542.977 341.008 543.1 341.238 543.261 341.437C543.425 341.636 543.622 341.793 543.852 341.906C544.087 342.019 544.352 342.076 544.649 342.076C545.032 342.076 545.356 341.998 545.622 341.842C545.888 341.685 546.12 341.476 546.319 341.215L546.975 341.736C546.839 341.943 546.665 342.14 546.454 342.328C546.243 342.515 545.983 342.668 545.675 342.785C545.37 342.902 545.009 342.961 544.591 342.961Z" fill="#333333"/>
<path d="M625.148 340.635V334.594H626.273V340.635C626.273 341.197 626.158 341.672 625.928 342.058C625.697 342.445 625.379 342.74 624.973 342.943C624.57 343.142 624.107 343.242 623.584 343.242C623.06 343.242 622.596 343.152 622.189 342.972C621.783 342.793 621.465 342.519 621.234 342.152C621.004 341.785 620.889 341.322 620.889 340.763H622.019C622.019 341.123 622.086 341.418 622.219 341.648C622.351 341.879 622.535 342.049 622.769 342.158C623.008 342.267 623.279 342.322 623.584 342.322C623.881 342.322 624.146 342.26 624.381 342.135C624.619 342.006 624.807 341.816 624.943 341.566C625.08 341.312 625.148 341.002 625.148 340.635ZM631.904 341.66V336.785H632.994V343.125H631.957L631.904 341.66ZM632.109 340.324L632.56 340.312C632.56 340.734 632.516 341.125 632.426 341.484C632.34 341.84 632.199 342.148 632.004 342.41C631.808 342.672 631.553 342.877 631.236 343.025C630.92 343.17 630.535 343.242 630.082 343.242C629.773 343.242 629.49 343.197 629.232 343.107C628.978 343.017 628.76 342.879 628.576 342.691C628.392 342.504 628.25 342.26 628.148 341.959C628.051 341.658 628.002 341.297 628.002 340.875V336.785H629.086V340.886C629.086 341.172 629.117 341.408 629.18 341.595C629.246 341.779 629.334 341.926 629.443 342.035C629.557 342.14 629.682 342.215 629.818 342.258C629.959 342.301 630.103 342.322 630.252 342.322C630.713 342.322 631.078 342.234 631.348 342.058C631.617 341.879 631.81 341.638 631.928 341.338C632.049 341.033 632.109 340.695 632.109 340.324ZM635.824 334.125V343.125H634.734V334.125H635.824ZM639.346 342.469L641.109 336.785H642.269L639.726 344.103C639.668 344.26 639.59 344.428 639.492 344.607C639.398 344.791 639.277 344.965 639.129 345.129C638.98 345.293 638.801 345.426 638.59 345.527C638.383 345.633 638.135 345.685 637.846 345.685C637.76 345.685 637.65 345.674 637.517 345.65C637.385 345.627 637.291 345.607 637.236 345.592L637.23 344.713C637.262 344.717 637.31 344.72 637.377 344.724C637.447 344.732 637.496 344.736 637.523 344.736C637.769 344.736 637.978 344.703 638.15 344.636C638.322 344.574 638.467 344.467 638.584 344.314C638.705 344.166 638.808 343.961 638.894 343.699L639.346 342.469ZM638.051 336.785L639.697 341.707L639.978 342.849L639.199 343.248L636.867 336.785H638.051Z" fill="#333333"/>
<path d="M717.217 335.349L714.392 343.125H713.238L716.49 334.594H717.234L717.217 335.349ZM719.584 343.125L716.754 335.349L716.736 334.594H717.48L720.744 343.125H719.584ZM719.437 339.967V340.892H714.644V339.967H719.437ZM725.531 341.66V336.785H726.621V343.125H725.584L725.531 341.66ZM725.736 340.324L726.187 340.312C726.187 340.734 726.142 341.125 726.053 341.484C725.967 341.84 725.826 342.148 725.631 342.41C725.435 342.672 725.18 342.877 724.863 343.025C724.547 343.17 724.162 343.242 723.709 343.242C723.4 343.242 723.117 343.197 722.859 343.107C722.605 343.017 722.387 342.879 722.203 342.691C722.019 342.504 721.877 342.26 721.775 341.959C721.678 341.658 721.629 341.297 721.629 340.875V336.785H722.713V340.886C722.713 341.172 722.744 341.408 722.807 341.595C722.873 341.779 722.961 341.926 723.07 342.035C723.183 342.14 723.308 342.215 723.445 342.258C723.586 342.301 723.73 342.322 723.879 342.322C724.34 342.322 724.705 342.234 724.974 342.058C725.244 341.879 725.437 341.638 725.555 341.338C725.676 341.033 725.736 340.695 725.736 340.324ZM732.381 336.785H733.365V342.99C733.365 343.549 733.252 344.025 733.025 344.42C732.799 344.814 732.482 345.113 732.076 345.316C731.674 345.523 731.209 345.627 730.682 345.627C730.463 345.627 730.205 345.592 729.908 345.521C729.615 345.455 729.326 345.34 729.041 345.176C728.76 345.015 728.523 344.799 728.332 344.525L728.9 343.881C729.166 344.201 729.443 344.424 729.732 344.549C730.025 344.674 730.314 344.736 730.599 344.736C730.943 344.736 731.24 344.672 731.49 344.543C731.74 344.414 731.933 344.222 732.07 343.969C732.211 343.719 732.281 343.41 732.281 343.043V338.179L732.381 336.785ZM728.016 340.025V339.902C728.016 339.418 728.072 338.978 728.185 338.584C728.303 338.185 728.469 337.844 728.683 337.558C728.902 337.273 729.166 337.054 729.474 336.902C729.783 336.746 730.131 336.668 730.517 336.668C730.916 336.668 731.264 336.738 731.56 336.879C731.861 337.015 732.115 337.217 732.322 337.482C732.533 337.744 732.699 338.06 732.82 338.431C732.941 338.803 733.025 339.222 733.072 339.691V340.23C733.029 340.695 732.945 341.113 732.82 341.484C732.699 341.855 732.533 342.172 732.322 342.433C732.115 342.695 731.861 342.896 731.56 343.037C731.26 343.174 730.908 343.242 730.506 343.242C730.127 343.242 729.783 343.162 729.474 343.002C729.17 342.842 728.908 342.617 728.689 342.328C728.471 342.039 728.303 341.699 728.185 341.308C728.072 340.914 728.016 340.486 728.016 340.025ZM729.099 339.902V340.025C729.099 340.342 729.131 340.638 729.193 340.916C729.26 341.193 729.359 341.437 729.492 341.648C729.629 341.859 729.803 342.025 730.014 342.146C730.224 342.263 730.476 342.322 730.769 342.322C731.129 342.322 731.426 342.246 731.66 342.094C731.894 341.941 732.08 341.74 732.217 341.49C732.357 341.24 732.467 340.969 732.545 340.676V339.263C732.502 339.049 732.435 338.842 732.346 338.642C732.26 338.439 732.146 338.26 732.006 338.103C731.869 337.943 731.699 337.816 731.496 337.722C731.293 337.629 731.055 337.582 730.781 337.582C730.484 337.582 730.228 337.644 730.014 337.769C729.803 337.89 729.629 338.058 729.492 338.273C729.359 338.484 729.26 338.73 729.193 339.011C729.131 339.289 729.099 339.586 729.099 339.902ZM738.891 341.66V336.785H739.98V343.125H738.943L738.891 341.66ZM739.096 340.324L739.547 340.312C739.547 340.734 739.502 341.125 739.412 341.484C739.326 341.84 739.185 342.148 738.99 342.41C738.795 342.672 738.539 342.877 738.223 343.025C737.906 343.17 737.521 343.242 737.068 343.242C736.76 343.242 736.476 343.197 736.219 343.107C735.965 343.017 735.746 342.879 735.562 342.691C735.379 342.504 735.236 342.26 735.135 341.959C735.037 341.658 734.988 341.297 734.988 340.875V336.785H736.072V340.886C736.072 341.172 736.103 341.408 736.166 341.595C736.232 341.779 736.32 341.926 736.43 342.035C736.543 342.14 736.668 342.215 736.805 342.258C736.945 342.301 737.09 342.322 737.238 342.322C737.699 342.322 738.064 342.234 738.334 342.058C738.603 341.879 738.797 341.638 738.914 341.338C739.035 341.033 739.096 340.695 739.096 340.324ZM745.324 341.443C745.324 341.287 745.289 341.142 745.219 341.01C745.152 340.873 745.014 340.75 744.803 340.64C744.596 340.527 744.283 340.429 743.865 340.347C743.514 340.273 743.195 340.185 742.91 340.084C742.629 339.982 742.389 339.859 742.189 339.715C741.994 339.57 741.844 339.4 741.738 339.205C741.633 339.01 741.58 338.781 741.58 338.519C741.58 338.269 741.635 338.033 741.744 337.81C741.857 337.588 742.016 337.39 742.219 337.219C742.426 337.047 742.674 336.912 742.963 336.814C743.252 336.717 743.574 336.668 743.93 336.668C744.437 336.668 744.871 336.758 745.23 336.937C745.59 337.117 745.865 337.357 746.057 337.658C746.248 337.955 746.344 338.285 746.344 338.648H745.26C745.26 338.472 745.207 338.303 745.101 338.138C745 337.97 744.849 337.832 744.65 337.722C744.455 337.613 744.215 337.558 743.93 337.558C743.629 337.558 743.385 337.605 743.197 337.699C743.014 337.789 742.879 337.904 742.793 338.045C742.711 338.185 742.67 338.334 742.67 338.49C742.67 338.607 742.689 338.713 742.728 338.806C742.771 338.896 742.846 338.98 742.951 339.058C743.057 339.133 743.205 339.203 743.396 339.269C743.588 339.336 743.832 339.402 744.129 339.469C744.648 339.586 745.076 339.726 745.412 339.89C745.748 340.054 745.998 340.256 746.162 340.494C746.326 340.732 746.408 341.021 746.408 341.361C746.408 341.638 746.349 341.892 746.232 342.123C746.119 342.353 745.953 342.553 745.734 342.72C745.519 342.885 745.262 343.013 744.961 343.107C744.664 343.197 744.33 343.242 743.959 343.242C743.4 343.242 742.928 343.142 742.541 342.943C742.154 342.744 741.861 342.486 741.662 342.17C741.463 341.853 741.363 341.519 741.363 341.168H742.453C742.469 341.465 742.555 341.701 742.711 341.877C742.867 342.049 743.058 342.172 743.285 342.246C743.512 342.316 743.736 342.351 743.959 342.351C744.256 342.351 744.504 342.312 744.703 342.234C744.906 342.156 745.06 342.049 745.166 341.912C745.271 341.775 745.324 341.619 745.324 341.443ZM750.486 336.785V337.617H747.058V336.785H750.486ZM748.219 335.244H749.303V341.554C749.303 341.769 749.336 341.931 749.402 342.041C749.469 342.15 749.555 342.222 749.66 342.258C749.766 342.293 749.879 342.31 750 342.31C750.09 342.31 750.183 342.303 750.281 342.287C750.383 342.267 750.459 342.252 750.51 342.24L750.516 343.125C750.43 343.152 750.316 343.178 750.176 343.201C750.039 343.228 749.873 343.242 749.678 343.242C749.412 343.242 749.168 343.189 748.945 343.084C748.723 342.978 748.545 342.803 748.412 342.556C748.283 342.306 748.219 341.97 748.219 341.549V335.244Z" fill="#333333"/>
<path d="M816.433 340.969C816.433 340.769 816.402 340.594 816.34 340.441C816.281 340.285 816.176 340.144 816.023 340.019C815.875 339.894 815.668 339.775 815.402 339.662C815.141 339.549 814.808 339.433 814.406 339.316C813.984 339.191 813.603 339.053 813.264 338.9C812.924 338.744 812.633 338.566 812.391 338.367C812.148 338.168 811.963 337.939 811.834 337.681C811.705 337.424 811.641 337.129 811.641 336.797C811.641 336.465 811.709 336.158 811.846 335.877C811.982 335.595 812.178 335.351 812.432 335.144C812.689 334.933 812.996 334.769 813.351 334.652C813.707 334.535 814.103 334.476 814.541 334.476C815.182 334.476 815.724 334.599 816.17 334.845C816.619 335.088 816.961 335.406 817.195 335.801C817.43 336.191 817.547 336.609 817.547 337.054H816.422C816.422 336.734 816.353 336.451 816.217 336.205C816.08 335.955 815.873 335.76 815.596 335.619C815.318 335.474 814.967 335.402 814.541 335.402C814.139 335.402 813.807 335.463 813.545 335.584C813.283 335.705 813.088 335.869 812.959 336.076C812.834 336.283 812.771 336.519 812.771 336.785C812.771 336.965 812.808 337.129 812.883 337.277C812.961 337.422 813.08 337.556 813.24 337.681C813.404 337.806 813.611 337.922 813.861 338.027C814.115 338.133 814.418 338.234 814.769 338.332C815.254 338.469 815.672 338.621 816.023 338.789C816.375 338.957 816.664 339.146 816.891 339.357C817.121 339.564 817.291 339.801 817.4 340.066C817.514 340.328 817.57 340.625 817.57 340.957C817.57 341.304 817.5 341.619 817.359 341.9C817.219 342.181 817.017 342.422 816.756 342.621C816.494 342.82 816.18 342.974 815.812 343.084C815.449 343.189 815.043 343.242 814.594 343.242C814.199 343.242 813.81 343.187 813.428 343.078C813.049 342.969 812.703 342.804 812.391 342.586C812.082 342.367 811.834 342.097 811.646 341.777C811.463 341.453 811.371 341.078 811.371 340.652H812.496C812.496 340.945 812.553 341.197 812.666 341.408C812.779 341.615 812.933 341.787 813.129 341.924C813.328 342.06 813.553 342.162 813.803 342.228C814.057 342.291 814.32 342.322 814.594 342.322C814.988 342.322 815.322 342.267 815.596 342.158C815.869 342.049 816.076 341.892 816.217 341.689C816.361 341.486 816.433 341.246 816.433 340.969ZM821.478 343.242C821.037 343.242 820.637 343.168 820.277 343.019C819.922 342.867 819.615 342.654 819.357 342.381C819.103 342.107 818.908 341.783 818.771 341.408C818.635 341.033 818.566 340.623 818.566 340.178V339.931C818.566 339.416 818.642 338.957 818.795 338.554C818.947 338.148 819.154 337.804 819.416 337.523C819.678 337.242 819.974 337.029 820.307 336.885C820.639 336.74 820.982 336.668 821.338 336.668C821.791 336.668 822.182 336.746 822.51 336.902C822.842 337.058 823.113 337.277 823.324 337.558C823.535 337.836 823.691 338.164 823.793 338.543C823.894 338.918 823.945 339.328 823.945 339.773V340.26H819.211V339.375H822.861V339.293C822.846 339.011 822.787 338.738 822.685 338.472C822.588 338.207 822.432 337.988 822.217 337.816C822.002 337.644 821.709 337.558 821.338 337.558C821.092 337.558 820.865 337.611 820.658 337.717C820.451 337.818 820.273 337.97 820.125 338.174C819.976 338.377 819.861 338.625 819.779 338.918C819.697 339.211 819.656 339.549 819.656 339.931V340.178C819.656 340.478 819.697 340.761 819.779 341.027C819.865 341.289 819.988 341.519 820.148 341.719C820.312 341.918 820.51 342.074 820.74 342.187C820.974 342.301 821.24 342.357 821.537 342.357C821.92 342.357 822.244 342.279 822.51 342.123C822.775 341.967 823.008 341.758 823.207 341.496L823.863 342.017C823.726 342.224 823.553 342.422 823.342 342.609C823.131 342.797 822.871 342.949 822.562 343.066C822.258 343.183 821.896 343.242 821.478 343.242ZM826.295 338.004V345.562H825.205V336.785H826.201L826.295 338.004ZM830.566 339.902V340.025C830.566 340.486 830.512 340.914 830.402 341.308C830.293 341.699 830.133 342.039 829.922 342.328C829.715 342.617 829.459 342.842 829.154 343.002C828.849 343.162 828.5 343.242 828.105 343.242C827.703 343.242 827.348 343.176 827.039 343.043C826.73 342.91 826.469 342.717 826.254 342.463C826.039 342.209 825.867 341.904 825.738 341.549C825.613 341.193 825.527 340.793 825.48 340.347V339.691C825.527 339.222 825.615 338.803 825.744 338.431C825.873 338.06 826.043 337.744 826.254 337.482C826.469 337.217 826.728 337.015 827.033 336.879C827.338 336.738 827.689 336.668 828.088 336.668C828.486 336.668 828.84 336.746 829.148 336.902C829.457 337.054 829.717 337.273 829.928 337.558C830.139 337.844 830.297 338.185 830.402 338.584C830.512 338.978 830.566 339.418 830.566 339.902ZM829.476 340.025V339.902C829.476 339.586 829.443 339.289 829.377 339.011C829.31 338.73 829.207 338.484 829.066 338.273C828.93 338.058 828.754 337.89 828.539 337.769C828.324 337.644 828.068 337.582 827.771 337.582C827.498 337.582 827.26 337.629 827.057 337.722C826.857 337.816 826.687 337.943 826.547 338.103C826.406 338.26 826.291 338.439 826.201 338.642C826.115 338.842 826.051 339.049 826.008 339.263V340.781C826.086 341.054 826.195 341.312 826.336 341.554C826.476 341.793 826.664 341.986 826.898 342.135C827.133 342.279 827.428 342.351 827.783 342.351C828.076 342.351 828.328 342.291 828.539 342.17C828.754 342.045 828.93 341.875 829.066 341.66C829.207 341.445 829.31 341.199 829.377 340.922C829.443 340.64 829.476 340.342 829.476 340.025ZM834.603 336.785V337.617H831.176V336.785H834.603ZM832.336 335.244H833.42V341.554C833.42 341.769 833.453 341.931 833.519 342.041C833.586 342.15 833.672 342.222 833.777 342.258C833.883 342.293 833.996 342.31 834.117 342.31C834.207 342.31 834.301 342.303 834.398 342.287C834.5 342.267 834.576 342.252 834.627 342.24L834.633 343.125C834.547 343.152 834.433 343.178 834.293 343.201C834.156 343.228 833.99 343.242 833.795 343.242C833.529 343.242 833.285 343.189 833.062 343.084C832.84 342.978 832.662 342.803 832.529 342.556C832.4 342.306 832.336 341.97 832.336 341.549V335.244ZM838.506 343.242C838.064 343.242 837.664 343.168 837.305 343.019C836.949 342.867 836.642 342.654 836.385 342.381C836.131 342.107 835.935 341.783 835.799 341.408C835.662 341.033 835.594 340.623 835.594 340.178V339.931C835.594 339.416 835.67 338.957 835.822 338.554C835.974 338.148 836.182 337.804 836.443 337.523C836.705 337.242 837.002 337.029 837.334 336.885C837.666 336.74 838.01 336.668 838.365 336.668C838.818 336.668 839.209 336.746 839.537 336.902C839.869 337.058 840.141 337.277 840.351 337.558C840.562 337.836 840.719 338.164 840.82 338.543C840.922 338.918 840.973 339.328 840.973 339.773V340.26H836.238V339.375H839.889V339.293C839.873 339.011 839.814 338.738 839.713 338.472C839.615 338.207 839.459 337.988 839.244 337.816C839.029 337.644 838.736 337.558 838.365 337.558C838.119 337.558 837.892 337.611 837.685 337.717C837.478 337.818 837.301 337.97 837.152 338.174C837.004 338.377 836.889 338.625 836.807 338.918C836.724 339.211 836.683 339.549 836.683 339.931V340.178C836.683 340.478 836.724 340.761 836.807 341.027C836.892 341.289 837.016 341.519 837.176 341.719C837.34 341.918 837.537 342.074 837.767 342.187C838.002 342.301 838.267 342.357 838.564 342.357C838.947 342.357 839.271 342.279 839.537 342.123C839.803 341.967 840.035 341.758 840.234 341.496L840.891 342.017C840.754 342.224 840.58 342.422 840.369 342.609C840.158 342.797 839.898 342.949 839.59 343.066C839.285 343.183 838.924 343.242 838.506 343.242ZM843.316 338.045V343.125H842.226V336.785H843.258L843.316 338.045ZM843.094 339.715L842.59 339.697C842.594 339.263 842.65 338.863 842.76 338.496C842.869 338.125 843.031 337.803 843.246 337.529C843.461 337.256 843.728 337.045 844.049 336.896C844.369 336.744 844.74 336.668 845.162 336.668C845.459 336.668 845.732 336.711 845.982 336.797C846.232 336.879 846.449 337.01 846.633 337.189C846.816 337.369 846.959 337.599 847.06 337.881C847.162 338.162 847.213 338.502 847.213 338.9V343.125H846.129V338.953C846.129 338.621 846.072 338.355 845.959 338.156C845.849 337.957 845.693 337.812 845.49 337.722C845.287 337.629 845.049 337.582 844.775 337.582C844.455 337.582 844.187 337.638 843.973 337.752C843.758 337.865 843.586 338.021 843.457 338.22C843.328 338.42 843.234 338.648 843.176 338.906C843.121 339.16 843.094 339.429 843.094 339.715ZM847.201 339.117L846.474 339.34C846.478 338.992 846.535 338.658 846.644 338.338C846.758 338.017 846.92 337.732 847.131 337.482C847.346 337.232 847.609 337.035 847.922 336.89C848.234 336.742 848.592 336.668 848.994 336.668C849.334 336.668 849.635 336.713 849.896 336.803C850.162 336.892 850.385 337.031 850.564 337.219C850.748 337.402 850.887 337.638 850.98 337.928C851.074 338.217 851.121 338.56 851.121 338.959V343.125H850.031V338.947C850.031 338.592 849.974 338.316 849.861 338.121C849.752 337.922 849.596 337.783 849.392 337.705C849.193 337.623 848.955 337.582 848.678 337.582C848.439 337.582 848.228 337.623 848.045 337.705C847.861 337.787 847.707 337.9 847.582 338.045C847.457 338.185 847.361 338.347 847.295 338.531C847.232 338.715 847.201 338.91 847.201 339.117ZM852.756 334.125H853.846V341.894L853.752 343.125H852.756V334.125ZM858.129 339.902V340.025C858.129 340.486 858.074 340.914 857.965 341.308C857.855 341.699 857.695 342.039 857.484 342.328C857.273 342.617 857.016 342.842 856.711 343.002C856.406 343.162 856.057 343.242 855.662 343.242C855.26 343.242 854.906 343.174 854.601 343.037C854.301 342.896 854.047 342.695 853.84 342.433C853.633 342.172 853.467 341.855 853.342 341.484C853.221 341.113 853.137 340.695 853.09 340.23V339.691C853.137 339.222 853.221 338.803 853.342 338.431C853.467 338.06 853.633 337.744 853.84 337.482C854.047 337.217 854.301 337.015 854.601 336.879C854.902 336.738 855.252 336.668 855.65 336.668C856.049 336.668 856.402 336.746 856.711 336.902C857.019 337.054 857.277 337.273 857.484 337.558C857.695 337.844 857.855 338.185 857.965 338.584C858.074 338.978 858.129 339.418 858.129 339.902ZM857.039 340.025V339.902C857.039 339.586 857.01 339.289 856.951 339.011C856.892 338.73 856.799 338.484 856.67 338.273C856.541 338.058 856.371 337.89 856.16 337.769C855.949 337.644 855.689 337.582 855.381 337.582C855.107 337.582 854.869 337.629 854.666 337.722C854.467 337.816 854.297 337.943 854.156 338.103C854.016 338.26 853.9 338.439 853.81 338.642C853.724 338.842 853.66 339.049 853.617 339.263V340.676C853.68 340.949 853.781 341.213 853.922 341.467C854.066 341.717 854.258 341.922 854.496 342.082C854.738 342.242 855.037 342.322 855.392 342.322C855.685 342.322 855.935 342.263 856.142 342.146C856.353 342.025 856.523 341.859 856.652 341.648C856.785 341.437 856.883 341.193 856.945 340.916C857.008 340.638 857.039 340.342 857.039 340.025ZM862.131 343.242C861.689 343.242 861.289 343.168 860.93 343.019C860.574 342.867 860.267 342.654 860.01 342.381C859.756 342.107 859.56 341.783 859.424 341.408C859.287 341.033 859.219 340.623 859.219 340.178V339.931C859.219 339.416 859.295 338.957 859.447 338.554C859.599 338.148 859.807 337.804 860.068 337.523C860.33 337.242 860.627 337.029 860.959 336.885C861.291 336.74 861.635 336.668 861.99 336.668C862.443 336.668 862.834 336.746 863.162 336.902C863.494 337.058 863.766 337.277 863.976 337.558C864.187 337.836 864.344 338.164 864.445 338.543C864.547 338.918 864.598 339.328 864.598 339.773V340.26H859.863V339.375H863.514V339.293C863.498 339.011 863.439 338.738 863.338 338.472C863.24 338.207 863.084 337.988 862.869 337.816C862.654 337.644 862.361 337.558 861.99 337.558C861.744 337.558 861.517 337.611 861.31 337.717C861.103 337.818 860.926 337.97 860.777 338.174C860.629 338.377 860.514 338.625 860.432 338.918C860.349 339.211 860.308 339.549 860.308 339.931V340.178C860.308 340.478 860.349 340.761 860.432 341.027C860.517 341.289 860.641 341.519 860.801 341.719C860.965 341.918 861.162 342.074 861.392 342.187C861.627 342.301 861.892 342.357 862.189 342.357C862.572 342.357 862.896 342.279 863.162 342.123C863.428 341.967 863.66 341.758 863.859 341.496L864.516 342.017C864.379 342.224 864.205 342.422 863.994 342.609C863.783 342.797 863.523 342.949 863.215 343.066C862.91 343.183 862.549 343.242 862.131 343.242ZM866.947 337.781V343.125H865.863V336.785H866.918L866.947 337.781ZM868.928 336.75L868.922 337.758C868.832 337.738 868.746 337.726 868.664 337.722C868.586 337.715 868.496 337.711 868.394 337.711C868.144 337.711 867.924 337.75 867.732 337.828C867.541 337.906 867.379 338.015 867.246 338.156C867.113 338.297 867.008 338.465 866.93 338.66C866.855 338.851 866.807 339.062 866.783 339.293L866.478 339.469C866.478 339.086 866.516 338.726 866.59 338.39C866.668 338.054 866.787 337.758 866.947 337.5C867.107 337.238 867.31 337.035 867.557 336.89C867.807 336.742 868.103 336.668 868.447 336.668C868.525 336.668 868.615 336.678 868.717 336.697C868.818 336.713 868.889 336.73 868.928 336.75Z" fill="#333333"/>
<path d="M924.877 338.59V339.129C924.877 339.769 924.797 340.344 924.637 340.851C924.476 341.359 924.246 341.791 923.945 342.146C923.644 342.502 923.283 342.773 922.861 342.961C922.443 343.148 921.974 343.242 921.455 343.242C920.951 343.242 920.488 343.148 920.066 342.961C919.648 342.773 919.285 342.502 918.976 342.146C918.672 341.791 918.435 341.359 918.267 340.851C918.099 340.344 918.016 339.769 918.016 339.129V338.59C918.016 337.949 918.098 337.377 918.262 336.873C918.43 336.365 918.666 335.933 918.971 335.578C919.275 335.219 919.637 334.945 920.055 334.758C920.476 334.57 920.939 334.476 921.443 334.476C921.963 334.476 922.432 334.57 922.849 334.758C923.271 334.945 923.633 335.219 923.933 335.578C924.238 335.933 924.471 336.365 924.631 336.873C924.795 337.377 924.877 337.949 924.877 338.59ZM923.758 339.129V338.578C923.758 338.07 923.705 337.621 923.599 337.23C923.498 336.84 923.348 336.511 923.148 336.246C922.949 335.98 922.705 335.779 922.416 335.642C922.131 335.506 921.807 335.437 921.443 335.437C921.092 335.437 920.773 335.506 920.488 335.642C920.207 335.779 919.965 335.98 919.762 336.246C919.562 336.511 919.408 336.84 919.299 337.23C919.189 337.621 919.135 338.07 919.135 338.578V339.129C919.135 339.64 919.189 340.094 919.299 340.488C919.408 340.879 919.564 341.209 919.767 341.478C919.974 341.744 920.219 341.945 920.5 342.082C920.785 342.219 921.103 342.287 921.455 342.287C921.822 342.287 922.148 342.219 922.433 342.082C922.719 341.945 922.959 341.744 923.154 341.478C923.353 341.209 923.504 340.879 923.605 340.488C923.707 340.094 923.758 339.64 923.758 339.129ZM928.943 342.351C929.201 342.351 929.439 342.299 929.658 342.193C929.877 342.088 930.057 341.943 930.197 341.76C930.338 341.572 930.418 341.359 930.437 341.121H931.469C931.449 341.496 931.322 341.845 931.088 342.17C930.857 342.49 930.555 342.75 930.18 342.949C929.805 343.144 929.392 343.242 928.943 343.242C928.467 343.242 928.051 343.158 927.695 342.99C927.344 342.822 927.051 342.592 926.816 342.299C926.586 342.006 926.412 341.67 926.295 341.291C926.182 340.908 926.125 340.504 926.125 340.078V339.832C926.125 339.406 926.182 339.004 926.295 338.625C926.412 338.242 926.586 337.904 926.816 337.611C927.051 337.318 927.344 337.088 927.695 336.92C928.051 336.752 928.467 336.668 928.943 336.668C929.439 336.668 929.873 336.769 930.244 336.972C930.615 337.172 930.906 337.445 931.117 337.793C931.332 338.136 931.449 338.527 931.469 338.965H930.437C930.418 338.703 930.344 338.467 930.215 338.256C930.09 338.045 929.918 337.877 929.699 337.752C929.484 337.623 929.232 337.558 928.943 337.558C928.611 337.558 928.332 337.625 928.105 337.758C927.883 337.886 927.705 338.062 927.572 338.285C927.443 338.504 927.349 338.748 927.291 339.017C927.236 339.283 927.209 339.554 927.209 339.832V340.078C927.209 340.355 927.236 340.629 927.291 340.898C927.346 341.168 927.437 341.412 927.566 341.631C927.699 341.849 927.877 342.025 928.099 342.158C928.326 342.287 928.607 342.351 928.943 342.351ZM935.342 336.785V337.617H931.914V336.785H935.342ZM933.074 335.244H934.158V341.554C934.158 341.769 934.191 341.931 934.258 342.041C934.324 342.15 934.41 342.222 934.516 342.258C934.621 342.293 934.734 342.31 934.855 342.31C934.945 342.31 935.039 342.303 935.137 342.287C935.238 342.267 935.314 342.252 935.365 342.24L935.371 343.125C935.285 343.152 935.172 343.178 935.031 343.201C934.894 343.228 934.728 343.242 934.533 343.242C934.267 343.242 934.023 343.189 933.801 343.084C933.578 342.978 933.4 342.803 933.267 342.556C933.139 342.306 933.074 341.97 933.074 341.549V335.244ZM936.209 340.025V339.89C936.209 339.433 936.275 339.01 936.408 338.619C936.541 338.224 936.732 337.883 936.982 337.594C937.232 337.301 937.535 337.074 937.891 336.914C938.246 336.75 938.644 336.668 939.086 336.668C939.531 336.668 939.932 336.75 940.287 336.914C940.646 337.074 940.951 337.301 941.201 337.594C941.455 337.883 941.648 338.224 941.781 338.619C941.914 339.01 941.98 339.433 941.98 339.89V340.025C941.98 340.482 941.914 340.906 941.781 341.297C941.648 341.687 941.455 342.029 941.201 342.322C940.951 342.611 940.648 342.838 940.293 343.002C939.941 343.162 939.543 343.242 939.098 343.242C938.652 343.242 938.252 343.162 937.896 343.002C937.541 342.838 937.236 342.611 936.982 342.322C936.732 342.029 936.541 341.687 936.408 341.297C936.275 340.906 936.209 340.482 936.209 340.025ZM937.293 339.89V340.025C937.293 340.342 937.33 340.64 937.404 340.922C937.478 341.199 937.59 341.445 937.738 341.66C937.891 341.875 938.08 342.045 938.307 342.17C938.533 342.291 938.797 342.351 939.098 342.351C939.394 342.351 939.654 342.291 939.877 342.17C940.103 342.045 940.291 341.875 940.439 341.66C940.588 341.445 940.699 341.199 940.773 340.922C940.851 340.64 940.891 340.342 940.891 340.025V339.89C940.891 339.578 940.851 339.283 940.773 339.006C940.699 338.724 940.586 338.476 940.433 338.261C940.285 338.043 940.098 337.871 939.871 337.746C939.648 337.621 939.387 337.558 939.086 337.558C938.789 337.558 938.527 337.621 938.301 337.746C938.078 337.871 937.891 338.043 937.738 338.261C937.59 338.476 937.478 338.724 937.404 339.006C937.33 339.283 937.293 339.578 937.293 339.89ZM943.334 334.125H944.424V341.894L944.33 343.125H943.334V334.125ZM948.707 339.902V340.025C948.707 340.486 948.652 340.914 948.543 341.308C948.433 341.699 948.273 342.039 948.062 342.328C947.851 342.617 947.594 342.842 947.289 343.002C946.984 343.162 946.635 343.242 946.24 343.242C945.838 343.242 945.484 343.174 945.18 343.037C944.879 342.896 944.625 342.695 944.418 342.433C944.211 342.172 944.045 341.855 943.92 341.484C943.799 341.113 943.715 340.695 943.668 340.23V339.691C943.715 339.222 943.799 338.803 943.92 338.431C944.045 338.06 944.211 337.744 944.418 337.482C944.625 337.217 944.879 337.015 945.18 336.879C945.48 336.738 945.83 336.668 946.228 336.668C946.627 336.668 946.98 336.746 947.289 336.902C947.598 337.054 947.855 337.273 948.062 337.558C948.273 337.844 948.433 338.185 948.543 338.584C948.652 338.978 948.707 339.418 948.707 339.902ZM947.617 340.025V339.902C947.617 339.586 947.588 339.289 947.529 339.011C947.471 338.73 947.377 338.484 947.248 338.273C947.119 338.058 946.949 337.89 946.738 337.769C946.527 337.644 946.267 337.582 945.959 337.582C945.685 337.582 945.447 337.629 945.244 337.722C945.045 337.816 944.875 337.943 944.734 338.103C944.594 338.26 944.478 338.439 944.389 338.642C944.303 338.842 944.238 339.049 944.195 339.263V340.676C944.258 340.949 944.359 341.213 944.5 341.467C944.644 341.717 944.836 341.922 945.074 342.082C945.316 342.242 945.615 342.322 945.971 342.322C946.264 342.322 946.514 342.263 946.721 342.146C946.932 342.025 947.101 341.859 947.23 341.648C947.363 341.437 947.461 341.193 947.523 340.916C947.586 340.638 947.617 340.342 947.617 340.025ZM952.709 343.242C952.267 343.242 951.867 343.168 951.508 343.019C951.152 342.867 950.846 342.654 950.588 342.381C950.334 342.107 950.139 341.783 950.002 341.408C949.865 341.033 949.797 340.623 949.797 340.178V339.931C949.797 339.416 949.873 338.957 950.025 338.554C950.178 338.148 950.385 337.804 950.646 337.523C950.908 337.242 951.205 337.029 951.537 336.885C951.869 336.74 952.213 336.668 952.568 336.668C953.021 336.668 953.412 336.746 953.74 336.902C954.072 337.058 954.344 337.277 954.555 337.558C954.766 337.836 954.922 338.164 955.023 338.543C955.125 338.918 955.176 339.328 955.176 339.773V340.26H950.441V339.375H954.092V339.293C954.076 339.011 954.017 338.738 953.916 338.472C953.818 338.207 953.662 337.988 953.447 337.816C953.232 337.644 952.939 337.558 952.568 337.558C952.322 337.558 952.096 337.611 951.889 337.717C951.682 337.818 951.504 337.97 951.355 338.174C951.207 338.377 951.092 338.625 951.01 338.918C950.928 339.211 950.887 339.549 950.887 339.931V340.178C950.887 340.478 950.928 340.761 951.01 341.027C951.096 341.289 951.219 341.519 951.379 341.719C951.543 341.918 951.74 342.074 951.971 342.187C952.205 342.301 952.471 342.357 952.767 342.357C953.15 342.357 953.474 342.279 953.74 342.123C954.006 341.967 954.238 341.758 954.437 341.496L955.094 342.017C954.957 342.224 954.783 342.422 954.572 342.609C954.361 342.797 954.101 342.949 953.793 343.066C953.488 343.183 953.127 343.242 952.709 343.242ZM957.525 337.781V343.125H956.441V336.785H957.496L957.525 337.781ZM959.506 336.75L959.5 337.758C959.41 337.738 959.324 337.726 959.242 337.722C959.164 337.715 959.074 337.711 958.973 337.711C958.723 337.711 958.502 337.75 958.31 337.828C958.119 337.906 957.957 338.015 957.824 338.156C957.691 338.297 957.586 338.465 957.508 338.66C957.433 338.851 957.385 339.062 957.361 339.293L957.057 339.469C957.057 339.086 957.094 338.726 957.168 338.39C957.246 338.054 957.365 337.758 957.525 337.5C957.685 337.238 957.889 337.035 958.135 336.89C958.385 336.742 958.682 336.668 959.025 336.668C959.103 336.668 959.193 336.678 959.295 336.697C959.396 336.713 959.467 336.73 959.506 336.75Z" fill="#333333"/>
<path d="M1016.77 334.312V342.843H1015.63L1011.33 336.263V342.843H1010.2V334.312H1011.33L1015.65 340.91V334.312H1016.77ZM1018.32 339.744V339.609C1018.32 339.152 1018.38 338.728 1018.52 338.338C1018.65 337.943 1018.84 337.601 1019.09 337.312C1019.34 337.019 1019.64 336.793 1020 336.633C1020.36 336.468 1020.75 336.386 1021.2 336.386C1021.64 336.386 1022.04 336.468 1022.4 336.633C1022.76 336.793 1023.06 337.019 1023.31 337.312C1023.56 337.601 1023.76 337.943 1023.89 338.338C1024.02 338.728 1024.09 339.152 1024.09 339.609V339.744C1024.09 340.201 1024.02 340.625 1023.89 341.015C1023.76 341.406 1023.56 341.748 1023.31 342.041C1023.06 342.33 1022.76 342.556 1022.4 342.72C1022.05 342.881 1021.65 342.961 1021.21 342.961C1020.76 342.961 1020.36 342.881 1020.01 342.72C1019.65 342.556 1019.35 342.33 1019.09 342.041C1018.84 341.748 1018.65 341.406 1018.52 341.015C1018.38 340.625 1018.32 340.201 1018.32 339.744ZM1019.4 339.609V339.744C1019.4 340.06 1019.44 340.359 1019.51 340.64C1019.59 340.918 1019.7 341.164 1019.85 341.379C1020 341.593 1020.19 341.763 1020.42 341.888C1020.64 342.009 1020.91 342.07 1021.21 342.07C1021.5 342.07 1021.76 342.009 1021.99 341.888C1022.21 341.763 1022.4 341.593 1022.55 341.379C1022.7 341.164 1022.81 340.918 1022.88 340.64C1022.96 340.359 1023 340.06 1023 339.744V339.609C1023 339.297 1022.96 339.002 1022.88 338.724C1022.81 338.443 1022.7 338.195 1022.54 337.98C1022.39 337.761 1022.21 337.59 1021.98 337.465C1021.76 337.34 1021.5 337.277 1021.2 337.277C1020.9 337.277 1020.64 337.34 1020.41 337.465C1020.19 337.59 1020 337.761 1019.85 337.98C1019.7 338.195 1019.59 338.443 1019.51 338.724C1019.44 339.002 1019.4 339.297 1019.4 339.609ZM1027.28 341.865L1029.02 336.504H1030.12L1027.85 342.843H1027.12L1027.28 341.865ZM1025.84 336.504L1027.62 341.894L1027.75 342.843H1027.02L1024.72 336.504H1025.84ZM1033.72 342.961C1033.28 342.961 1032.87 342.886 1032.52 342.738C1032.16 342.586 1031.85 342.373 1031.6 342.099C1031.34 341.826 1031.15 341.502 1031.01 341.127C1030.87 340.752 1030.8 340.342 1030.8 339.896V339.65C1030.8 339.134 1030.88 338.676 1031.03 338.273C1031.19 337.867 1031.39 337.523 1031.65 337.242C1031.92 336.961 1032.21 336.748 1032.54 336.603C1032.88 336.459 1033.22 336.386 1033.58 336.386C1034.03 336.386 1034.42 336.465 1034.75 336.621C1035.08 336.777 1035.35 336.996 1035.56 337.277C1035.77 337.554 1035.93 337.883 1036.03 338.261C1036.13 338.636 1036.18 339.047 1036.18 339.492V339.978H1031.45V339.093H1035.1V339.011C1035.08 338.73 1035.03 338.457 1034.92 338.191C1034.83 337.926 1034.67 337.707 1034.45 337.535C1034.24 337.363 1033.95 337.277 1033.58 337.277C1033.33 337.277 1033.1 337.33 1032.9 337.435C1032.69 337.537 1032.51 337.689 1032.36 337.892C1032.21 338.095 1032.1 338.343 1032.02 338.636C1031.94 338.929 1031.89 339.267 1031.89 339.65V339.896C1031.89 340.197 1031.94 340.48 1032.02 340.746C1032.1 341.008 1032.23 341.238 1032.39 341.437C1032.55 341.636 1032.75 341.793 1032.98 341.906C1033.21 342.019 1033.48 342.076 1033.78 342.076C1034.16 342.076 1034.48 341.998 1034.75 341.842C1035.01 341.685 1035.25 341.476 1035.45 341.215L1036.1 341.736C1035.96 341.943 1035.79 342.14 1035.58 342.328C1035.37 342.515 1035.11 342.668 1034.8 342.785C1034.5 342.902 1034.13 342.961 1033.72 342.961ZM1038.53 337.763V342.843H1037.44V336.504H1038.47L1038.53 337.763ZM1038.3 339.433L1037.8 339.416C1037.8 338.982 1037.86 338.582 1037.97 338.215C1038.08 337.843 1038.24 337.521 1038.46 337.248C1038.67 336.974 1038.94 336.763 1039.26 336.615C1039.58 336.463 1039.95 336.386 1040.37 336.386C1040.67 336.386 1040.94 336.429 1041.19 336.515C1041.44 336.597 1041.66 336.728 1041.84 336.908C1042.03 337.088 1042.17 337.318 1042.27 337.599C1042.37 337.881 1042.42 338.22 1042.42 338.619V342.843H1041.34V338.672C1041.34 338.34 1041.28 338.074 1041.17 337.875C1041.06 337.676 1040.9 337.531 1040.7 337.441C1040.5 337.347 1040.26 337.301 1039.99 337.301C1039.67 337.301 1039.4 337.357 1039.18 337.47C1038.97 337.584 1038.8 337.74 1038.67 337.939C1038.54 338.138 1038.45 338.367 1038.39 338.625C1038.33 338.879 1038.3 339.148 1038.3 339.433ZM1042.41 338.836L1041.69 339.058C1041.69 338.711 1041.75 338.377 1041.86 338.056C1041.97 337.736 1042.13 337.451 1042.34 337.201C1042.56 336.951 1042.82 336.754 1043.13 336.609C1043.45 336.461 1043.8 336.386 1044.2 336.386C1044.54 336.386 1044.85 336.431 1045.11 336.521C1045.37 336.611 1045.6 336.75 1045.78 336.937C1045.96 337.121 1046.1 337.357 1046.19 337.646C1046.28 337.935 1046.33 338.279 1046.33 338.677V342.843H1045.24V338.666C1045.24 338.31 1045.19 338.035 1045.07 337.84C1044.96 337.64 1044.81 337.502 1044.6 337.424C1044.4 337.342 1044.17 337.301 1043.89 337.301C1043.65 337.301 1043.44 337.342 1043.26 337.424C1043.07 337.506 1042.92 337.619 1042.79 337.763C1042.67 337.904 1042.57 338.066 1042.51 338.25C1042.44 338.433 1042.41 338.629 1042.41 338.836ZM1047.97 333.843H1049.06V341.613L1048.96 342.843H1047.97V333.843ZM1053.34 339.621V339.744C1053.34 340.205 1053.28 340.633 1053.18 341.027C1053.07 341.418 1052.91 341.758 1052.7 342.047C1052.48 342.336 1052.23 342.56 1051.92 342.72C1051.62 342.881 1051.27 342.961 1050.87 342.961C1050.47 342.961 1050.12 342.892 1049.81 342.756C1049.51 342.615 1049.26 342.414 1049.05 342.152C1048.84 341.89 1048.68 341.574 1048.55 341.203C1048.43 340.832 1048.35 340.414 1048.3 339.949V339.41C1048.35 338.941 1048.43 338.521 1048.55 338.15C1048.68 337.779 1048.84 337.463 1049.05 337.201C1049.26 336.935 1049.51 336.734 1049.81 336.597C1050.11 336.457 1050.46 336.386 1050.86 336.386C1051.26 336.386 1051.61 336.465 1051.92 336.621C1052.23 336.773 1052.49 336.992 1052.7 337.277C1052.91 337.562 1053.07 337.904 1053.18 338.302C1053.28 338.697 1053.34 339.136 1053.34 339.621ZM1052.25 339.744V339.621C1052.25 339.304 1052.22 339.008 1052.16 338.73C1052.1 338.449 1052.01 338.203 1051.88 337.992C1051.75 337.777 1051.58 337.609 1051.37 337.488C1051.16 337.363 1050.9 337.301 1050.59 337.301C1050.32 337.301 1050.08 337.347 1049.88 337.441C1049.68 337.535 1049.51 337.662 1049.37 337.822C1049.23 337.978 1049.11 338.158 1049.02 338.361C1048.94 338.56 1048.87 338.767 1048.83 338.982V340.394C1048.89 340.668 1048.99 340.931 1049.13 341.185C1049.28 341.435 1049.47 341.64 1049.71 341.801C1049.95 341.961 1050.25 342.041 1050.6 342.041C1050.9 342.041 1051.15 341.982 1051.35 341.865C1051.56 341.744 1051.73 341.578 1051.86 341.367C1052 341.156 1052.09 340.912 1052.16 340.634C1052.22 340.357 1052.25 340.06 1052.25 339.744ZM1057.34 342.961C1056.9 342.961 1056.5 342.886 1056.14 342.738C1055.78 342.586 1055.48 342.373 1055.22 342.099C1054.97 341.826 1054.77 341.502 1054.63 341.127C1054.5 340.752 1054.43 340.342 1054.43 339.896V339.65C1054.43 339.134 1054.51 338.676 1054.66 338.273C1054.81 337.867 1055.02 337.523 1055.28 337.242C1055.54 336.961 1055.84 336.748 1056.17 336.603C1056.5 336.459 1056.85 336.386 1057.2 336.386C1057.65 336.386 1058.04 336.465 1058.37 336.621C1058.7 336.777 1058.98 336.996 1059.19 337.277C1059.4 337.554 1059.55 337.883 1059.66 338.261C1059.76 338.636 1059.81 339.047 1059.81 339.492V339.978H1055.07V339.093H1058.72V339.011C1058.71 338.73 1058.65 338.457 1058.55 338.191C1058.45 337.926 1058.29 337.707 1058.08 337.535C1057.87 337.363 1057.57 337.277 1057.2 337.277C1056.95 337.277 1056.73 337.33 1056.52 337.435C1056.31 337.537 1056.14 337.689 1055.99 337.892C1055.84 338.095 1055.72 338.343 1055.64 338.636C1055.56 338.929 1055.52 339.267 1055.52 339.65V339.896C1055.52 340.197 1055.56 340.48 1055.64 340.746C1055.73 341.008 1055.85 341.238 1056.01 341.437C1056.18 341.636 1056.37 341.793 1056.6 341.906C1056.84 342.019 1057.1 342.076 1057.4 342.076C1057.78 342.076 1058.11 341.998 1058.37 341.842C1058.64 341.685 1058.87 341.476 1059.07 341.215L1059.73 341.736C1059.59 341.943 1059.42 342.14 1059.2 342.328C1058.99 342.515 1058.73 342.668 1058.43 342.785C1058.12 342.902 1057.76 342.961 1057.34 342.961ZM1062.16 337.5V342.843H1061.07V336.504H1062.13L1062.16 337.5ZM1064.14 336.468L1064.13 337.476C1064.04 337.457 1063.96 337.445 1063.87 337.441C1063.8 337.433 1063.71 337.429 1063.61 337.429C1063.36 337.429 1063.13 337.468 1062.94 337.547C1062.75 337.625 1062.59 337.734 1062.46 337.875C1062.32 338.015 1062.22 338.183 1062.14 338.379C1062.07 338.57 1062.02 338.781 1061.99 339.011L1061.69 339.187C1061.69 338.804 1061.73 338.445 1061.8 338.109C1061.88 337.773 1062 337.476 1062.16 337.218C1062.32 336.957 1062.52 336.754 1062.77 336.609C1063.02 336.461 1063.31 336.386 1063.66 336.386C1063.74 336.386 1063.83 336.396 1063.93 336.416C1064.03 336.431 1064.1 336.449 1064.14 336.468Z" fill="#333333"/>
<path d="M1086.51 343.125H1084.73L1084.74 342.205H1086.51C1087.12 342.205 1087.63 342.078 1088.04 341.824C1088.44 341.566 1088.75 341.207 1088.95 340.746C1089.16 340.281 1089.26 339.738 1089.26 339.117V338.595C1089.26 338.107 1089.2 337.674 1089.08 337.295C1088.97 336.912 1088.79 336.59 1088.57 336.328C1088.34 336.062 1088.06 335.861 1087.74 335.724C1087.41 335.588 1087.04 335.519 1086.62 335.519H1084.7V334.594H1086.62C1087.18 334.594 1087.69 334.687 1088.15 334.875C1088.61 335.058 1089 335.326 1089.34 335.678C1089.67 336.025 1089.93 336.447 1090.11 336.943C1090.29 337.435 1090.38 337.99 1090.38 338.607V339.117C1090.38 339.734 1090.29 340.291 1090.11 340.787C1089.93 341.279 1089.67 341.699 1089.33 342.047C1088.99 342.394 1088.59 342.662 1088.11 342.849C1087.64 343.033 1087.11 343.125 1086.51 343.125ZM1085.33 334.594V343.125H1084.2V334.594H1085.33ZM1094.54 343.242C1094.1 343.242 1093.7 343.168 1093.34 343.019C1092.99 342.867 1092.68 342.654 1092.42 342.381C1092.17 342.107 1091.97 341.783 1091.84 341.408C1091.7 341.033 1091.63 340.623 1091.63 340.178V339.931C1091.63 339.416 1091.71 338.957 1091.86 338.554C1092.01 338.148 1092.22 337.804 1092.48 337.523C1092.74 337.242 1093.04 337.029 1093.37 336.885C1093.71 336.74 1094.05 336.668 1094.4 336.668C1094.86 336.668 1095.25 336.746 1095.58 336.902C1095.91 337.058 1096.18 337.277 1096.39 337.558C1096.6 337.836 1096.76 338.164 1096.86 338.543C1096.96 338.918 1097.01 339.328 1097.01 339.773V340.26H1092.28V339.375H1095.93V339.293C1095.91 339.011 1095.85 338.738 1095.75 338.472C1095.65 338.207 1095.5 337.988 1095.28 337.816C1095.07 337.644 1094.78 337.558 1094.4 337.558C1094.16 337.558 1093.93 337.611 1093.72 337.717C1093.52 337.818 1093.34 337.97 1093.19 338.174C1093.04 338.377 1092.93 338.625 1092.85 338.918C1092.76 339.211 1092.72 339.549 1092.72 339.931V340.178C1092.72 340.478 1092.76 340.761 1092.85 341.027C1092.93 341.289 1093.05 341.519 1093.21 341.719C1093.38 341.918 1093.58 342.074 1093.81 342.187C1094.04 342.301 1094.31 342.357 1094.6 342.357C1094.99 342.357 1095.31 342.279 1095.58 342.123C1095.84 341.967 1096.07 341.758 1096.27 341.496L1096.93 342.017C1096.79 342.224 1096.62 342.422 1096.41 342.609C1096.2 342.797 1095.94 342.949 1095.63 343.066C1095.32 343.183 1094.96 343.242 1094.54 343.242ZM1100.81 342.351C1101.07 342.351 1101.31 342.299 1101.53 342.193C1101.75 342.088 1101.93 341.943 1102.07 341.76C1102.21 341.572 1102.29 341.359 1102.31 341.121H1103.34C1103.32 341.496 1103.19 341.845 1102.96 342.17C1102.73 342.49 1102.43 342.75 1102.05 342.949C1101.68 343.144 1101.26 343.242 1100.81 343.242C1100.34 343.242 1099.92 343.158 1099.57 342.99C1099.21 342.822 1098.92 342.592 1098.69 342.299C1098.46 342.006 1098.28 341.67 1098.17 341.291C1098.05 340.908 1098 340.504 1098 340.078V339.832C1098 339.406 1098.05 339.004 1098.17 338.625C1098.28 338.242 1098.46 337.904 1098.69 337.611C1098.92 337.318 1099.21 337.088 1099.57 336.92C1099.92 336.752 1100.34 336.668 1100.81 336.668C1101.31 336.668 1101.74 336.769 1102.12 336.972C1102.49 337.172 1102.78 337.445 1102.99 337.793C1103.2 338.136 1103.32 338.527 1103.34 338.965H1102.31C1102.29 338.703 1102.21 338.467 1102.09 338.256C1101.96 338.045 1101.79 337.877 1101.57 337.752C1101.36 337.623 1101.1 337.558 1100.81 337.558C1100.48 337.558 1100.2 337.625 1099.98 337.758C1099.75 337.886 1099.58 338.062 1099.44 338.285C1099.31 338.504 1099.22 338.748 1099.16 339.017C1099.11 339.283 1099.08 339.554 1099.08 339.832V340.078C1099.08 340.355 1099.11 340.629 1099.16 340.898C1099.22 341.168 1099.31 341.412 1099.44 341.631C1099.57 341.849 1099.75 342.025 1099.97 342.158C1100.2 342.287 1100.48 342.351 1100.81 342.351ZM1107.19 343.242C1106.75 343.242 1106.35 343.168 1105.99 343.019C1105.63 342.867 1105.33 342.654 1105.07 342.381C1104.81 342.107 1104.62 341.783 1104.48 341.408C1104.35 341.033 1104.28 340.623 1104.28 340.178V339.931C1104.28 339.416 1104.35 338.957 1104.51 338.554C1104.66 338.148 1104.87 337.804 1105.13 337.523C1105.39 337.242 1105.69 337.029 1106.02 336.885C1106.35 336.74 1106.69 336.668 1107.05 336.668C1107.5 336.668 1107.89 336.746 1108.22 336.902C1108.55 337.058 1108.82 337.277 1109.04 337.558C1109.25 337.836 1109.4 338.164 1109.5 338.543C1109.61 338.918 1109.66 339.328 1109.66 339.773V340.26H1104.92V339.375H1108.57V339.293C1108.56 339.011 1108.5 338.738 1108.4 338.472C1108.3 338.207 1108.14 337.988 1107.93 337.816C1107.71 337.644 1107.42 337.558 1107.05 337.558C1106.8 337.558 1106.58 337.611 1106.37 337.717C1106.16 337.818 1105.98 337.97 1105.84 338.174C1105.69 338.377 1105.57 338.625 1105.49 338.918C1105.41 339.211 1105.37 339.549 1105.37 339.931V340.178C1105.37 340.478 1105.41 340.761 1105.49 341.027C1105.58 341.289 1105.7 341.519 1105.86 341.719C1106.02 341.918 1106.22 342.074 1106.45 342.187C1106.69 342.301 1106.95 342.357 1107.25 342.357C1107.63 342.357 1107.96 342.279 1108.22 342.123C1108.49 341.967 1108.72 341.758 1108.92 341.496L1109.57 342.017C1109.44 342.224 1109.26 342.422 1109.05 342.609C1108.84 342.797 1108.58 342.949 1108.27 343.066C1107.97 343.183 1107.61 343.242 1107.19 343.242ZM1112 338.045V343.125H1110.91V336.785H1111.94L1112 338.045ZM1111.78 339.715L1111.27 339.697C1111.28 339.263 1111.33 338.863 1111.44 338.496C1111.55 338.125 1111.71 337.803 1111.93 337.529C1112.14 337.256 1112.41 337.045 1112.73 336.896C1113.05 336.744 1113.42 336.668 1113.85 336.668C1114.14 336.668 1114.42 336.711 1114.67 336.797C1114.92 336.879 1115.13 337.01 1115.32 337.189C1115.5 337.369 1115.64 337.599 1115.74 337.881C1115.85 338.162 1115.9 338.502 1115.9 338.9V343.125H1114.81V338.953C1114.81 338.621 1114.76 338.355 1114.64 338.156C1114.53 337.957 1114.38 337.812 1114.17 337.722C1113.97 337.629 1113.73 337.582 1113.46 337.582C1113.14 337.582 1112.87 337.638 1112.66 337.752C1112.44 337.865 1112.27 338.021 1112.14 338.22C1112.01 338.42 1111.92 338.648 1111.86 338.906C1111.8 339.16 1111.78 339.429 1111.78 339.715ZM1115.88 339.117L1115.16 339.34C1115.16 338.992 1115.22 338.658 1115.33 338.338C1115.44 338.017 1115.6 337.732 1115.81 337.482C1116.03 337.232 1116.29 337.035 1116.61 336.89C1116.92 336.742 1117.28 336.668 1117.68 336.668C1118.02 336.668 1118.32 336.713 1118.58 336.803C1118.85 336.892 1119.07 337.031 1119.25 337.219C1119.43 337.402 1119.57 337.638 1119.66 337.928C1119.76 338.217 1119.8 338.56 1119.8 338.959V343.125H1118.71V338.947C1118.71 338.592 1118.66 338.316 1118.54 338.121C1118.44 337.922 1118.28 337.783 1118.08 337.705C1117.88 337.623 1117.64 337.582 1117.36 337.582C1117.12 337.582 1116.91 337.623 1116.73 337.705C1116.54 337.787 1116.39 337.9 1116.27 338.045C1116.14 338.185 1116.04 338.347 1115.98 338.531C1115.92 338.715 1115.88 338.91 1115.88 339.117ZM1121.44 334.125H1122.53V341.894L1122.44 343.125H1121.44V334.125ZM1126.81 339.902V340.025C1126.81 340.486 1126.76 340.914 1126.65 341.308C1126.54 341.699 1126.38 342.039 1126.17 342.328C1125.96 342.617 1125.7 342.842 1125.39 343.002C1125.09 343.162 1124.74 343.242 1124.35 343.242C1123.94 343.242 1123.59 343.174 1123.29 343.037C1122.98 342.896 1122.73 342.695 1122.52 342.433C1122.32 342.172 1122.15 341.855 1122.03 341.484C1121.9 341.113 1121.82 340.695 1121.77 340.23V339.691C1121.82 339.222 1121.9 338.803 1122.03 338.431C1122.15 338.06 1122.32 337.744 1122.52 337.482C1122.73 337.217 1122.98 337.015 1123.29 336.879C1123.59 336.738 1123.94 336.668 1124.33 336.668C1124.73 336.668 1125.09 336.746 1125.39 336.902C1125.7 337.054 1125.96 337.273 1126.17 337.558C1126.38 337.844 1126.54 338.185 1126.65 338.584C1126.76 338.978 1126.81 339.418 1126.81 339.902ZM1125.72 340.025V339.902C1125.72 339.586 1125.69 339.289 1125.63 339.011C1125.58 338.73 1125.48 338.484 1125.35 338.273C1125.22 338.058 1125.05 337.89 1124.84 337.769C1124.63 337.644 1124.37 337.582 1124.06 337.582C1123.79 337.582 1123.55 337.629 1123.35 337.722C1123.15 337.816 1122.98 337.943 1122.84 338.103C1122.7 338.26 1122.58 338.439 1122.49 338.642C1122.41 338.842 1122.34 339.049 1122.3 339.263V340.676C1122.36 340.949 1122.46 341.213 1122.61 341.467C1122.75 341.717 1122.94 341.922 1123.18 342.082C1123.42 342.242 1123.72 342.322 1124.08 342.322C1124.37 342.322 1124.62 342.263 1124.83 342.146C1125.04 342.025 1125.21 341.859 1125.34 341.648C1125.47 341.437 1125.57 341.193 1125.63 340.916C1125.69 340.638 1125.72 340.342 1125.72 340.025ZM1130.81 343.242C1130.37 343.242 1129.97 343.168 1129.61 343.019C1129.26 342.867 1128.95 342.654 1128.69 342.381C1128.44 342.107 1128.24 341.783 1128.11 341.408C1127.97 341.033 1127.9 340.623 1127.9 340.178V339.931C1127.9 339.416 1127.98 338.957 1128.13 338.554C1128.28 338.148 1128.49 337.804 1128.75 337.523C1129.01 337.242 1129.31 337.029 1129.64 336.885C1129.97 336.74 1130.32 336.668 1130.67 336.668C1131.13 336.668 1131.52 336.746 1131.85 336.902C1132.18 337.058 1132.45 337.277 1132.66 337.558C1132.87 337.836 1133.03 338.164 1133.13 338.543C1133.23 338.918 1133.28 339.328 1133.28 339.773V340.26H1128.55V339.375H1132.2V339.293C1132.18 339.011 1132.12 338.738 1132.02 338.472C1131.92 338.207 1131.77 337.988 1131.55 337.816C1131.34 337.644 1131.04 337.558 1130.67 337.558C1130.43 337.558 1130.2 337.611 1129.99 337.717C1129.79 337.818 1129.61 337.97 1129.46 338.174C1129.31 338.377 1129.2 338.625 1129.12 338.918C1129.03 339.211 1128.99 339.549 1128.99 339.931V340.178C1128.99 340.478 1129.03 340.761 1129.12 341.027C1129.2 341.289 1129.32 341.519 1129.48 341.719C1129.65 341.918 1129.85 342.074 1130.08 342.187C1130.31 342.301 1130.58 342.357 1130.87 342.357C1131.26 342.357 1131.58 342.279 1131.85 342.123C1132.11 341.967 1132.34 341.758 1132.54 341.496L1133.2 342.017C1133.06 342.224 1132.89 342.422 1132.68 342.609C1132.47 342.797 1132.21 342.949 1131.9 343.066C1131.59 343.183 1131.23 343.242 1130.81 343.242ZM1135.63 337.781V343.125H1134.55V336.785H1135.6L1135.63 337.781ZM1137.61 336.75L1137.61 337.758C1137.52 337.738 1137.43 337.726 1137.35 337.722C1137.27 337.715 1137.18 337.711 1137.08 337.711C1136.83 337.711 1136.61 337.75 1136.42 337.828C1136.22 337.906 1136.06 338.015 1135.93 338.156C1135.8 338.297 1135.69 338.465 1135.61 338.66C1135.54 338.851 1135.49 339.062 1135.47 339.293L1135.16 339.469C1135.16 339.086 1135.2 338.726 1135.27 338.39C1135.35 338.054 1135.47 337.758 1135.63 337.5C1135.79 337.238 1135.99 337.035 1136.24 336.89C1136.49 336.742 1136.79 336.668 1137.13 336.668C1137.21 336.668 1137.3 336.678 1137.4 336.697C1137.5 336.713 1137.57 336.73 1137.61 336.75Z" fill="#333333"/>
<path opacity="0.2" fill-rule="evenodd" clip-rule="evenodd" d="M30.5154 171.098L131.189 234.952L231.863 203.025L332.538 171.098L433.212 276.457L533.886 104.052L634.56 33.8125L735.234 193.447L835.908 231.76L936.582 196.64L1037.26 231.76L1137.93 183.869V324.348H30.5154V171.098Z" fill="#0E9CFF"/>
<path d="M30.5154 171.098L131.189 234.952L231.863 203.025L332.537 171.098L433.212 276.457L533.886 104.052L634.56 33.8125L735.234 193.447L835.908 231.76L936.582 196.64L1037.26 231.76L1137.93 183.869" stroke="#0E9CFF" stroke-width="2" stroke-linejoin="round"/>
<path d="M30.5154 173.555C31.3426 173.555 32.1403 173.359 32.7648 172.989C33.3673 172.632 33.9763 171.997 33.9763 171.098C33.9763 170.2 33.3673 169.565 32.7648 169.208C32.1403 168.838 31.3426 168.642 30.5154 168.642C29.6881 168.642 28.8905 168.838 28.2659 169.208C27.6634 169.565 27.0544 170.2 27.0544 171.098C27.0544 171.997 27.6634 172.632 28.2659 172.989C28.8905 173.359 29.6881 173.555 30.5154 173.555Z" fill="white" stroke="#0E9CFF" stroke-width="2"/>
<path d="M131.189 237.409C132.017 237.409 132.814 237.213 133.439 236.843C134.041 236.486 134.65 235.851 134.65 234.952C134.65 234.054 134.041 233.419 133.439 233.062C132.814 232.692 132.017 232.496 131.189 232.496C130.362 232.496 129.565 232.692 128.94 233.062C128.337 233.419 127.729 234.054 127.729 234.952C127.729 235.851 128.337 236.486 128.94 236.843C129.565 237.213 130.362 237.409 131.189 237.409Z" fill="white" stroke="#0E9CFF" stroke-width="2"/>
<path d="M231.864 205.482C232.691 205.482 233.488 205.286 234.113 204.916C234.715 204.559 235.324 203.924 235.324 203.025C235.324 202.127 234.715 201.492 234.113 201.135C233.488 200.765 232.691 200.569 231.864 200.569C231.036 200.569 230.239 200.765 229.614 201.135C229.012 201.492 228.403 202.127 228.403 203.025C228.403 203.924 229.012 204.559 229.614 204.916C230.239 205.286 231.036 205.482 231.864 205.482Z" fill="white" stroke="#0E9CFF" stroke-width="2"/>
<path d="M332.538 173.555C333.365 173.555 334.163 173.359 334.787 172.989C335.39 172.632 335.999 171.997 335.999 171.098C335.999 170.2 335.39 169.565 334.787 169.208C334.163 168.838 333.365 168.642 332.538 168.642C331.71 168.642 330.913 168.838 330.288 169.208C329.686 169.565 329.077 170.2 329.077 171.098C329.077 171.997 329.686 172.632 330.288 172.989C330.913 173.359 331.71 173.555 332.538 173.555Z" fill="white" stroke="#0E9CFF" stroke-width="2"/>
<path d="M433.212 278.914C434.039 278.914 434.836 278.718 435.461 278.348C436.063 277.991 436.672 277.356 436.672 276.457C436.672 275.559 436.063 274.924 435.461 274.567C434.836 274.197 434.039 274.001 433.212 274.001C432.384 274.001 431.587 274.197 430.962 274.567C430.36 274.924 429.751 275.559 429.751 276.457C429.751 277.356 430.36 277.991 430.962 278.348C431.587 278.718 432.384 278.914 433.212 278.914Z" fill="white" stroke="#0E9CFF" stroke-width="2"/>
<path d="M533.886 106.508C534.713 106.508 535.511 106.312 536.135 105.942C536.738 105.586 537.347 104.95 537.347 104.052C537.347 103.154 536.738 102.518 536.135 102.161C535.511 101.792 534.713 101.595 533.886 101.595C533.058 101.595 532.261 101.792 531.636 102.161C531.034 102.518 530.425 103.154 530.425 104.052C530.425 104.95 531.034 105.586 531.636 105.942C532.261 106.312 533.058 106.508 533.886 106.508Z" fill="white" stroke="#0E9CFF" stroke-width="2"/>
<path d="M634.56 36.269C635.387 36.269 636.184 36.0727 636.809 35.703C637.412 35.3464 638.02 34.7108 638.02 33.8125C638.02 32.9143 637.412 32.2786 636.809 31.922C636.184 31.5524 635.387 31.356 634.56 31.356C633.732 31.356 632.935 31.5524 632.31 31.922C631.708 32.2786 631.099 32.9143 631.099 33.8125C631.099 34.7108 631.708 35.3464 632.31 35.703C632.935 36.0727 633.732 36.269 634.56 36.269Z" fill="white" stroke="#0E9CFF" stroke-width="2"/>
<path d="M735.234 195.904C736.061 195.904 736.859 195.707 737.483 195.338C738.086 194.981 738.695 194.346 738.695 193.447C738.695 192.549 738.086 191.913 737.483 191.557C736.859 191.187 736.061 190.991 735.234 190.991C734.407 190.991 733.609 191.187 732.984 191.557C732.382 191.913 731.773 192.549 731.773 193.447C731.773 194.346 732.382 194.981 732.984 195.338C733.609 195.707 734.407 195.904 735.234 195.904Z" fill="white" stroke="#0E9CFF" stroke-width="2"/>
<path d="M835.908 234.216C836.735 234.216 837.532 234.02 838.157 233.65C838.76 233.294 839.368 232.658 839.368 231.76C839.368 230.861 838.76 230.226 838.157 229.869C837.532 229.499 836.735 229.303 835.908 229.303C835.08 229.303 834.283 229.499 833.658 229.869C833.056 230.226 832.447 230.861 832.447 231.76C832.447 232.658 833.056 233.294 833.658 233.65C834.283 234.02 835.08 234.216 835.908 234.216Z" fill="white" stroke="#0E9CFF" stroke-width="2"/>
<path d="M936.582 199.097C937.409 199.097 938.207 198.9 938.831 198.531C939.434 198.174 940.043 197.538 940.043 196.64C940.043 195.742 939.434 195.106 938.831 194.75C938.207 194.38 937.409 194.184 936.582 194.184C935.755 194.184 934.957 194.38 934.332 194.75C933.73 195.106 933.121 195.742 933.121 196.64C933.121 197.538 933.73 198.174 934.332 198.531C934.957 198.9 935.755 199.097 936.582 199.097Z" fill="white" stroke="#0E9CFF" stroke-width="2"/>
<path d="M1037.26 234.216C1038.08 234.216 1038.88 234.02 1039.51 233.65C1040.11 233.294 1040.72 232.658 1040.72 231.76C1040.72 230.861 1040.11 230.226 1039.51 229.869C1038.88 229.499 1038.08 229.303 1037.26 229.303C1036.43 229.303 1035.63 229.499 1035.01 229.869C1034.4 230.226 1033.79 230.861 1033.79 231.76C1033.79 232.658 1034.4 233.294 1035.01 233.65C1035.63 234.02 1036.43 234.216 1037.26 234.216Z" fill="white" stroke="#0E9CFF" stroke-width="2"/>
<path d="M1137.93 186.326C1138.76 186.326 1139.55 186.129 1140.18 185.76C1140.78 185.403 1141.39 184.768 1141.39 183.869C1141.39 182.971 1140.78 182.335 1140.18 181.979C1139.55 181.609 1138.76 181.413 1137.93 181.413C1137.1 181.413 1136.31 181.609 1135.68 181.979C1135.08 182.335 1134.47 182.971 1134.47 183.869C1134.47 184.768 1135.08 185.403 1135.68 185.76C1136.31 186.129 1137.1 186.326 1137.93 186.326Z" fill="white" stroke="#0E9CFF" stroke-width="2"/>
</svg>
