<svg width="562" height="370" viewBox="0 0 562 370" fill="none" xmlns="http://www.w3.org/2000/svg">
<path d="M31 356.518H562" stroke="#CCCCCC" stroke-dasharray="4 2"/>
<path d="M31 268.594H562" stroke="#CCCCCC" stroke-dasharray="4 2"/>
<path d="M31 180.67H562" stroke="#CCCCCC" stroke-dasharray="4 2"/>
<path d="M31 92.7462H562" stroke="#CCCCCC" stroke-dasharray="4 2"/>
<path d="M31 4.82214H562" stroke="#CCCCCC" stroke-dasharray="4 2"/>
<path d="M31.5 4.50067V356.84" stroke="#CCCCCC" stroke-dasharray="4 2"/>
<path d="M75.6667 4.50067V356.84" stroke="#CCCCCC" stroke-dasharray="4 2"/>
<path d="M119.833 4.50067V356.84" stroke="#CCCCCC" stroke-dasharray="4 2"/>
<path d="M164 4.50067V356.84" stroke="#CCCCCC" stroke-dasharray="4 2"/>
<path d="M208.167 4.50067V356.84" stroke="#CCCCCC" stroke-dasharray="4 2"/>
<path d="M252.333 4.50067V356.84" stroke="#CCCCCC" stroke-dasharray="4 2"/>
<path d="M296.5 4.50067V356.84" stroke="#CCCCCC" stroke-dasharray="4 2"/>
<path d="M340.667 4.50067V356.84" stroke="#CCCCCC" stroke-dasharray="4 2"/>
<path d="M384.833 4.50067V356.84" stroke="#CCCCCC" stroke-dasharray="4 2"/>
<path d="M429 4.50067V356.84" stroke="#CCCCCC" stroke-dasharray="4 2"/>
<path d="M473.167 4.50067V356.84" stroke="#CCCCCC" stroke-dasharray="4 2"/>
<path d="M517.333 4.50067V356.84" stroke="#CCCCCC" stroke-dasharray="4 2"/>
<path d="M561.5 4.50067V356.84" stroke="#CCCCCC" stroke-dasharray="4 2"/>
<path d="M20.3145 355.751V357.052C20.3145 357.751 20.252 358.341 20.127 358.821C20.002 359.302 19.8223 359.688 19.5879 359.981C19.3535 360.274 19.0703 360.487 18.7383 360.62C18.4102 360.749 18.0391 360.813 17.625 360.813C17.2969 360.813 16.9941 360.772 16.7168 360.69C16.4395 360.608 16.1895 360.477 15.9668 360.298C15.748 360.114 15.5605 359.876 15.4043 359.583C15.248 359.29 15.1289 358.934 15.0469 358.516C14.9648 358.098 14.9238 357.61 14.9238 357.052V355.751C14.9238 355.052 14.9863 354.466 15.1113 353.993C15.2402 353.52 15.4219 353.141 15.6562 352.856C15.8906 352.567 16.1719 352.36 16.5 352.235C16.832 352.11 17.2031 352.048 17.6133 352.048C17.9453 352.048 18.25 352.089 18.5273 352.171C18.8086 352.249 19.0586 352.376 19.2773 352.552C19.4961 352.723 19.6816 352.954 19.834 353.243C19.9902 353.528 20.1094 353.878 20.1914 354.292C20.2734 354.706 20.3145 355.192 20.3145 355.751ZM19.2246 357.227V355.569C19.2246 355.186 19.2012 354.85 19.1543 354.561C19.1113 354.268 19.0469 354.018 18.9609 353.811C18.875 353.604 18.7656 353.436 18.6328 353.307C18.5039 353.178 18.3535 353.085 18.1816 353.026C18.0137 352.964 17.8242 352.932 17.6133 352.932C17.3555 352.932 17.127 352.981 16.9277 353.079C16.7285 353.173 16.5605 353.323 16.4238 353.53C16.291 353.737 16.1895 354.009 16.1191 354.344C16.0488 354.68 16.0137 355.089 16.0137 355.569V357.227C16.0137 357.61 16.0352 357.948 16.0781 358.241C16.125 358.534 16.1934 358.788 16.2832 359.003C16.373 359.214 16.4824 359.387 16.6113 359.524C16.7402 359.661 16.8887 359.762 17.0566 359.829C17.2285 359.891 17.418 359.923 17.625 359.923C17.8906 359.923 18.123 359.872 18.3223 359.77C18.5215 359.669 18.6875 359.51 18.8203 359.296C18.957 359.077 19.0586 358.798 19.125 358.458C19.1914 358.114 19.2246 357.704 19.2246 357.227Z" fill="#333333"/>
<path d="M13.7988 271.881V272.772H8.21484V271.993L11.0098 268.881C11.3535 268.499 11.6191 268.174 11.8066 267.909C11.998 267.639 12.1309 267.399 12.2051 267.188C12.2832 266.973 12.3223 266.754 12.3223 266.532C12.3223 266.25 12.2637 265.997 12.1465 265.77C12.0332 265.54 11.8652 265.356 11.6426 265.219C11.4199 265.083 11.1504 265.014 10.834 265.014C10.4551 265.014 10.1387 265.088 9.88477 265.237C9.63477 265.381 9.44727 265.584 9.32227 265.846C9.19727 266.108 9.13477 266.409 9.13477 266.749H8.05078C8.05078 266.268 8.15625 265.829 8.36719 265.43C8.57812 265.032 8.89062 264.715 9.30469 264.481C9.71875 264.243 10.2285 264.124 10.834 264.124C11.373 264.124 11.834 264.219 12.2168 264.411C12.5996 264.598 12.8926 264.864 13.0957 265.208C13.3027 265.547 13.4062 265.946 13.4062 266.403C13.4062 266.653 13.3633 266.907 13.2773 267.165C13.1953 267.418 13.0801 267.672 12.9316 267.926C12.7871 268.18 12.6172 268.43 12.4219 268.676C12.2305 268.922 12.0254 269.165 11.8066 269.403L9.52148 271.881H13.7988ZM16.3301 268.711L15.4629 268.489L15.8906 264.241H20.2676V265.243H16.8105L16.5527 267.563C16.709 267.473 16.9062 267.389 17.1445 267.311C17.3867 267.233 17.6641 267.194 17.9766 267.194C18.3711 267.194 18.7246 267.262 19.0371 267.399C19.3496 267.532 19.6152 267.723 19.834 267.973C20.0566 268.223 20.2266 268.524 20.3438 268.875C20.4609 269.227 20.5195 269.62 20.5195 270.053C20.5195 270.463 20.4629 270.84 20.3496 271.184C20.2402 271.528 20.0742 271.829 19.8516 272.086C19.6289 272.34 19.3477 272.538 19.0078 272.678C18.6719 272.819 18.2754 272.889 17.8184 272.889C17.4746 272.889 17.1484 272.842 16.8398 272.749C16.5352 272.651 16.2617 272.504 16.0195 272.309C15.7812 272.11 15.5859 271.864 15.4336 271.571C15.2852 271.274 15.1914 270.926 15.1523 270.528H16.1836C16.2305 270.848 16.3242 271.118 16.4648 271.336C16.6055 271.555 16.7891 271.721 17.0156 271.834C17.2461 271.944 17.5137 271.999 17.8184 271.999C18.0762 271.999 18.3047 271.954 18.5039 271.864C18.7031 271.774 18.8711 271.645 19.0078 271.477C19.1445 271.309 19.248 271.106 19.3184 270.868C19.3926 270.629 19.4297 270.362 19.4297 270.065C19.4297 269.795 19.3926 269.545 19.3184 269.315C19.2441 269.084 19.1328 268.883 18.9844 268.711C18.8398 268.54 18.6621 268.407 18.4512 268.313C18.2402 268.215 17.998 268.167 17.7246 268.167C17.3613 268.167 17.0859 268.215 16.8984 268.313C16.7148 268.411 16.5254 268.543 16.3301 268.711Z" fill="#333333"/>
<path d="M9.58008 180.787L8.71289 180.565L9.14062 176.317H13.5176V177.319H10.0605L9.80273 179.639C9.95898 179.549 10.1562 179.465 10.3945 179.387C10.6367 179.309 10.9141 179.27 11.2266 179.27C11.6211 179.27 11.9746 179.338 12.2871 179.475C12.5996 179.608 12.8652 179.799 13.084 180.049C13.3066 180.299 13.4766 180.6 13.5938 180.952C13.7109 181.303 13.7695 181.696 13.7695 182.129C13.7695 182.539 13.7129 182.916 13.5996 183.26C13.4902 183.604 13.3242 183.905 13.1016 184.162C12.8789 184.416 12.5977 184.614 12.2578 184.754C11.9219 184.895 11.5254 184.965 11.0684 184.965C10.7246 184.965 10.3984 184.918 10.0898 184.825C9.78516 184.727 9.51172 184.58 9.26953 184.385C9.03125 184.186 8.83594 183.94 8.68359 183.647C8.53516 183.35 8.44141 183.002 8.40234 182.604H9.43359C9.48047 182.924 9.57422 183.194 9.71484 183.412C9.85547 183.631 10.0391 183.797 10.2656 183.911C10.4961 184.02 10.7637 184.075 11.0684 184.075C11.3262 184.075 11.5547 184.03 11.7539 183.94C11.9531 183.85 12.1211 183.721 12.2578 183.553C12.3945 183.385 12.498 183.182 12.5684 182.944C12.6426 182.705 12.6797 182.438 12.6797 182.141C12.6797 181.871 12.6426 181.621 12.5684 181.391C12.4941 181.161 12.3828 180.959 12.2344 180.787C12.0898 180.616 11.9121 180.483 11.7012 180.389C11.4902 180.291 11.248 180.243 10.9746 180.243C10.6113 180.243 10.3359 180.291 10.1484 180.389C9.96484 180.487 9.77539 180.62 9.58008 180.787ZM20.3145 179.903V181.203C20.3145 181.903 20.252 182.493 20.127 182.973C20.002 183.453 19.8223 183.84 19.5879 184.133C19.3535 184.426 19.0703 184.639 18.7383 184.772C18.4102 184.901 18.0391 184.965 17.625 184.965C17.2969 184.965 16.9941 184.924 16.7168 184.842C16.4395 184.76 16.1895 184.629 15.9668 184.45C15.748 184.266 15.5605 184.028 15.4043 183.735C15.248 183.442 15.1289 183.086 15.0469 182.668C14.9648 182.25 14.9238 181.762 14.9238 181.203V179.903C14.9238 179.203 14.9863 178.618 15.1113 178.145C15.2402 177.672 15.4219 177.293 15.6562 177.008C15.8906 176.719 16.1719 176.512 16.5 176.387C16.832 176.262 17.2031 176.2 17.6133 176.2C17.9453 176.2 18.25 176.241 18.5273 176.323C18.8086 176.401 19.0586 176.528 19.2773 176.703C19.4961 176.875 19.6816 177.106 19.834 177.395C19.9902 177.68 20.1094 178.03 20.1914 178.444C20.2734 178.858 20.3145 179.344 20.3145 179.903ZM19.2246 181.379V179.721C19.2246 179.338 19.2012 179.002 19.1543 178.713C19.1113 178.42 19.0469 178.17 18.9609 177.963C18.875 177.756 18.7656 177.588 18.6328 177.459C18.5039 177.33 18.3535 177.237 18.1816 177.178C18.0137 177.116 17.8242 177.084 17.6133 177.084C17.3555 177.084 17.127 177.133 16.9277 177.231C16.7285 177.325 16.5605 177.475 16.4238 177.682C16.291 177.889 16.1895 178.161 16.1191 178.496C16.0488 178.832 16.0137 179.241 16.0137 179.721V181.379C16.0137 181.762 16.0352 182.1 16.0781 182.393C16.125 182.686 16.1934 182.94 16.2832 183.155C16.373 183.366 16.4824 183.539 16.6113 183.676C16.7402 183.813 16.8887 183.914 17.0566 183.981C17.2285 184.043 17.418 184.075 17.625 184.075C17.8906 184.075 18.123 184.024 18.3223 183.922C18.5215 183.821 18.6875 183.662 18.8203 183.448C18.957 183.229 19.0586 182.95 19.125 182.61C19.1914 182.266 19.2246 181.856 19.2246 181.379Z" fill="#333333"/>
<path d="M13.7227 88.3928V89.0021L10.1895 96.924H9.04688L12.5742 89.2834H7.95703V88.3928H13.7227ZM16.3301 92.8635L15.4629 92.6408L15.8906 88.3928H20.2676V89.3947H16.8105L16.5527 91.715C16.709 91.6252 16.9062 91.5412 17.1445 91.4631C17.3867 91.3849 17.6641 91.3459 17.9766 91.3459C18.3711 91.3459 18.7246 91.4142 19.0371 91.551C19.3496 91.6838 19.6152 91.8752 19.834 92.1252C20.0566 92.3752 20.2266 92.676 20.3438 93.0275C20.4609 93.3791 20.5195 93.7717 20.5195 94.2053C20.5195 94.6154 20.4629 94.9924 20.3496 95.3361C20.2402 95.6799 20.0742 95.9807 19.8516 96.2385C19.6289 96.4924 19.3477 96.6896 19.0078 96.8303C18.6719 96.9709 18.2754 97.0412 17.8184 97.0412C17.4746 97.0412 17.1484 96.9943 16.8398 96.9006C16.5352 96.8029 16.2617 96.6564 16.0195 96.4611C15.7812 96.2619 15.5859 96.0158 15.4336 95.7228C15.2852 95.426 15.1914 95.0783 15.1523 94.6799H16.1836C16.2305 95.0002 16.3242 95.2697 16.4648 95.4885C16.6055 95.7072 16.7891 95.8732 17.0156 95.9865C17.2461 96.0959 17.5137 96.1506 17.8184 96.1506C18.0762 96.1506 18.3047 96.1057 18.5039 96.0158C18.7031 95.926 18.8711 95.7971 19.0078 95.6291C19.1445 95.4611 19.248 95.258 19.3184 95.0197C19.3926 94.7814 19.4297 94.5139 19.4297 94.217C19.4297 93.9474 19.3926 93.6974 19.3184 93.467C19.2441 93.2365 19.1328 93.0353 18.9844 92.8635C18.8398 92.6916 18.6621 92.5588 18.4512 92.465C18.2402 92.3674 17.998 92.3185 17.7246 92.3185C17.3613 92.3185 17.0859 92.3674 16.8984 92.465C16.7148 92.5627 16.5254 92.6955 16.3301 92.8635Z" fill="#333333"/>
<path d="M5.02148 0.421875V9H3.9375V1.77539L1.75195 2.57227V1.59375L4.85156 0.421875H5.02148ZM13.5645 4.05469V5.35547C13.5645 6.05469 13.502 6.64453 13.377 7.125C13.252 7.60547 13.0723 7.99219 12.8379 8.28516C12.6035 8.57812 12.3203 8.79102 11.9883 8.92383C11.6602 9.05273 11.2891 9.11719 10.875 9.11719C10.5469 9.11719 10.2441 9.07617 9.9668 8.99414C9.68945 8.91211 9.43945 8.78125 9.2168 8.60156C8.99805 8.41797 8.81055 8.17969 8.6543 7.88672C8.49805 7.59375 8.37891 7.23828 8.29688 6.82031C8.21484 6.40234 8.17383 5.91406 8.17383 5.35547V4.05469C8.17383 3.35547 8.23633 2.76953 8.36133 2.29688C8.49023 1.82422 8.67188 1.44531 8.90625 1.16016C9.14062 0.871094 9.42188 0.664062 9.75 0.539062C10.082 0.414063 10.4531 0.351562 10.8633 0.351562C11.1953 0.351562 11.5 0.392578 11.7773 0.474609C12.0586 0.552734 12.3086 0.679688 12.5273 0.855469C12.7461 1.02734 12.9316 1.25781 13.084 1.54688C13.2402 1.83203 13.3594 2.18164 13.4414 2.5957C13.5234 3.00977 13.5645 3.49609 13.5645 4.05469ZM12.4746 5.53125V3.87305C12.4746 3.49023 12.4512 3.1543 12.4043 2.86523C12.3613 2.57227 12.2969 2.32227 12.2109 2.11523C12.125 1.9082 12.0156 1.74023 11.8828 1.61133C11.7539 1.48242 11.6035 1.38867 11.4316 1.33008C11.2637 1.26758 11.0742 1.23633 10.8633 1.23633C10.6055 1.23633 10.377 1.28516 10.1777 1.38281C9.97852 1.47656 9.81055 1.62695 9.67383 1.83398C9.54102 2.04102 9.43945 2.3125 9.36914 2.64844C9.29883 2.98437 9.26367 3.39258 9.26367 3.87305V5.53125C9.26367 5.91406 9.28516 6.25195 9.32812 6.54492C9.375 6.83789 9.44336 7.0918 9.5332 7.30664C9.62305 7.51758 9.73242 7.69141 9.86133 7.82812C9.99023 7.96484 10.1387 8.06641 10.3066 8.13281C10.4785 8.19531 10.668 8.22656 10.875 8.22656C11.1406 8.22656 11.373 8.17578 11.5723 8.07422C11.7715 7.97266 11.9375 7.81445 12.0703 7.59961C12.207 7.38086 12.3086 7.10156 12.375 6.76172C12.4414 6.41797 12.4746 6.00781 12.4746 5.53125ZM20.3145 4.05469V5.35547C20.3145 6.05469 20.252 6.64453 20.127 7.125C20.002 7.60547 19.8223 7.99219 19.5879 8.28516C19.3535 8.57812 19.0703 8.79102 18.7383 8.92383C18.4102 9.05273 18.0391 9.11719 17.625 9.11719C17.2969 9.11719 16.9941 9.07617 16.7168 8.99414C16.4395 8.91211 16.1895 8.78125 15.9668 8.60156C15.748 8.41797 15.5605 8.17969 15.4043 7.88672C15.248 7.59375 15.1289 7.23828 15.0469 6.82031C14.9648 6.40234 14.9238 5.91406 14.9238 5.35547V4.05469C14.9238 3.35547 14.9863 2.76953 15.1113 2.29688C15.2402 1.82422 15.4219 1.44531 15.6562 1.16016C15.8906 0.871094 16.1719 0.664062 16.5 0.539062C16.832 0.414063 17.2031 0.351562 17.6133 0.351562C17.9453 0.351562 18.25 0.392578 18.5273 0.474609C18.8086 0.552734 19.0586 0.679688 19.2773 0.855469C19.4961 1.02734 19.6816 1.25781 19.834 1.54688C19.9902 1.83203 20.1094 2.18164 20.1914 2.5957C20.2734 3.00977 20.3145 3.49609 20.3145 4.05469ZM19.2246 5.53125V3.87305C19.2246 3.49023 19.2012 3.1543 19.1543 2.86523C19.1113 2.57227 19.0469 2.32227 18.9609 2.11523C18.875 1.9082 18.7656 1.74023 18.6328 1.61133C18.5039 1.48242 18.3535 1.38867 18.1816 1.33008C18.0137 1.26758 17.8242 1.23633 17.6133 1.23633C17.3555 1.23633 17.127 1.28516 16.9277 1.38281C16.7285 1.47656 16.5605 1.62695 16.4238 1.83398C16.291 2.04102 16.1895 2.3125 16.1191 2.64844C16.0488 2.98437 16.0137 3.39258 16.0137 3.87305V5.53125C16.0137 5.91406 16.0352 6.25195 16.0781 6.54492C16.125 6.83789 16.1934 7.0918 16.2832 7.30664C16.373 7.51758 16.4824 7.69141 16.6113 7.82812C16.7402 7.96484 16.8887 8.06641 17.0566 8.13281C17.2285 8.19531 17.418 8.22656 17.625 8.22656C17.8906 8.22656 18.123 8.17578 18.3223 8.07422C18.5215 7.97266 18.6875 7.81445 18.8203 7.59961C18.957 7.38086 19.0586 7.10156 19.125 6.76172C19.1914 6.41797 19.2246 6.00781 19.2246 5.53125Z" fill="#333333"/>
<path d="M47.3047 364.207V358.166H48.4297V364.207C48.4297 364.77 48.3145 365.244 48.084 365.631C47.8535 366.018 47.5352 366.313 47.1289 366.516C46.7266 366.715 46.2637 366.815 45.7402 366.815C45.2168 366.815 44.752 366.725 44.3457 366.545C43.9395 366.365 43.6211 366.092 43.3906 365.725C43.1602 365.357 43.0449 364.895 43.0449 364.336H44.1758C44.1758 364.695 44.2422 364.99 44.375 365.221C44.5078 365.451 44.6914 365.621 44.9258 365.731C45.1641 365.84 45.4355 365.895 45.7402 365.895C46.0371 365.895 46.3027 365.832 46.5371 365.707C46.7754 365.578 46.9629 365.389 47.0996 365.139C47.2363 364.885 47.3047 364.574 47.3047 364.207ZM53.9199 365.613V362.35C53.9199 362.1 53.8691 361.883 53.7676 361.699C53.6699 361.512 53.5215 361.367 53.3223 361.266C53.123 361.164 52.877 361.113 52.584 361.113C52.3105 361.113 52.0703 361.16 51.8633 361.254C51.6602 361.348 51.5 361.471 51.3828 361.623C51.2695 361.775 51.2129 361.94 51.2129 362.115H50.1289C50.1289 361.889 50.1875 361.664 50.3047 361.441C50.4219 361.219 50.5898 361.018 50.8086 360.838C51.0312 360.654 51.2969 360.51 51.6055 360.404C51.918 360.295 52.2656 360.24 52.6484 360.24C53.1094 360.24 53.5156 360.318 53.8672 360.475C54.2227 360.631 54.5 360.867 54.6992 361.184C54.9023 361.496 55.0039 361.889 55.0039 362.361V365.315C55.0039 365.525 55.0215 365.75 55.0566 365.988C55.0957 366.227 55.1523 366.432 55.2266 366.604V366.697H54.0957C54.041 366.572 53.998 366.406 53.9668 366.199C53.9355 365.988 53.9199 365.793 53.9199 365.613ZM54.1074 362.854L54.1191 363.615H53.0234C52.7148 363.615 52.4395 363.641 52.1973 363.691C51.9551 363.738 51.752 363.811 51.5879 363.908C51.4238 364.006 51.2988 364.129 51.2129 364.277C51.127 364.422 51.084 364.592 51.084 364.787C51.084 364.986 51.1289 365.168 51.2188 365.332C51.3086 365.496 51.4434 365.627 51.623 365.725C51.8066 365.818 52.0312 365.865 52.2969 365.865C52.6289 365.865 52.9219 365.795 53.1758 365.654C53.4297 365.514 53.6309 365.342 53.7793 365.139C53.9316 364.936 54.0137 364.738 54.0254 364.547L54.4883 365.068C54.4609 365.232 54.3867 365.414 54.2656 365.613C54.1445 365.813 53.9824 366.004 53.7793 366.188C53.5801 366.367 53.3418 366.518 53.0645 366.639C52.791 366.756 52.4824 366.815 52.1387 366.815C51.709 366.815 51.332 366.731 51.0078 366.563C50.6875 366.395 50.4375 366.17 50.2578 365.889C50.082 365.604 49.9941 365.285 49.9941 364.934C49.9941 364.594 50.0605 364.295 50.1934 364.037C50.3262 363.775 50.5176 363.559 50.7676 363.387C51.0176 363.211 51.3184 363.078 51.6699 362.988C52.0215 362.898 52.4141 362.854 52.8477 362.854H54.1074ZM57.793 361.711V366.697H56.709V360.357H57.7344L57.793 361.711ZM57.5352 363.287L57.084 363.27C57.0879 362.836 57.1523 362.436 57.2773 362.068C57.4023 361.697 57.5781 361.375 57.8047 361.102C58.0312 360.828 58.3008 360.617 58.6133 360.469C58.9297 360.316 59.2793 360.24 59.6621 360.24C59.9746 360.24 60.2559 360.283 60.5059 360.369C60.7559 360.451 60.9688 360.584 61.1445 360.768C61.3242 360.951 61.4609 361.19 61.5547 361.482C61.6484 361.772 61.6953 362.125 61.6953 362.543V366.697H60.6055V362.531C60.6055 362.199 60.5566 361.934 60.459 361.734C60.3613 361.531 60.2188 361.385 60.0312 361.295C59.8438 361.201 59.6133 361.154 59.3398 361.154C59.0703 361.154 58.8242 361.211 58.6016 361.324C58.3828 361.438 58.1934 361.594 58.0332 361.793C57.877 361.992 57.7539 362.221 57.6641 362.479C57.5781 362.732 57.5352 363.002 57.5352 363.287Z" fill="#333333"/>
<path d="M89.1934 358.166V366.697H88.0625V358.166H89.1934ZM92.7676 362.004V362.93H88.9473V362.004H92.7676ZM93.3477 358.166V359.092H88.9473V358.166H93.3477ZM97.0332 366.815C96.5918 366.815 96.1914 366.74 95.832 366.592C95.4766 366.44 95.1699 366.227 94.9121 365.953C94.6582 365.68 94.4629 365.356 94.3262 364.981C94.1895 364.606 94.1211 364.195 94.1211 363.75V363.504C94.1211 362.988 94.1973 362.529 94.3496 362.127C94.502 361.721 94.709 361.377 94.9707 361.096C95.2324 360.815 95.5293 360.602 95.8613 360.457C96.1934 360.313 96.5371 360.24 96.8926 360.24C97.3457 360.24 97.7363 360.318 98.0645 360.475C98.3965 360.631 98.668 360.85 98.8789 361.131C99.0898 361.408 99.2461 361.736 99.3477 362.115C99.4492 362.49 99.5 362.9 99.5 363.346V363.832H94.7656V362.947H98.416V362.865C98.4004 362.584 98.3418 362.311 98.2402 362.045C98.1426 361.779 97.9863 361.561 97.7715 361.389C97.5566 361.217 97.2637 361.131 96.8926 361.131C96.6465 361.131 96.4199 361.184 96.2129 361.289C96.0059 361.391 95.8281 361.543 95.6797 361.746C95.5312 361.949 95.416 362.197 95.334 362.49C95.252 362.783 95.2109 363.121 95.2109 363.504V363.75C95.2109 364.051 95.252 364.334 95.334 364.6C95.4199 364.861 95.543 365.092 95.7031 365.291C95.8672 365.49 96.0645 365.647 96.2949 365.76C96.5293 365.873 96.7949 365.93 97.0918 365.93C97.4746 365.93 97.7988 365.852 98.0645 365.695C98.3301 365.539 98.5625 365.33 98.7617 365.068L99.418 365.59C99.2812 365.797 99.1074 365.994 98.8965 366.182C98.6855 366.369 98.4258 366.522 98.1172 366.639C97.8125 366.756 97.4512 366.815 97.0332 366.815ZM100.76 357.697H101.85V365.467L101.756 366.697H100.76V357.697ZM106.133 363.475V363.598C106.133 364.059 106.078 364.486 105.969 364.881C105.859 365.272 105.699 365.611 105.488 365.9C105.277 366.19 105.02 366.414 104.715 366.574C104.41 366.734 104.061 366.815 103.666 366.815C103.264 366.815 102.91 366.746 102.605 366.609C102.305 366.469 102.051 366.268 101.844 366.006C101.637 365.744 101.471 365.428 101.346 365.057C101.225 364.686 101.141 364.268 101.094 363.803V363.264C101.141 362.795 101.225 362.375 101.346 362.004C101.471 361.633 101.637 361.316 101.844 361.055C102.051 360.789 102.305 360.588 102.605 360.451C102.906 360.311 103.256 360.24 103.654 360.24C104.053 360.24 104.406 360.318 104.715 360.475C105.023 360.627 105.281 360.846 105.488 361.131C105.699 361.416 105.859 361.758 105.969 362.156C106.078 362.551 106.133 362.99 106.133 363.475ZM105.043 363.598V363.475C105.043 363.158 105.014 362.861 104.955 362.584C104.896 362.303 104.803 362.057 104.674 361.846C104.545 361.631 104.375 361.463 104.164 361.342C103.953 361.217 103.693 361.154 103.385 361.154C103.111 361.154 102.873 361.201 102.67 361.295C102.471 361.389 102.301 361.516 102.16 361.676C102.02 361.832 101.904 362.012 101.814 362.215C101.729 362.414 101.664 362.621 101.621 362.836V364.248C101.684 364.522 101.785 364.785 101.926 365.039C102.07 365.289 102.262 365.494 102.5 365.654C102.742 365.815 103.041 365.895 103.396 365.895C103.689 365.895 103.939 365.836 104.146 365.719C104.357 365.598 104.527 365.432 104.656 365.221C104.789 365.01 104.887 364.766 104.949 364.488C105.012 364.211 105.043 363.914 105.043 363.598Z" fill="#333333"/>
<path d="M132.438 358.166H133.533L136.328 365.121L139.117 358.166H140.219L136.75 366.697H135.895L132.438 358.166ZM132.08 358.166H133.047L133.205 363.369V366.697H132.08V358.166ZM139.604 358.166H140.57V366.697H139.445V363.369L139.604 358.166ZM146.131 365.613V362.35C146.131 362.1 146.08 361.883 145.979 361.699C145.881 361.512 145.732 361.367 145.533 361.266C145.334 361.164 145.088 361.113 144.795 361.113C144.521 361.113 144.281 361.16 144.074 361.254C143.871 361.348 143.711 361.471 143.594 361.623C143.48 361.775 143.424 361.94 143.424 362.115H142.34C142.34 361.889 142.398 361.664 142.516 361.441C142.633 361.219 142.801 361.018 143.02 360.838C143.242 360.654 143.508 360.51 143.816 360.404C144.129 360.295 144.477 360.24 144.859 360.24C145.32 360.24 145.727 360.318 146.078 360.475C146.434 360.631 146.711 360.867 146.91 361.184C147.113 361.496 147.215 361.889 147.215 362.361V365.315C147.215 365.525 147.232 365.75 147.268 365.988C147.307 366.227 147.363 366.432 147.438 366.604V366.697H146.307C146.252 366.572 146.209 366.406 146.178 366.199C146.146 365.988 146.131 365.793 146.131 365.613ZM146.318 362.854L146.33 363.615H145.234C144.926 363.615 144.65 363.641 144.408 363.691C144.166 363.738 143.963 363.811 143.799 363.908C143.635 364.006 143.51 364.129 143.424 364.277C143.338 364.422 143.295 364.592 143.295 364.787C143.295 364.986 143.34 365.168 143.43 365.332C143.52 365.496 143.654 365.627 143.834 365.725C144.018 365.818 144.242 365.865 144.508 365.865C144.84 365.865 145.133 365.795 145.387 365.654C145.641 365.514 145.842 365.342 145.99 365.139C146.143 364.936 146.225 364.738 146.236 364.547L146.699 365.068C146.672 365.232 146.598 365.414 146.477 365.613C146.355 365.813 146.193 366.004 145.99 366.188C145.791 366.367 145.553 366.518 145.275 366.639C145.002 366.756 144.693 366.815 144.35 366.815C143.92 366.815 143.543 366.731 143.219 366.563C142.898 366.395 142.648 366.17 142.469 365.889C142.293 365.604 142.205 365.285 142.205 364.934C142.205 364.594 142.271 364.295 142.404 364.037C142.537 363.775 142.729 363.559 142.979 363.387C143.229 363.211 143.529 363.078 143.881 362.988C144.232 362.898 144.625 362.854 145.059 362.854H146.318ZM150.004 361.354V366.697H148.92V360.357H149.975L150.004 361.354ZM151.984 360.322L151.979 361.33C151.889 361.311 151.803 361.299 151.721 361.295C151.643 361.287 151.553 361.283 151.451 361.283C151.201 361.283 150.98 361.322 150.789 361.4C150.598 361.479 150.436 361.588 150.303 361.729C150.17 361.869 150.064 362.037 149.986 362.232C149.912 362.424 149.863 362.635 149.84 362.865L149.535 363.041C149.535 362.658 149.572 362.299 149.646 361.963C149.725 361.627 149.844 361.33 150.004 361.072C150.164 360.811 150.367 360.607 150.613 360.463C150.863 360.315 151.16 360.24 151.504 360.24C151.582 360.24 151.672 360.25 151.773 360.27C151.875 360.285 151.945 360.303 151.984 360.322Z" fill="#333333"/>
<path d="M181.207 358.922L178.383 366.697H177.229L180.48 358.166H181.225L181.207 358.922ZM183.574 366.697L180.744 358.922L180.727 358.166H181.471L184.734 366.697H183.574ZM183.428 363.539V364.465H178.635V363.539H183.428ZM186.797 361.576V369.135H185.707V360.357H186.703L186.797 361.576ZM191.068 363.475V363.598C191.068 364.059 191.014 364.486 190.904 364.881C190.795 365.272 190.635 365.611 190.424 365.9C190.217 366.19 189.961 366.414 189.656 366.574C189.352 366.734 189.002 366.815 188.607 366.815C188.205 366.815 187.85 366.748 187.541 366.615C187.232 366.482 186.971 366.289 186.756 366.035C186.541 365.781 186.369 365.477 186.24 365.121C186.115 364.766 186.029 364.365 185.982 363.92V363.264C186.029 362.795 186.117 362.375 186.246 362.004C186.375 361.633 186.545 361.316 186.756 361.055C186.971 360.789 187.23 360.588 187.535 360.451C187.84 360.311 188.191 360.24 188.59 360.24C188.988 360.24 189.342 360.318 189.65 360.475C189.959 360.627 190.219 360.846 190.43 361.131C190.641 361.416 190.799 361.758 190.904 362.156C191.014 362.551 191.068 362.99 191.068 363.475ZM189.979 363.598V363.475C189.979 363.158 189.945 362.861 189.879 362.584C189.812 362.303 189.709 362.057 189.568 361.846C189.432 361.631 189.256 361.463 189.041 361.342C188.826 361.217 188.57 361.154 188.273 361.154C188 361.154 187.762 361.201 187.559 361.295C187.359 361.389 187.189 361.516 187.049 361.676C186.908 361.832 186.793 362.012 186.703 362.215C186.617 362.414 186.553 362.621 186.51 362.836V364.354C186.588 364.627 186.697 364.885 186.838 365.127C186.979 365.365 187.166 365.559 187.4 365.707C187.635 365.852 187.93 365.924 188.285 365.924C188.578 365.924 188.83 365.863 189.041 365.742C189.256 365.617 189.432 365.447 189.568 365.232C189.709 365.018 189.812 364.772 189.879 364.494C189.945 364.213 189.979 363.914 189.979 363.598ZM193.535 361.354V366.697H192.451V360.357H193.506L193.535 361.354ZM195.516 360.322L195.51 361.33C195.42 361.311 195.334 361.299 195.252 361.295C195.174 361.287 195.084 361.283 194.982 361.283C194.732 361.283 194.512 361.322 194.32 361.4C194.129 361.479 193.967 361.588 193.834 361.729C193.701 361.869 193.596 362.037 193.518 362.232C193.443 362.424 193.395 362.635 193.371 362.865L193.066 363.041C193.066 362.658 193.104 362.299 193.178 361.963C193.256 361.627 193.375 361.33 193.535 361.072C193.695 360.811 193.898 360.607 194.145 360.463C194.395 360.315 194.691 360.24 195.035 360.24C195.113 360.24 195.203 360.25 195.305 360.27C195.406 360.285 195.477 360.303 195.516 360.322Z" fill="#333333"/>
<path d="M220.676 358.166H221.771L224.566 365.121L227.355 358.166H228.457L224.988 366.697H224.133L220.676 358.166ZM220.318 358.166H221.285L221.443 363.369V366.697H220.318V358.166ZM227.842 358.166H228.809V366.697H227.684V363.369L227.842 358.166ZM234.369 365.613V362.35C234.369 362.1 234.318 361.883 234.217 361.699C234.119 361.512 233.971 361.367 233.771 361.266C233.572 361.164 233.326 361.113 233.033 361.113C232.76 361.113 232.52 361.16 232.312 361.254C232.109 361.348 231.949 361.471 231.832 361.623C231.719 361.775 231.662 361.94 231.662 362.115H230.578C230.578 361.889 230.637 361.664 230.754 361.441C230.871 361.219 231.039 361.018 231.258 360.838C231.48 360.654 231.746 360.51 232.055 360.404C232.367 360.295 232.715 360.24 233.098 360.24C233.559 360.24 233.965 360.318 234.316 360.475C234.672 360.631 234.949 360.867 235.148 361.184C235.352 361.496 235.453 361.889 235.453 362.361V365.315C235.453 365.525 235.471 365.75 235.506 365.988C235.545 366.227 235.602 366.432 235.676 366.604V366.697H234.545C234.49 366.572 234.447 366.406 234.416 366.199C234.385 365.988 234.369 365.793 234.369 365.613ZM234.557 362.854L234.568 363.615H233.473C233.164 363.615 232.889 363.641 232.646 363.691C232.404 363.738 232.201 363.811 232.037 363.908C231.873 364.006 231.748 364.129 231.662 364.277C231.576 364.422 231.533 364.592 231.533 364.787C231.533 364.986 231.578 365.168 231.668 365.332C231.758 365.496 231.893 365.627 232.072 365.725C232.256 365.818 232.48 365.865 232.746 365.865C233.078 365.865 233.371 365.795 233.625 365.654C233.879 365.514 234.08 365.342 234.229 365.139C234.381 364.936 234.463 364.738 234.475 364.547L234.938 365.068C234.91 365.232 234.836 365.414 234.715 365.613C234.594 365.813 234.432 366.004 234.229 366.188C234.029 366.367 233.791 366.518 233.514 366.639C233.24 366.756 232.932 366.815 232.588 366.815C232.158 366.815 231.781 366.731 231.457 366.563C231.137 366.395 230.887 366.17 230.707 365.889C230.531 365.604 230.443 365.285 230.443 364.934C230.443 364.594 230.51 364.295 230.643 364.037C230.775 363.775 230.967 363.559 231.217 363.387C231.467 363.211 231.768 363.078 232.119 362.988C232.471 362.898 232.863 362.854 233.297 362.854H234.557ZM238.846 366.041L240.609 360.357H241.77L239.227 367.676C239.168 367.832 239.09 368 238.992 368.18C238.898 368.363 238.777 368.537 238.629 368.701C238.48 368.865 238.301 368.998 238.09 369.1C237.883 369.205 237.635 369.258 237.346 369.258C237.26 369.258 237.15 369.246 237.018 369.223C236.885 369.199 236.791 369.18 236.736 369.164L236.73 368.285C236.762 368.289 236.811 368.293 236.877 368.297C236.947 368.305 236.996 368.309 237.023 368.309C237.27 368.309 237.479 368.275 237.65 368.209C237.822 368.147 237.967 368.039 238.084 367.887C238.205 367.738 238.309 367.533 238.395 367.272L238.846 366.041ZM237.551 360.357L239.197 365.279L239.479 366.422L238.699 366.82L236.367 360.357H237.551Z" fill="#333333"/>
<path d="M268.508 364.207V358.166H269.633V364.207C269.633 364.77 269.518 365.244 269.287 365.631C269.057 366.018 268.738 366.313 268.332 366.516C267.93 366.715 267.467 366.815 266.943 366.815C266.42 366.815 265.955 366.725 265.549 366.545C265.143 366.365 264.824 366.092 264.594 365.725C264.363 365.357 264.248 364.895 264.248 364.336H265.379C265.379 364.695 265.445 364.99 265.578 365.221C265.711 365.451 265.895 365.621 266.129 365.731C266.367 365.84 266.639 365.895 266.943 365.895C267.24 365.895 267.506 365.832 267.74 365.707C267.979 365.578 268.166 365.389 268.303 365.139C268.439 364.885 268.508 364.574 268.508 364.207ZM275.264 365.232V360.357H276.354V366.697H275.316L275.264 365.232ZM275.469 363.897L275.92 363.885C275.92 364.307 275.875 364.697 275.785 365.057C275.699 365.412 275.559 365.721 275.363 365.982C275.168 366.244 274.912 366.449 274.596 366.598C274.279 366.742 273.895 366.815 273.441 366.815C273.133 366.815 272.85 366.77 272.592 366.68C272.338 366.59 272.119 366.451 271.936 366.264C271.752 366.076 271.609 365.832 271.508 365.531C271.41 365.231 271.361 364.869 271.361 364.447V360.357H272.445V364.459C272.445 364.744 272.477 364.981 272.539 365.168C272.605 365.352 272.693 365.498 272.803 365.607C272.916 365.713 273.041 365.787 273.178 365.83C273.318 365.873 273.463 365.895 273.611 365.895C274.072 365.895 274.438 365.807 274.707 365.631C274.977 365.451 275.17 365.211 275.287 364.91C275.408 364.606 275.469 364.268 275.469 363.897ZM279.09 361.711V366.697H278.006V360.357H279.031L279.09 361.711ZM278.832 363.287L278.381 363.27C278.385 362.836 278.449 362.436 278.574 362.068C278.699 361.697 278.875 361.375 279.102 361.102C279.328 360.828 279.598 360.617 279.91 360.469C280.227 360.316 280.576 360.24 280.959 360.24C281.271 360.24 281.553 360.283 281.803 360.369C282.053 360.451 282.266 360.584 282.441 360.768C282.621 360.951 282.758 361.19 282.852 361.482C282.945 361.772 282.992 362.125 282.992 362.543V366.697H281.902V362.531C281.902 362.199 281.854 361.934 281.756 361.734C281.658 361.531 281.516 361.385 281.328 361.295C281.141 361.201 280.91 361.154 280.637 361.154C280.367 361.154 280.121 361.211 279.898 361.324C279.68 361.438 279.49 361.594 279.33 361.793C279.174 361.992 279.051 362.221 278.961 362.479C278.875 362.732 278.832 363.002 278.832 363.287Z" fill="#333333"/>
<path d="M315.115 364.207V358.166H316.24V364.207C316.24 364.77 316.125 365.244 315.895 365.631C315.664 366.018 315.346 366.313 314.939 366.516C314.537 366.715 314.074 366.815 313.551 366.815C313.027 366.815 312.562 366.725 312.156 366.545C311.75 366.365 311.432 366.092 311.201 365.725C310.971 365.357 310.855 364.895 310.855 364.336H311.986C311.986 364.695 312.053 364.99 312.186 365.221C312.318 365.451 312.502 365.621 312.736 365.731C312.975 365.84 313.246 365.895 313.551 365.895C313.848 365.895 314.113 365.832 314.348 365.707C314.586 365.578 314.773 365.389 314.91 365.139C315.047 364.885 315.115 364.574 315.115 364.207ZM321.871 365.232V360.357H322.961V366.697H321.924L321.871 365.232ZM322.076 363.897L322.527 363.885C322.527 364.307 322.482 364.697 322.393 365.057C322.307 365.412 322.166 365.721 321.971 365.982C321.775 366.244 321.52 366.449 321.203 366.598C320.887 366.742 320.502 366.815 320.049 366.815C319.74 366.815 319.457 366.77 319.199 366.68C318.945 366.59 318.727 366.451 318.543 366.264C318.359 366.076 318.217 365.832 318.115 365.531C318.018 365.231 317.969 364.869 317.969 364.447V360.357H319.053V364.459C319.053 364.744 319.084 364.981 319.146 365.168C319.213 365.352 319.301 365.498 319.41 365.607C319.523 365.713 319.648 365.787 319.785 365.83C319.926 365.873 320.07 365.895 320.219 365.895C320.68 365.895 321.045 365.807 321.314 365.631C321.584 365.451 321.777 365.211 321.895 364.91C322.016 364.606 322.076 364.268 322.076 363.897ZM325.791 357.697V366.697H324.701V357.697H325.791Z" fill="#333333"/>
<path d="M355.965 358.922L353.141 366.697H351.986L355.238 358.166H355.982L355.965 358.922ZM358.332 366.697L355.502 358.922L355.484 358.166H356.229L359.492 366.697H358.332ZM358.186 363.539V364.465H353.393V363.539H358.186ZM364.279 365.232V360.357H365.369V366.697H364.332L364.279 365.232ZM364.484 363.897L364.936 363.885C364.936 364.307 364.891 364.697 364.801 365.057C364.715 365.412 364.574 365.721 364.379 365.982C364.184 366.244 363.928 366.449 363.611 366.598C363.295 366.742 362.91 366.815 362.457 366.815C362.148 366.815 361.865 366.77 361.607 366.68C361.354 366.59 361.135 366.451 360.951 366.264C360.768 366.076 360.625 365.832 360.523 365.531C360.426 365.231 360.377 364.869 360.377 364.447V360.357H361.461V364.459C361.461 364.744 361.492 364.981 361.555 365.168C361.621 365.352 361.709 365.498 361.818 365.607C361.932 365.713 362.057 365.787 362.193 365.83C362.334 365.873 362.479 365.895 362.627 365.895C363.088 365.895 363.453 365.807 363.723 365.631C363.992 365.451 364.186 365.211 364.303 364.91C364.424 364.606 364.484 364.268 364.484 363.897ZM371.129 360.357H372.113V366.563C372.113 367.121 372 367.598 371.773 367.992C371.547 368.387 371.23 368.686 370.824 368.889C370.422 369.096 369.957 369.199 369.43 369.199C369.211 369.199 368.953 369.164 368.656 369.094C368.363 369.027 368.074 368.912 367.789 368.748C367.508 368.588 367.271 368.371 367.08 368.098L367.648 367.453C367.914 367.773 368.191 367.996 368.48 368.121C368.773 368.246 369.062 368.309 369.348 368.309C369.691 368.309 369.988 368.244 370.238 368.115C370.488 367.986 370.682 367.795 370.818 367.541C370.959 367.291 371.029 366.982 371.029 366.615V361.752L371.129 360.357ZM366.764 363.598V363.475C366.764 362.99 366.82 362.551 366.934 362.156C367.051 361.758 367.217 361.416 367.432 361.131C367.65 360.846 367.914 360.627 368.223 360.475C368.531 360.318 368.879 360.24 369.266 360.24C369.664 360.24 370.012 360.311 370.309 360.451C370.609 360.588 370.863 360.789 371.07 361.055C371.281 361.316 371.447 361.633 371.568 362.004C371.689 362.375 371.773 362.795 371.82 363.264V363.803C371.777 364.268 371.693 364.686 371.568 365.057C371.447 365.428 371.281 365.744 371.07 366.006C370.863 366.268 370.609 366.469 370.309 366.609C370.008 366.746 369.656 366.815 369.254 366.815C368.875 366.815 368.531 366.734 368.223 366.574C367.918 366.414 367.656 366.19 367.438 365.9C367.219 365.611 367.051 365.272 366.934 364.881C366.82 364.486 366.764 364.059 366.764 363.598ZM367.848 363.475V363.598C367.848 363.914 367.879 364.211 367.941 364.488C368.008 364.766 368.107 365.01 368.24 365.221C368.377 365.432 368.551 365.598 368.762 365.719C368.973 365.836 369.225 365.895 369.518 365.895C369.877 365.895 370.174 365.818 370.408 365.666C370.643 365.514 370.828 365.313 370.965 365.063C371.105 364.813 371.215 364.541 371.293 364.248V362.836C371.25 362.621 371.184 362.414 371.094 362.215C371.008 362.012 370.895 361.832 370.754 361.676C370.617 361.516 370.447 361.389 370.244 361.295C370.041 361.201 369.803 361.154 369.529 361.154C369.232 361.154 368.977 361.217 368.762 361.342C368.551 361.463 368.377 361.631 368.24 361.846C368.107 362.057 368.008 362.303 367.941 362.584C367.879 362.861 367.848 363.158 367.848 363.475Z" fill="#333333"/>
<path d="M403.049 364.541C403.049 364.342 403.018 364.166 402.955 364.014C402.896 363.857 402.791 363.717 402.639 363.592C402.49 363.467 402.283 363.348 402.018 363.234C401.756 363.121 401.424 363.006 401.021 362.889C400.6 362.764 400.219 362.625 399.879 362.473C399.539 362.316 399.248 362.139 399.006 361.94C398.764 361.74 398.578 361.512 398.449 361.254C398.32 360.996 398.256 360.701 398.256 360.369C398.256 360.037 398.324 359.731 398.461 359.449C398.598 359.168 398.793 358.924 399.047 358.717C399.305 358.506 399.611 358.342 399.967 358.225C400.322 358.107 400.719 358.049 401.156 358.049C401.797 358.049 402.34 358.172 402.785 358.418C403.234 358.66 403.576 358.979 403.811 359.373C404.045 359.764 404.162 360.182 404.162 360.627H403.037C403.037 360.307 402.969 360.023 402.832 359.777C402.695 359.527 402.488 359.332 402.211 359.191C401.934 359.047 401.582 358.975 401.156 358.975C400.754 358.975 400.422 359.035 400.16 359.156C399.898 359.277 399.703 359.441 399.574 359.648C399.449 359.856 399.387 360.092 399.387 360.357C399.387 360.537 399.424 360.701 399.498 360.85C399.576 360.994 399.695 361.129 399.855 361.254C400.02 361.379 400.227 361.494 400.477 361.6C400.73 361.705 401.033 361.807 401.385 361.904C401.869 362.041 402.287 362.193 402.639 362.361C402.99 362.529 403.279 362.719 403.506 362.93C403.736 363.137 403.906 363.373 404.016 363.639C404.129 363.9 404.186 364.197 404.186 364.529C404.186 364.877 404.115 365.191 403.975 365.473C403.834 365.754 403.633 365.994 403.371 366.193C403.109 366.393 402.795 366.547 402.428 366.656C402.064 366.762 401.658 366.815 401.209 366.815C400.814 366.815 400.426 366.76 400.043 366.65C399.664 366.541 399.318 366.377 399.006 366.158C398.697 365.94 398.449 365.67 398.262 365.35C398.078 365.025 397.986 364.65 397.986 364.225H399.111C399.111 364.518 399.168 364.77 399.281 364.981C399.395 365.188 399.549 365.359 399.744 365.496C399.943 365.633 400.168 365.734 400.418 365.801C400.672 365.863 400.936 365.895 401.209 365.895C401.604 365.895 401.938 365.84 402.211 365.731C402.484 365.621 402.691 365.465 402.832 365.262C402.977 365.059 403.049 364.818 403.049 364.541ZM408.094 366.815C407.652 366.815 407.252 366.74 406.893 366.592C406.537 366.44 406.23 366.227 405.973 365.953C405.719 365.68 405.523 365.356 405.387 364.981C405.25 364.606 405.182 364.195 405.182 363.75V363.504C405.182 362.988 405.258 362.529 405.41 362.127C405.562 361.721 405.77 361.377 406.031 361.096C406.293 360.815 406.59 360.602 406.922 360.457C407.254 360.313 407.598 360.24 407.953 360.24C408.406 360.24 408.797 360.318 409.125 360.475C409.457 360.631 409.729 360.85 409.939 361.131C410.15 361.408 410.307 361.736 410.408 362.115C410.51 362.49 410.561 362.9 410.561 363.346V363.832H405.826V362.947H409.477V362.865C409.461 362.584 409.402 362.311 409.301 362.045C409.203 361.779 409.047 361.561 408.832 361.389C408.617 361.217 408.324 361.131 407.953 361.131C407.707 361.131 407.48 361.184 407.273 361.289C407.066 361.391 406.889 361.543 406.74 361.746C406.592 361.949 406.477 362.197 406.395 362.49C406.312 362.783 406.271 363.121 406.271 363.504V363.75C406.271 364.051 406.312 364.334 406.395 364.6C406.48 364.861 406.604 365.092 406.764 365.291C406.928 365.49 407.125 365.647 407.355 365.76C407.59 365.873 407.855 365.93 408.152 365.93C408.535 365.93 408.859 365.852 409.125 365.695C409.391 365.539 409.623 365.33 409.822 365.068L410.479 365.59C410.342 365.797 410.168 365.994 409.957 366.182C409.746 366.369 409.486 366.522 409.178 366.639C408.873 366.756 408.512 366.815 408.094 366.815ZM412.91 361.576V369.135H411.82V360.357H412.816L412.91 361.576ZM417.182 363.475V363.598C417.182 364.059 417.127 364.486 417.018 364.881C416.908 365.272 416.748 365.611 416.537 365.9C416.33 366.19 416.074 366.414 415.77 366.574C415.465 366.734 415.115 366.815 414.721 366.815C414.318 366.815 413.963 366.748 413.654 366.615C413.346 366.482 413.084 366.289 412.869 366.035C412.654 365.781 412.482 365.477 412.354 365.121C412.229 364.766 412.143 364.365 412.096 363.92V363.264C412.143 362.795 412.23 362.375 412.359 362.004C412.488 361.633 412.658 361.316 412.869 361.055C413.084 360.789 413.344 360.588 413.648 360.451C413.953 360.311 414.305 360.24 414.703 360.24C415.102 360.24 415.455 360.318 415.764 360.475C416.072 360.627 416.332 360.846 416.543 361.131C416.754 361.416 416.912 361.758 417.018 362.156C417.127 362.551 417.182 362.99 417.182 363.475ZM416.092 363.598V363.475C416.092 363.158 416.059 362.861 415.992 362.584C415.926 362.303 415.822 362.057 415.682 361.846C415.545 361.631 415.369 361.463 415.154 361.342C414.939 361.217 414.684 361.154 414.387 361.154C414.113 361.154 413.875 361.201 413.672 361.295C413.473 361.389 413.303 361.516 413.162 361.676C413.021 361.832 412.906 362.012 412.816 362.215C412.73 362.414 412.666 362.621 412.623 362.836V364.354C412.701 364.627 412.811 364.885 412.951 365.127C413.092 365.365 413.279 365.559 413.514 365.707C413.748 365.852 414.043 365.924 414.398 365.924C414.691 365.924 414.943 365.863 415.154 365.742C415.369 365.617 415.545 365.447 415.682 365.232C415.822 365.018 415.926 364.772 415.992 364.494C416.059 364.213 416.092 363.914 416.092 363.598Z" fill="#333333"/>
<path d="M449.699 362.162V362.701C449.699 363.342 449.619 363.916 449.459 364.424C449.299 364.932 449.068 365.363 448.768 365.719C448.467 366.074 448.105 366.346 447.684 366.533C447.266 366.721 446.797 366.815 446.277 366.815C445.773 366.815 445.311 366.721 444.889 366.533C444.471 366.346 444.107 366.074 443.799 365.719C443.494 365.363 443.258 364.932 443.09 364.424C442.922 363.916 442.838 363.342 442.838 362.701V362.162C442.838 361.522 442.92 360.949 443.084 360.445C443.252 359.938 443.488 359.506 443.793 359.15C444.098 358.791 444.459 358.518 444.877 358.33C445.299 358.143 445.762 358.049 446.266 358.049C446.785 358.049 447.254 358.143 447.672 358.33C448.094 358.518 448.455 358.791 448.756 359.15C449.061 359.506 449.293 359.938 449.453 360.445C449.617 360.949 449.699 361.522 449.699 362.162ZM448.58 362.701V362.15C448.58 361.643 448.527 361.193 448.422 360.803C448.32 360.412 448.17 360.084 447.971 359.818C447.771 359.553 447.527 359.352 447.238 359.215C446.953 359.078 446.629 359.01 446.266 359.01C445.914 359.01 445.596 359.078 445.311 359.215C445.029 359.352 444.787 359.553 444.584 359.818C444.385 360.084 444.23 360.412 444.121 360.803C444.012 361.193 443.957 361.643 443.957 362.15V362.701C443.957 363.213 444.012 363.666 444.121 364.061C444.23 364.451 444.387 364.781 444.59 365.051C444.797 365.316 445.041 365.518 445.322 365.654C445.607 365.791 445.926 365.859 446.277 365.859C446.645 365.859 446.971 365.791 447.256 365.654C447.541 365.518 447.781 365.316 447.977 365.051C448.176 364.781 448.326 364.451 448.428 364.061C448.529 363.666 448.58 363.213 448.58 362.701ZM453.766 365.924C454.023 365.924 454.262 365.871 454.48 365.766C454.699 365.66 454.879 365.516 455.02 365.332C455.16 365.145 455.24 364.932 455.26 364.693H456.291C456.271 365.068 456.145 365.418 455.91 365.742C455.68 366.063 455.377 366.322 455.002 366.522C454.627 366.717 454.215 366.815 453.766 366.815C453.289 366.815 452.873 366.731 452.518 366.563C452.166 366.395 451.873 366.164 451.639 365.871C451.408 365.578 451.234 365.242 451.117 364.863C451.004 364.481 450.947 364.076 450.947 363.65V363.404C450.947 362.979 451.004 362.576 451.117 362.197C451.234 361.815 451.408 361.477 451.639 361.184C451.873 360.891 452.166 360.66 452.518 360.492C452.873 360.324 453.289 360.24 453.766 360.24C454.262 360.24 454.695 360.342 455.066 360.545C455.438 360.744 455.729 361.018 455.939 361.365C456.154 361.709 456.271 362.1 456.291 362.537H455.26C455.24 362.275 455.166 362.039 455.037 361.828C454.912 361.617 454.74 361.449 454.521 361.324C454.307 361.195 454.055 361.131 453.766 361.131C453.434 361.131 453.154 361.197 452.928 361.33C452.705 361.459 452.527 361.635 452.395 361.857C452.266 362.076 452.172 362.32 452.113 362.59C452.059 362.856 452.031 363.127 452.031 363.404V363.65C452.031 363.928 452.059 364.201 452.113 364.471C452.168 364.74 452.26 364.984 452.389 365.203C452.521 365.422 452.699 365.598 452.922 365.731C453.148 365.859 453.43 365.924 453.766 365.924ZM460.164 360.357V361.19H456.736V360.357H460.164ZM457.896 358.816H458.98V365.127C458.98 365.342 459.014 365.504 459.08 365.613C459.146 365.723 459.232 365.795 459.338 365.83C459.443 365.865 459.557 365.883 459.678 365.883C459.768 365.883 459.861 365.875 459.959 365.859C460.061 365.84 460.137 365.824 460.188 365.813L460.193 366.697C460.107 366.725 459.994 366.75 459.854 366.773C459.717 366.801 459.551 366.815 459.355 366.815C459.09 366.815 458.846 366.762 458.623 366.656C458.4 366.551 458.223 366.375 458.09 366.129C457.961 365.879 457.896 365.543 457.896 365.121V358.816Z" fill="#333333"/>
<path d="M492.113 358.166V366.697H490.977L486.682 360.117V366.697H485.551V358.166H486.682L490.994 364.764V358.166H492.113ZM493.666 363.598V363.463C493.666 363.006 493.732 362.582 493.865 362.191C493.998 361.797 494.189 361.455 494.439 361.166C494.689 360.873 494.992 360.647 495.348 360.486C495.703 360.322 496.102 360.24 496.543 360.24C496.988 360.24 497.389 360.322 497.744 360.486C498.104 360.647 498.408 360.873 498.658 361.166C498.912 361.455 499.105 361.797 499.238 362.191C499.371 362.582 499.438 363.006 499.438 363.463V363.598C499.438 364.055 499.371 364.479 499.238 364.869C499.105 365.26 498.912 365.602 498.658 365.895C498.408 366.184 498.105 366.41 497.75 366.574C497.398 366.734 497 366.815 496.555 366.815C496.109 366.815 495.709 366.734 495.354 366.574C494.998 366.41 494.693 366.184 494.439 365.895C494.189 365.602 493.998 365.26 493.865 364.869C493.732 364.479 493.666 364.055 493.666 363.598ZM494.75 363.463V363.598C494.75 363.914 494.787 364.213 494.861 364.494C494.936 364.772 495.047 365.018 495.195 365.232C495.348 365.447 495.537 365.617 495.764 365.742C495.99 365.863 496.254 365.924 496.555 365.924C496.852 365.924 497.111 365.863 497.334 365.742C497.561 365.617 497.748 365.447 497.896 365.232C498.045 365.018 498.156 364.772 498.23 364.494C498.309 364.213 498.348 363.914 498.348 363.598V363.463C498.348 363.15 498.309 362.856 498.23 362.578C498.156 362.297 498.043 362.049 497.891 361.834C497.742 361.615 497.555 361.443 497.328 361.318C497.105 361.193 496.844 361.131 496.543 361.131C496.246 361.131 495.984 361.193 495.758 361.318C495.535 361.443 495.348 361.615 495.195 361.834C495.047 362.049 494.936 362.297 494.861 362.578C494.787 362.856 494.75 363.15 494.75 363.463ZM502.631 365.719L504.365 360.357H505.473L503.193 366.697H502.467L502.631 365.719ZM501.184 360.357L502.971 365.748L503.094 366.697H502.367L500.07 360.357H501.184Z" fill="#333333"/>
<path d="M532.914 366.697H531.133L531.145 365.777H532.914C533.523 365.777 534.031 365.65 534.438 365.397C534.844 365.139 535.148 364.779 535.352 364.318C535.559 363.854 535.662 363.311 535.662 362.69V362.168C535.662 361.68 535.604 361.246 535.486 360.867C535.369 360.484 535.197 360.162 534.971 359.9C534.744 359.635 534.467 359.434 534.139 359.297C533.814 359.16 533.441 359.092 533.02 359.092H531.098V358.166H533.02C533.578 358.166 534.088 358.26 534.549 358.447C535.01 358.631 535.406 358.898 535.738 359.25C536.074 359.598 536.332 360.02 536.512 360.516C536.691 361.008 536.781 361.563 536.781 362.18V362.69C536.781 363.307 536.691 363.863 536.512 364.359C536.332 364.852 536.072 365.272 535.732 365.619C535.396 365.967 534.99 366.234 534.514 366.422C534.041 366.606 533.508 366.697 532.914 366.697ZM531.736 358.166V366.697H530.605V358.166H531.736ZM540.947 366.815C540.506 366.815 540.105 366.74 539.746 366.592C539.391 366.44 539.084 366.227 538.826 365.953C538.572 365.68 538.377 365.356 538.24 364.981C538.104 364.606 538.035 364.195 538.035 363.75V363.504C538.035 362.988 538.111 362.529 538.264 362.127C538.416 361.721 538.623 361.377 538.885 361.096C539.146 360.815 539.443 360.602 539.775 360.457C540.107 360.313 540.451 360.24 540.807 360.24C541.26 360.24 541.65 360.318 541.979 360.475C542.311 360.631 542.582 360.85 542.793 361.131C543.004 361.408 543.16 361.736 543.262 362.115C543.363 362.49 543.414 362.9 543.414 363.346V363.832H538.68V362.947H542.33V362.865C542.314 362.584 542.256 362.311 542.154 362.045C542.057 361.779 541.9 361.561 541.686 361.389C541.471 361.217 541.178 361.131 540.807 361.131C540.561 361.131 540.334 361.184 540.127 361.289C539.92 361.391 539.742 361.543 539.594 361.746C539.445 361.949 539.33 362.197 539.248 362.49C539.166 362.783 539.125 363.121 539.125 363.504V363.75C539.125 364.051 539.166 364.334 539.248 364.6C539.334 364.861 539.457 365.092 539.617 365.291C539.781 365.49 539.979 365.647 540.209 365.76C540.443 365.873 540.709 365.93 541.006 365.93C541.389 365.93 541.713 365.852 541.979 365.695C542.244 365.539 542.477 365.33 542.676 365.068L543.332 365.59C543.195 365.797 543.021 365.994 542.811 366.182C542.6 366.369 542.34 366.522 542.031 366.639C541.727 366.756 541.365 366.815 540.947 366.815ZM547.217 365.924C547.475 365.924 547.713 365.871 547.932 365.766C548.15 365.66 548.33 365.516 548.471 365.332C548.611 365.145 548.691 364.932 548.711 364.693H549.742C549.723 365.068 549.596 365.418 549.361 365.742C549.131 366.063 548.828 366.322 548.453 366.522C548.078 366.717 547.666 366.815 547.217 366.815C546.74 366.815 546.324 366.731 545.969 366.563C545.617 366.395 545.324 366.164 545.09 365.871C544.859 365.578 544.686 365.242 544.568 364.863C544.455 364.481 544.398 364.076 544.398 363.65V363.404C544.398 362.979 544.455 362.576 544.568 362.197C544.686 361.815 544.859 361.477 545.09 361.184C545.324 360.891 545.617 360.66 545.969 360.492C546.324 360.324 546.74 360.24 547.217 360.24C547.713 360.24 548.146 360.342 548.518 360.545C548.889 360.744 549.18 361.018 549.391 361.365C549.605 361.709 549.723 362.1 549.742 362.537H548.711C548.691 362.275 548.617 362.039 548.488 361.828C548.363 361.617 548.191 361.449 547.973 361.324C547.758 361.195 547.506 361.131 547.217 361.131C546.885 361.131 546.605 361.197 546.379 361.33C546.156 361.459 545.979 361.635 545.846 361.857C545.717 362.076 545.623 362.32 545.564 362.59C545.51 362.856 545.482 363.127 545.482 363.404V363.65C545.482 363.928 545.51 364.201 545.564 364.471C545.619 364.74 545.711 364.984 545.84 365.203C545.973 365.422 546.15 365.598 546.373 365.731C546.6 365.859 546.881 365.924 547.217 365.924Z" fill="#333333"/>
<path d="M43 215.904H63V356.84H43V215.904Z" fill="#0263FF"/>
<path d="M87 46.7814H107V356.84H87V46.7814Z" fill="#FF7723"/>
<path d="M131 145.436H151V356.84H131V145.436Z" fill="#8E30FF"/>
<path d="M175 222.951H195V356.84H175V222.951Z" fill="#A446AA"/>
<path d="M220 201.81H240V356.84H220V201.81Z" fill="#A98D46"/>
<path d="M264 353.316H284V356.84H264V353.316Z" fill="#7884FE"/>
<path d="M308 328.652H328V356.84H308V328.652Z" fill="#96E6E3"/>
<path d="M352 99.6322H372V356.84H352V99.6322Z" fill="#5EA9D6"/>
<path d="M397 353.316H417V356.84H397V353.316Z" fill="#4B16FF"/>
<path d="M441 279.325H461V356.84H441V279.325Z" fill="#036225"/>
<path d="M485 318.082H505V356.84H485V318.082Z" fill="#FF22CB"/>
<path d="M529 208.857H549V356.84H529V208.857Z" fill="#39A7DE"/>
<path d="M52.7246 206.817V207.708H46.5605V207.069L50.3809 201.157H51.2656L50.3164 202.868L47.791 206.817H52.7246ZM51.5352 201.157V209.688H50.4512V201.157H51.5352ZM59.0645 204.743V206.043C59.0645 206.743 59.002 207.333 58.877 207.813C58.752 208.293 58.5723 208.68 58.3379 208.973C58.1035 209.266 57.8203 209.479 57.4883 209.612C57.1602 209.741 56.7891 209.805 56.375 209.805C56.0469 209.805 55.7441 209.764 55.4668 209.682C55.1895 209.6 54.9395 209.469 54.7168 209.29C54.498 209.106 54.3105 208.868 54.1543 208.575C53.998 208.282 53.8789 207.926 53.7969 207.508C53.7148 207.09 53.6738 206.602 53.6738 206.043V204.743C53.6738 204.043 53.7363 203.458 53.8613 202.985C53.9902 202.512 54.1719 202.133 54.4062 201.848C54.6406 201.559 54.9219 201.352 55.25 201.227C55.582 201.102 55.9531 201.04 56.3633 201.04C56.6953 201.04 57 201.081 57.2773 201.163C57.5586 201.241 57.8086 201.368 58.0273 201.543C58.2461 201.715 58.4316 201.946 58.584 202.235C58.7402 202.52 58.8594 202.87 58.9414 203.284C59.0234 203.698 59.0645 204.184 59.0645 204.743ZM57.9746 206.219V204.561C57.9746 204.178 57.9512 203.842 57.9043 203.553C57.8613 203.26 57.7969 203.01 57.7109 202.803C57.625 202.596 57.5156 202.428 57.3828 202.299C57.2539 202.17 57.1035 202.077 56.9316 202.018C56.7637 201.956 56.5742 201.924 56.3633 201.924C56.1055 201.924 55.877 201.973 55.6777 202.071C55.4785 202.165 55.3105 202.315 55.1738 202.522C55.041 202.729 54.9395 203 54.8691 203.336C54.7988 203.672 54.7637 204.081 54.7637 204.561V206.219C54.7637 206.602 54.7852 206.94 54.8281 207.233C54.875 207.526 54.9434 207.78 55.0332 207.995C55.123 208.206 55.2324 208.379 55.3613 208.516C55.4902 208.653 55.6387 208.754 55.8066 208.821C55.9785 208.883 56.168 208.915 56.375 208.915C56.6406 208.915 56.873 208.864 57.0723 208.762C57.2715 208.661 57.4375 208.502 57.5703 208.288C57.707 208.069 57.8086 207.79 57.875 207.45C57.9414 207.106 57.9746 206.696 57.9746 206.219Z" fill="#333333"/>
<path d="M95.8379 38.2567C95.8379 38.7762 95.7168 39.2176 95.4746 39.5809C95.2363 39.9402 94.9121 40.2137 94.502 40.4012C94.0957 40.5887 93.6367 40.6824 93.125 40.6824C92.6133 40.6824 92.1523 40.5887 91.7422 40.4012C91.332 40.2137 91.0078 39.9402 90.7695 39.5809C90.5312 39.2176 90.4121 38.7762 90.4121 38.2567C90.4121 37.9168 90.4766 37.6063 90.6055 37.325C90.7383 37.0399 90.9238 36.7918 91.1621 36.5809C91.4043 36.3699 91.6895 36.2078 92.0176 36.0945C92.3496 35.9774 92.7148 35.9188 93.1133 35.9188C93.6367 35.9188 94.1035 36.0203 94.5137 36.2234C94.9238 36.4227 95.2461 36.6981 95.4805 37.0496C95.7188 37.4012 95.8379 37.8035 95.8379 38.2567ZM94.748 38.2332C94.748 37.9168 94.6797 37.6375 94.543 37.3953C94.4062 37.1492 94.2148 36.9578 93.9688 36.8211C93.7227 36.6844 93.4375 36.616 93.1133 36.616C92.7812 36.616 92.4941 36.6844 92.252 36.8211C92.0137 36.9578 91.8281 37.1492 91.6953 37.3953C91.5625 37.6375 91.4961 37.9168 91.4961 38.2332C91.4961 38.5613 91.5605 38.8426 91.6895 39.077C91.8223 39.3074 92.0098 39.4852 92.252 39.6102C92.498 39.7313 92.7891 39.7918 93.125 39.7918C93.4609 39.7918 93.75 39.7313 93.9922 39.6102C94.2344 39.4852 94.4199 39.3074 94.5488 39.077C94.6816 38.8426 94.748 38.5613 94.748 38.2332ZM95.6387 34.2547C95.6387 34.6688 95.5293 35.0418 95.3105 35.3738C95.0918 35.7059 94.793 35.9676 94.4141 36.159C94.0352 36.3504 93.6055 36.4461 93.125 36.4461C92.6367 36.4461 92.2012 36.3504 91.8184 36.159C91.4395 35.9676 91.1426 35.7059 90.9277 35.3738C90.7129 35.0418 90.6055 34.6688 90.6055 34.2547C90.6055 33.7586 90.7129 33.3367 90.9277 32.9891C91.1465 32.6414 91.4453 32.3758 91.8242 32.1922C92.2031 32.0086 92.6348 31.9168 93.1191 31.9168C93.6074 31.9168 94.041 32.0086 94.4199 32.1922C94.7988 32.3758 95.0957 32.6414 95.3105 32.9891C95.5293 33.3367 95.6387 33.7586 95.6387 34.2547ZM94.5547 34.2723C94.5547 33.9871 94.4941 33.7352 94.373 33.5164C94.252 33.2977 94.084 33.1258 93.8691 33.0008C93.6543 32.8719 93.4043 32.8074 93.1191 32.8074C92.834 32.8074 92.584 32.868 92.3691 32.9891C92.1582 33.1063 91.9922 33.2742 91.8711 33.493C91.7539 33.7117 91.6953 33.9715 91.6953 34.2723C91.6953 34.5652 91.7539 34.8211 91.8711 35.0399C91.9922 35.2586 92.1602 35.4285 92.375 35.5496C92.5898 35.6707 92.8398 35.7313 93.125 35.7313C93.4102 35.7313 93.6582 35.6707 93.8691 35.5496C94.084 35.4285 94.252 35.2586 94.373 35.0399C94.4941 34.8211 94.5547 34.5652 94.5547 34.2723ZM102.588 38.2567C102.588 38.7762 102.467 39.2176 102.225 39.5809C101.986 39.9402 101.662 40.2137 101.252 40.4012C100.846 40.5887 100.387 40.6824 99.875 40.6824C99.3633 40.6824 98.9023 40.5887 98.4922 40.4012C98.082 40.2137 97.7578 39.9402 97.5195 39.5809C97.2812 39.2176 97.1621 38.7762 97.1621 38.2567C97.1621 37.9168 97.2266 37.6063 97.3555 37.325C97.4883 37.0399 97.6738 36.7918 97.9121 36.5809C98.1543 36.3699 98.4395 36.2078 98.7676 36.0945C99.0996 35.9774 99.4648 35.9188 99.8633 35.9188C100.387 35.9188 100.854 36.0203 101.264 36.2234C101.674 36.4227 101.996 36.6981 102.23 37.0496C102.469 37.4012 102.588 37.8035 102.588 38.2567ZM101.498 38.2332C101.498 37.9168 101.43 37.6375 101.293 37.3953C101.156 37.1492 100.965 36.9578 100.719 36.8211C100.473 36.6844 100.188 36.616 99.8633 36.616C99.5312 36.616 99.2441 36.6844 99.002 36.8211C98.7637 36.9578 98.5781 37.1492 98.4453 37.3953C98.3125 37.6375 98.2461 37.9168 98.2461 38.2332C98.2461 38.5613 98.3105 38.8426 98.4395 39.077C98.5723 39.3074 98.7598 39.4852 99.002 39.6102C99.248 39.7313 99.5391 39.7918 99.875 39.7918C100.211 39.7918 100.5 39.7313 100.742 39.6102C100.984 39.4852 101.17 39.3074 101.299 39.077C101.432 38.8426 101.498 38.5613 101.498 38.2332ZM102.389 34.2547C102.389 34.6688 102.279 35.0418 102.061 35.3738C101.842 35.7059 101.543 35.9676 101.164 36.159C100.785 36.3504 100.355 36.4461 99.875 36.4461C99.3867 36.4461 98.9512 36.3504 98.5684 36.159C98.1895 35.9676 97.8926 35.7059 97.6777 35.3738C97.4629 35.0418 97.3555 34.6688 97.3555 34.2547C97.3555 33.7586 97.4629 33.3367 97.6777 32.9891C97.8965 32.6414 98.1953 32.3758 98.5742 32.1922C98.9531 32.0086 99.3848 31.9168 99.8691 31.9168C100.357 31.9168 100.791 32.0086 101.17 32.1922C101.549 32.3758 101.846 32.6414 102.061 32.9891C102.279 33.3367 102.389 33.7586 102.389 34.2547ZM101.305 34.2723C101.305 33.9871 101.244 33.7352 101.123 33.5164C101.002 33.2977 100.834 33.1258 100.619 33.0008C100.404 32.8719 100.154 32.8074 99.8691 32.8074C99.584 32.8074 99.334 32.868 99.1191 32.9891C98.9082 33.1063 98.7422 33.2742 98.6211 33.493C98.5039 33.7117 98.4453 33.9715 98.4453 34.2723C98.4453 34.5652 98.5039 34.8211 98.6211 35.0399C98.7422 35.2586 98.9102 35.4285 99.125 35.5496C99.3398 35.6707 99.5898 35.7313 99.875 35.7313C100.16 35.7313 100.408 35.6707 100.619 35.5496C100.834 35.4285 101.002 35.2586 101.123 35.0399C101.244 34.8211 101.305 34.5652 101.305 34.2723Z" fill="#333333"/>
<path d="M138.619 130.677H138.713V131.597H138.619C138.045 131.597 137.564 131.691 137.178 131.878C136.791 132.062 136.484 132.31 136.258 132.622C136.031 132.931 135.867 133.279 135.766 133.665C135.668 134.052 135.619 134.445 135.619 134.843V136.097C135.619 136.476 135.664 136.812 135.754 137.105C135.844 137.394 135.967 137.638 136.123 137.837C136.279 138.037 136.455 138.187 136.65 138.289C136.85 138.39 137.057 138.441 137.271 138.441C137.521 138.441 137.744 138.394 137.939 138.3C138.135 138.203 138.299 138.068 138.432 137.896C138.568 137.72 138.672 137.513 138.742 137.275C138.812 137.037 138.848 136.775 138.848 136.49C138.848 136.236 138.816 135.992 138.754 135.757C138.691 135.519 138.596 135.308 138.467 135.124C138.338 134.937 138.176 134.79 137.98 134.685C137.789 134.576 137.561 134.521 137.295 134.521C136.994 134.521 136.713 134.595 136.451 134.744C136.193 134.888 135.98 135.08 135.812 135.318C135.648 135.552 135.555 135.808 135.531 136.085L134.957 136.08C135.012 135.642 135.113 135.269 135.262 134.96C135.414 134.648 135.602 134.394 135.824 134.199C136.051 133.999 136.303 133.855 136.58 133.765C136.861 133.671 137.158 133.624 137.471 133.624C137.896 133.624 138.264 133.705 138.572 133.865C138.881 134.025 139.135 134.24 139.334 134.509C139.533 134.775 139.68 135.076 139.773 135.412C139.871 135.744 139.92 136.085 139.92 136.437C139.92 136.839 139.863 137.216 139.75 137.568C139.637 137.919 139.467 138.228 139.24 138.494C139.018 138.759 138.742 138.966 138.414 139.115C138.086 139.263 137.705 139.337 137.271 139.337C136.811 139.337 136.408 139.244 136.064 139.056C135.721 138.865 135.436 138.611 135.209 138.294C134.982 137.978 134.812 137.626 134.699 137.24C134.586 136.853 134.529 136.46 134.529 136.062V135.552C134.529 134.951 134.59 134.361 134.711 133.783C134.832 133.205 135.041 132.681 135.338 132.212C135.639 131.744 136.055 131.371 136.586 131.093C137.117 130.816 137.795 130.677 138.619 130.677ZM146.564 134.275V135.576C146.564 136.275 146.502 136.865 146.377 137.345C146.252 137.826 146.072 138.212 145.838 138.505C145.604 138.798 145.32 139.011 144.988 139.144C144.66 139.273 144.289 139.337 143.875 139.337C143.547 139.337 143.244 139.296 142.967 139.214C142.689 139.132 142.439 139.001 142.217 138.822C141.998 138.638 141.811 138.4 141.654 138.107C141.498 137.814 141.379 137.458 141.297 137.04C141.215 136.622 141.174 136.134 141.174 135.576V134.275C141.174 133.576 141.236 132.99 141.361 132.517C141.49 132.044 141.672 131.665 141.906 131.38C142.141 131.091 142.422 130.884 142.75 130.759C143.082 130.634 143.453 130.572 143.863 130.572C144.195 130.572 144.5 130.613 144.777 130.695C145.059 130.773 145.309 130.9 145.527 131.076C145.746 131.247 145.932 131.478 146.084 131.767C146.24 132.052 146.359 132.402 146.441 132.816C146.523 133.23 146.564 133.716 146.564 134.275ZM145.475 135.751V134.093C145.475 133.71 145.451 133.374 145.404 133.085C145.361 132.792 145.297 132.542 145.211 132.335C145.125 132.128 145.016 131.96 144.883 131.831C144.754 131.703 144.604 131.609 144.432 131.55C144.264 131.488 144.074 131.456 143.863 131.456C143.605 131.456 143.377 131.505 143.178 131.603C142.979 131.697 142.811 131.847 142.674 132.054C142.541 132.261 142.439 132.533 142.369 132.869C142.299 133.205 142.264 133.613 142.264 134.093V135.751C142.264 136.134 142.285 136.472 142.328 136.765C142.375 137.058 142.443 137.312 142.533 137.527C142.623 137.738 142.732 137.912 142.861 138.048C142.99 138.185 143.139 138.287 143.307 138.353C143.479 138.415 143.668 138.447 143.875 138.447C144.141 138.447 144.373 138.396 144.572 138.294C144.771 138.193 144.938 138.035 145.07 137.82C145.207 137.601 145.309 137.322 145.375 136.982C145.441 136.638 145.475 136.228 145.475 135.751Z" fill="#333333"/>
<path d="M180.541 211.936H181.314C181.693 211.936 182.006 211.873 182.252 211.748C182.502 211.62 182.688 211.446 182.809 211.227C182.934 211.004 182.996 210.754 182.996 210.477C182.996 210.149 182.941 209.873 182.832 209.651C182.723 209.428 182.559 209.26 182.34 209.147C182.121 209.034 181.844 208.977 181.508 208.977C181.203 208.977 180.934 209.037 180.699 209.159C180.469 209.276 180.287 209.444 180.154 209.662C180.025 209.881 179.961 210.139 179.961 210.436H178.877C178.877 210.002 178.986 209.608 179.205 209.252C179.424 208.897 179.73 208.614 180.125 208.403C180.523 208.192 180.984 208.086 181.508 208.086C182.023 208.086 182.475 208.178 182.861 208.362C183.248 208.541 183.549 208.811 183.764 209.17C183.979 209.526 184.086 209.969 184.086 210.5C184.086 210.715 184.035 210.946 183.934 211.192C183.836 211.434 183.682 211.661 183.471 211.871C183.264 212.082 182.994 212.256 182.662 212.393C182.33 212.526 181.932 212.592 181.467 212.592H180.541V211.936ZM180.541 212.827V212.176H181.467C182.01 212.176 182.459 212.241 182.814 212.37C183.17 212.498 183.449 212.67 183.652 212.885C183.859 213.1 184.004 213.336 184.086 213.594C184.172 213.848 184.215 214.102 184.215 214.356C184.215 214.754 184.146 215.108 184.01 215.416C183.877 215.725 183.688 215.987 183.441 216.202C183.199 216.416 182.914 216.578 182.586 216.688C182.258 216.797 181.9 216.852 181.514 216.852C181.143 216.852 180.793 216.799 180.465 216.694C180.141 216.588 179.854 216.436 179.604 216.237C179.354 216.034 179.158 215.786 179.018 215.493C178.877 215.196 178.807 214.858 178.807 214.479H179.891C179.891 214.776 179.955 215.036 180.084 215.258C180.217 215.481 180.404 215.655 180.646 215.78C180.893 215.901 181.182 215.961 181.514 215.961C181.846 215.961 182.131 215.905 182.369 215.791C182.611 215.674 182.797 215.498 182.926 215.264C183.059 215.03 183.125 214.735 183.125 214.379C183.125 214.024 183.051 213.733 182.902 213.506C182.754 213.276 182.543 213.106 182.27 212.996C182 212.883 181.682 212.827 181.314 212.827H180.541ZM191.088 214.426C191.088 214.946 190.967 215.387 190.725 215.75C190.486 216.11 190.162 216.383 189.752 216.571C189.346 216.758 188.887 216.852 188.375 216.852C187.863 216.852 187.402 216.758 186.992 216.571C186.582 216.383 186.258 216.11 186.02 215.75C185.781 215.387 185.662 214.946 185.662 214.426C185.662 214.086 185.727 213.776 185.855 213.495C185.988 213.209 186.174 212.961 186.412 212.75C186.654 212.539 186.939 212.377 187.268 212.264C187.6 212.147 187.965 212.088 188.363 212.088C188.887 212.088 189.354 212.19 189.764 212.393C190.174 212.592 190.496 212.868 190.73 213.219C190.969 213.571 191.088 213.973 191.088 214.426ZM189.998 214.403C189.998 214.086 189.93 213.807 189.793 213.565C189.656 213.319 189.465 213.127 189.219 212.991C188.973 212.854 188.688 212.786 188.363 212.786C188.031 212.786 187.744 212.854 187.502 212.991C187.264 213.127 187.078 213.319 186.945 213.565C186.812 213.807 186.746 214.086 186.746 214.403C186.746 214.731 186.811 215.012 186.939 215.246C187.072 215.477 187.26 215.655 187.502 215.78C187.748 215.901 188.039 215.961 188.375 215.961C188.711 215.961 189 215.901 189.242 215.78C189.484 215.655 189.67 215.477 189.799 215.246C189.932 215.012 189.998 214.731 189.998 214.403ZM190.889 210.424C190.889 210.838 190.779 211.211 190.561 211.543C190.342 211.875 190.043 212.137 189.664 212.328C189.285 212.52 188.855 212.616 188.375 212.616C187.887 212.616 187.451 212.52 187.068 212.328C186.689 212.137 186.393 211.875 186.178 211.543C185.963 211.211 185.855 210.838 185.855 210.424C185.855 209.928 185.963 209.506 186.178 209.159C186.396 208.811 186.695 208.545 187.074 208.362C187.453 208.178 187.885 208.086 188.369 208.086C188.857 208.086 189.291 208.178 189.67 208.362C190.049 208.545 190.346 208.811 190.561 209.159C190.779 209.506 190.889 209.928 190.889 210.424ZM189.805 210.442C189.805 210.157 189.744 209.905 189.623 209.686C189.502 209.467 189.334 209.295 189.119 209.17C188.904 209.041 188.654 208.977 188.369 208.977C188.084 208.977 187.834 209.037 187.619 209.159C187.408 209.276 187.242 209.444 187.121 209.662C187.004 209.881 186.945 210.141 186.945 210.442C186.945 210.735 187.004 210.991 187.121 211.209C187.242 211.428 187.41 211.598 187.625 211.719C187.84 211.84 188.09 211.901 188.375 211.901C188.66 211.901 188.908 211.84 189.119 211.719C189.334 211.598 189.502 211.428 189.623 211.209C189.744 210.991 189.805 210.735 189.805 210.442Z" fill="#333333"/>
<path d="M229.725 192.723V193.614H223.561V192.975L227.381 187.063H228.266L227.316 188.774L224.791 192.723H229.725ZM228.535 187.063V195.594H227.451V187.063H228.535ZM236.475 192.723V193.614H230.311V192.975L234.131 187.063H235.016L234.066 188.774L231.541 192.723H236.475ZM235.285 187.063V195.594H234.201V187.063H235.285Z" fill="#333333"/>
<path d="M275.396 338.522V347.1H274.312V339.876L272.127 340.672V339.694L275.227 338.522H275.396Z" fill="#333333"/>
<path d="M321.213 320.128C321.213 320.647 321.092 321.089 320.85 321.452C320.611 321.811 320.287 322.085 319.877 322.272C319.471 322.46 319.012 322.554 318.5 322.554C317.988 322.554 317.527 322.46 317.117 322.272C316.707 322.085 316.383 321.811 316.145 321.452C315.906 321.089 315.787 320.647 315.787 320.128C315.787 319.788 315.852 319.477 315.98 319.196C316.113 318.911 316.299 318.663 316.537 318.452C316.779 318.241 317.064 318.079 317.393 317.966C317.725 317.849 318.09 317.79 318.488 317.79C319.012 317.79 319.479 317.891 319.889 318.095C320.299 318.294 320.621 318.569 320.855 318.921C321.094 319.272 321.213 319.675 321.213 320.128ZM320.123 320.104C320.123 319.788 320.055 319.509 319.918 319.266C319.781 319.02 319.59 318.829 319.344 318.692C319.098 318.556 318.812 318.487 318.488 318.487C318.156 318.487 317.869 318.556 317.627 318.692C317.389 318.829 317.203 319.02 317.07 319.266C316.938 319.509 316.871 319.788 316.871 320.104C316.871 320.432 316.936 320.714 317.064 320.948C317.197 321.179 317.385 321.356 317.627 321.481C317.873 321.602 318.164 321.663 318.5 321.663C318.836 321.663 319.125 321.602 319.367 321.481C319.609 321.356 319.795 321.179 319.924 320.948C320.057 320.714 320.123 320.432 320.123 320.104ZM321.014 316.126C321.014 316.54 320.904 316.913 320.686 317.245C320.467 317.577 320.168 317.839 319.789 318.03C319.41 318.222 318.98 318.317 318.5 318.317C318.012 318.317 317.576 318.222 317.193 318.03C316.814 317.839 316.518 317.577 316.303 317.245C316.088 316.913 315.98 316.54 315.98 316.126C315.98 315.63 316.088 315.208 316.303 314.86C316.521 314.513 316.82 314.247 317.199 314.063C317.578 313.88 318.01 313.788 318.494 313.788C318.982 313.788 319.416 313.88 319.795 314.063C320.174 314.247 320.471 314.513 320.686 314.86C320.904 315.208 321.014 315.63 321.014 316.126ZM319.93 316.143C319.93 315.858 319.869 315.606 319.748 315.388C319.627 315.169 319.459 314.997 319.244 314.872C319.029 314.743 318.779 314.679 318.494 314.679C318.209 314.679 317.959 314.739 317.744 314.86C317.533 314.977 317.367 315.145 317.246 315.364C317.129 315.583 317.07 315.843 317.07 316.143C317.07 316.436 317.129 316.692 317.246 316.911C317.367 317.13 317.535 317.3 317.75 317.421C317.965 317.542 318.215 317.602 318.5 317.602C318.785 317.602 319.033 317.542 319.244 317.421C319.459 317.3 319.627 317.13 319.748 316.911C319.869 316.692 319.93 316.436 319.93 316.143Z" fill="#333333"/>
<path d="M360.973 84.8849V85.4942L357.439 93.4161H356.297L359.824 85.7755H355.207V84.8849H360.973ZM363.791 88.6173H364.564C364.943 88.6173 365.256 88.5548 365.502 88.4298C365.752 88.3009 365.938 88.127 366.059 87.9083C366.184 87.6856 366.246 87.4356 366.246 87.1583C366.246 86.8302 366.191 86.5548 366.082 86.3321C365.973 86.1095 365.809 85.9415 365.59 85.8282C365.371 85.7149 365.094 85.6583 364.758 85.6583C364.453 85.6583 364.184 85.7188 363.949 85.8399C363.719 85.9571 363.537 86.1251 363.404 86.3438C363.275 86.5626 363.211 86.8204 363.211 87.1173H362.127C362.127 86.6837 362.236 86.2892 362.455 85.9337C362.674 85.5782 362.98 85.295 363.375 85.0841C363.773 84.8731 364.234 84.7677 364.758 84.7677C365.273 84.7677 365.725 84.8595 366.111 85.0431C366.498 85.2227 366.799 85.4923 367.014 85.8517C367.229 86.2071 367.336 86.6505 367.336 87.1817C367.336 87.3966 367.285 87.627 367.184 87.8731C367.086 88.1153 366.932 88.3419 366.721 88.5528C366.514 88.7638 366.244 88.9376 365.912 89.0743C365.58 89.2071 365.182 89.2735 364.717 89.2735H363.791V88.6173ZM363.791 89.5079V88.8575H364.717C365.26 88.8575 365.709 88.922 366.064 89.0509C366.42 89.1798 366.699 89.3517 366.902 89.5665C367.109 89.7813 367.254 90.0177 367.336 90.2755C367.422 90.5294 367.465 90.7833 367.465 91.0372C367.465 91.4356 367.396 91.7892 367.26 92.0977C367.127 92.4063 366.938 92.6681 366.691 92.8829C366.449 93.0977 366.164 93.2599 365.836 93.3692C365.508 93.4786 365.15 93.5333 364.764 93.5333C364.393 93.5333 364.043 93.4806 363.715 93.3751C363.391 93.2696 363.104 93.1173 362.854 92.9181C362.604 92.7149 362.408 92.4669 362.268 92.1739C362.127 91.877 362.057 91.5392 362.057 91.1602H363.141C363.141 91.4571 363.205 91.7169 363.334 91.9395C363.467 92.1622 363.654 92.336 363.896 92.461C364.143 92.5821 364.432 92.6427 364.764 92.6427C365.096 92.6427 365.381 92.586 365.619 92.4727C365.861 92.3556 366.047 92.1798 366.176 91.9454C366.309 91.711 366.375 91.4161 366.375 91.0606C366.375 90.7052 366.301 90.4142 366.152 90.1876C366.004 89.9571 365.793 89.7872 365.52 89.6778C365.25 89.5645 364.932 89.5079 364.564 89.5079H363.791Z" fill="#333333"/>
<path d="M408.396 338.522V347.1H407.312V339.876L405.127 340.672V339.694L408.227 338.522H408.396Z" fill="#333333"/>
<path d="M450.049 272.218V273.109H444.465V272.33L447.26 269.218C447.604 268.836 447.869 268.511 448.057 268.246C448.248 267.976 448.381 267.736 448.455 267.525C448.533 267.31 448.572 267.091 448.572 266.869C448.572 266.587 448.514 266.334 448.396 266.107C448.283 265.877 448.115 265.693 447.893 265.556C447.67 265.419 447.4 265.351 447.084 265.351C446.705 265.351 446.389 265.425 446.135 265.574C445.885 265.718 445.697 265.921 445.572 266.183C445.447 266.445 445.385 266.746 445.385 267.086H444.301C444.301 266.605 444.406 266.166 444.617 265.767C444.828 265.369 445.141 265.052 445.555 264.818C445.969 264.58 446.479 264.461 447.084 264.461C447.623 264.461 448.084 264.556 448.467 264.748C448.85 264.935 449.143 265.201 449.346 265.544C449.553 265.884 449.656 266.283 449.656 266.74C449.656 266.99 449.613 267.244 449.527 267.502C449.445 267.755 449.33 268.009 449.182 268.263C449.037 268.517 448.867 268.767 448.672 269.013C448.48 269.259 448.275 269.502 448.057 269.74L445.771 272.218H450.049ZM456.799 272.218V273.109H451.215V272.33L454.01 269.218C454.354 268.836 454.619 268.511 454.807 268.246C454.998 267.976 455.131 267.736 455.205 267.525C455.283 267.31 455.322 267.091 455.322 266.869C455.322 266.587 455.264 266.334 455.146 266.107C455.033 265.877 454.865 265.693 454.643 265.556C454.42 265.419 454.15 265.351 453.834 265.351C453.455 265.351 453.139 265.425 452.885 265.574C452.635 265.718 452.447 265.921 452.322 266.183C452.197 266.445 452.135 266.746 452.135 267.086H451.051C451.051 266.605 451.156 266.166 451.367 265.767C451.578 265.369 451.891 265.052 452.305 264.818C452.719 264.58 453.229 264.461 453.834 264.461C454.373 264.461 454.834 264.556 455.217 264.748C455.6 264.935 455.893 265.201 456.096 265.544C456.303 265.884 456.406 266.283 456.406 266.74C456.406 266.99 456.363 267.244 456.277 267.502C456.195 267.755 456.08 268.009 455.932 268.263C455.787 268.517 455.617 268.767 455.422 269.013C455.23 269.259 455.025 269.502 454.807 269.74L452.521 272.218H456.799Z" fill="#333333"/>
<path d="M492.521 303.288V311.866H491.438V304.642L489.252 305.439V304.46L492.352 303.288H492.521ZM499.271 303.288V311.866H498.188V304.642L496.002 305.439V304.46L499.102 303.288H499.271Z" fill="#333333"/>
<path d="M538.225 199.77V200.661H532.061V200.022L535.881 194.11H536.766L535.816 195.821L533.291 199.77H538.225ZM537.035 194.11V202.641H535.951V194.11H537.035ZM544.799 201.751V202.641H539.215V201.862L542.01 198.751C542.354 198.368 542.619 198.044 542.807 197.778C542.998 197.508 543.131 197.268 543.205 197.057C543.283 196.842 543.322 196.624 543.322 196.401C543.322 196.12 543.264 195.866 543.146 195.639C543.033 195.409 542.865 195.225 542.643 195.088C542.42 194.952 542.15 194.883 541.834 194.883C541.455 194.883 541.139 194.958 540.885 195.106C540.635 195.251 540.447 195.454 540.322 195.715C540.197 195.977 540.135 196.278 540.135 196.618H539.051C539.051 196.137 539.156 195.698 539.367 195.299C539.578 194.901 539.891 194.585 540.305 194.35C540.719 194.112 541.229 193.993 541.834 193.993C542.373 193.993 542.834 194.088 543.217 194.28C543.6 194.467 543.893 194.733 544.096 195.077C544.303 195.417 544.406 195.815 544.406 196.272C544.406 196.522 544.363 196.776 544.277 197.034C544.195 197.288 544.08 197.542 543.932 197.795C543.787 198.049 543.617 198.299 543.422 198.545C543.23 198.792 543.025 199.034 542.807 199.272L540.521 201.751H544.799Z" fill="#333333"/>
</svg>
