<svg width="41" height="32" viewBox="0 0 41 32" fill="none" xmlns="http://www.w3.org/2000/svg">
<path d="M2.71408 4.87722C4.92612 3.98922 8.09796 3.03162 11.1823 2.73402C14.5066 2.41242 17.326 2.88522 18.9607 4.53882V27.9292C16.6237 26.6572 13.6618 26.482 10.9299 26.746C7.98049 27.034 5.0061 27.8524 2.71408 28.6924V4.87722ZM21.4602 4.53882C23.0948 2.88522 25.9143 2.41242 29.2386 2.73402C32.3229 3.03162 35.4948 3.98922 37.7068 4.87722V28.6924C35.4123 27.8524 32.4404 27.0316 29.491 26.7484C26.7566 26.482 23.7972 26.6548 21.4602 27.9292V4.53882ZM20.2104 2.36922C17.7485 0.336421 14.1792 0.0340216 10.9299 0.346022C7.14566 0.713221 3.32645 1.95882 0.946948 2.99802C0.728615 3.09337 0.54347 3.24703 0.413611 3.44066C0.283752 3.63429 0.214666 3.85971 0.2146 4.09002L0.2146 30.49C0.214658 30.6908 0.267182 30.8884 0.367361 31.0646C0.46754 31.2408 0.612171 31.3901 0.788007 31.4988C0.963844 31.6074 1.16526 31.672 1.37382 31.6865C1.58237 31.7011 1.79139 31.6651 1.98173 31.582C4.18627 30.622 7.73804 29.4676 11.1798 29.134C14.7016 28.7932 17.6535 29.3428 19.2356 31.2388C19.3528 31.379 19.5011 31.4921 19.6699 31.5698C19.8386 31.6475 20.0233 31.6879 20.2104 31.6879C20.3976 31.6879 20.5823 31.6475 20.751 31.5698C20.9198 31.4921 21.0681 31.379 21.1852 31.2388C22.7674 29.3428 25.7193 28.7932 29.2386 29.134C32.6829 29.4676 36.2371 30.622 38.4392 31.582C38.6295 31.6651 38.8385 31.7011 39.0471 31.6865C39.2556 31.672 39.457 31.6074 39.6329 31.4988C39.8087 31.3901 39.9534 31.2408 40.0535 31.0646C40.1537 30.8884 40.2062 30.6908 40.2063 30.49V4.09002C40.2062 3.85971 40.1371 3.63429 40.0073 3.44066C39.8774 3.24703 39.6923 3.09337 39.4739 2.99802C37.0944 1.95882 33.2752 0.713221 29.491 0.346022C26.2417 0.0316216 22.6724 0.336421 20.2104 2.36922Z" fill="#00778B"/>
</svg>
