<svg width="40" height="40" viewBox="0 0 40 40" fill="none" xmlns="http://www.w3.org/2000/svg">
<path fill-rule="evenodd" clip-rule="evenodd" d="M38.9022 0.536855C39.0923 0.647604 39.2492 0.802256 39.3581 0.986147C39.4669 1.17004 39.5241 1.37707 39.5242 1.58763V38.6736C39.5242 39.0015 39.386 39.3159 39.1399 39.5478C38.8938 39.7796 38.56 39.9098 38.212 39.9098H30.3385C29.9905 39.9098 29.6567 39.7796 29.4107 39.5478C29.1646 39.3159 29.0263 39.0015 29.0263 38.6736V34.965H26.4018V38.6736C26.4018 39.0015 26.2636 39.3159 26.0175 39.5478C25.7714 39.7796 25.4376 39.9098 25.0896 39.9098H1.46934C1.12131 39.9098 0.787542 39.7796 0.54145 39.5478C0.295358 39.3159 0.157104 39.0015 0.157104 38.6736V25.0754C0.157314 24.8161 0.244101 24.5634 0.405183 24.3531C0.566265 24.1427 0.793482 23.9855 1.05467 23.9035L15.9039 19.2406V11.4772C15.904 11.2478 15.9717 11.023 16.0996 10.8278C16.2276 10.6326 16.4106 10.4748 16.6283 10.3721L37.6241 0.482462C37.8243 0.38803 38.0469 0.343454 38.2707 0.352975C38.4944 0.362496 38.7118 0.425797 38.9022 0.536855ZM15.9039 21.8465L2.78158 25.9655V37.4374H15.9039V21.8465ZM18.5284 37.4374H23.7774V33.7288C23.7774 33.401 23.9156 33.0865 24.1617 32.8547C24.4078 32.6229 24.7416 32.4926 25.0896 32.4926H30.3385C30.6866 32.4926 31.0203 32.6229 31.2664 32.8547C31.5125 33.0865 31.6508 33.401 31.6508 33.7288V37.4374H36.8997V3.5878L18.5284 12.2412V37.4374Z" fill="#00778B"/>
<path d="M5.40613 27.5481H8.0306V30.0205H5.40613V27.5481ZM10.6551 27.5481H13.2795V30.0205H10.6551V27.5481ZM5.40613 32.4929H8.0306V34.9653H5.40613V32.4929ZM10.6551 32.4929H13.2795V34.9653H10.6551V32.4929ZM21.153 22.6033H23.7774V25.0757H21.153V22.6033ZM26.4019 22.6033H29.0264V25.0757H26.4019V22.6033ZM21.153 27.5481H23.7774V30.0205H21.153V27.5481ZM26.4019 27.5481H29.0264V30.0205H26.4019V27.5481ZM31.6509 22.6033H34.2753V25.0757H31.6509V22.6033ZM31.6509 27.5481H34.2753V30.0205H31.6509V27.5481ZM21.153 17.6585H23.7774V20.1309H21.153V17.6585ZM26.4019 17.6585H29.0264V20.1309H26.4019V17.6585ZM31.6509 17.6585H34.2753V20.1309H31.6509V17.6585ZM21.153 12.7137H23.7774V15.1861H21.153V12.7137ZM26.4019 12.7137H29.0264V15.1861H26.4019V12.7137ZM31.6509 12.7137H34.2753V15.1861H31.6509V12.7137ZM31.6509 7.76889H34.2753V10.2413H31.6509V7.76889Z" fill="#00778B"/>
</svg>
