<svg width="16" height="19" viewBox="0 0 16 19" fill="none" xmlns="http://www.w3.org/2000/svg">
<path d="M4.92398 7.08179C5.08719 7.08179 5.24371 7.1479 5.35912 7.26557C5.47453 7.38324 5.53936 7.54284 5.53936 7.70926V15.2389C5.53936 15.4053 5.47453 15.5649 5.35912 15.6826C5.24371 15.8002 5.08719 15.8664 4.92398 15.8664C4.76077 15.8664 4.60424 15.8002 4.48884 15.6826C4.37343 15.5649 4.30859 15.4053 4.30859 15.2389V7.70926C4.30859 7.54284 4.37343 7.38324 4.48884 7.26557C4.60424 7.1479 4.76077 7.08179 4.92398 7.08179ZM8.0009 7.08179C8.16411 7.08179 8.32064 7.1479 8.43604 7.26557C8.55145 7.38324 8.61629 7.54284 8.61629 7.70926V15.2389C8.61629 15.4053 8.55145 15.5649 8.43604 15.6826C8.32064 15.8002 8.16411 15.8664 8.0009 15.8664C7.83769 15.8664 7.68117 15.8002 7.56576 15.6826C7.45035 15.5649 7.38552 15.4053 7.38552 15.2389V7.70926C7.38552 7.54284 7.45035 7.38324 7.56576 7.26557C7.68117 7.1479 7.83769 7.08179 8.0009 7.08179ZM11.6932 7.70926C11.6932 7.54284 11.6284 7.38324 11.513 7.26557C11.3976 7.1479 11.241 7.08179 11.0778 7.08179C10.9146 7.08179 10.7581 7.1479 10.6427 7.26557C10.5273 7.38324 10.4624 7.54284 10.4624 7.70926V15.2389C10.4624 15.4053 10.5273 15.5649 10.6427 15.6826C10.7581 15.8002 10.9146 15.8664 11.0778 15.8664C11.241 15.8664 11.3976 15.8002 11.513 15.6826C11.6284 15.5649 11.6932 15.4053 11.6932 15.2389V7.70926Z" fill="#FF5252"/>
<path fill-rule="evenodd" clip-rule="evenodd" d="M16 3.9445C16 4.27733 15.8703 4.59653 15.6395 4.83188C15.4087 5.06722 15.0957 5.19944 14.7692 5.19944H14.1538V16.4939C14.1538 17.1595 13.8945 17.7979 13.4329 18.2686C12.9713 18.7393 12.3451 19.0038 11.6923 19.0038H4.30769C3.65485 19.0038 3.02875 18.7393 2.56712 18.2686C2.10549 17.7979 1.84615 17.1595 1.84615 16.4939V5.19944H1.23077C0.904349 5.19944 0.591298 5.06722 0.360484 4.83188C0.12967 4.59653 0 4.27733 0 3.9445V2.68956C0 2.35673 0.12967 2.03754 0.360484 1.80219C0.591298 1.56684 0.904349 1.43463 1.23077 1.43463H5.53846C5.53846 1.1018 5.66813 0.782597 5.89895 0.54725C6.12976 0.311904 6.44281 0.179688 6.76923 0.179688L9.23077 0.179688C9.55719 0.179688 9.87024 0.311904 10.1011 0.54725C10.3319 0.782597 10.4615 1.1018 10.4615 1.43463H14.7692C15.0957 1.43463 15.4087 1.56684 15.6395 1.80219C15.8703 2.03754 16 2.35673 16 2.68956V3.9445ZM3.22215 5.19944L3.07692 5.27348V16.4939C3.07692 16.8267 3.20659 17.1459 3.43741 17.3813C3.66822 17.6166 3.98127 17.7488 4.30769 17.7488H11.6923C12.0187 17.7488 12.3318 17.6166 12.5626 17.3813C12.7934 17.1459 12.9231 16.8267 12.9231 16.4939V5.27348L12.7778 5.19944H3.22215ZM1.23077 3.9445V2.68956H14.7692V3.9445H1.23077Z" fill="#FF5252"/>
</svg>
