<svg width="15" height="16" viewBox="0 0 15 16" fill="none" xmlns="http://www.w3.org/2000/svg">
<path d="M4.75002 5.86666C4.8961 5.86666 5.0362 5.92286 5.1395 6.02287C5.2428 6.12289 5.30083 6.25855 5.30083 6.4V12.8C5.30083 12.9414 5.2428 13.0771 5.1395 13.1771C5.0362 13.2771 4.8961 13.3333 4.75002 13.3333C4.60394 13.3333 4.46384 13.2771 4.36055 13.1771C4.25725 13.0771 4.19922 12.9414 4.19922 12.8V6.4C4.19922 6.25855 4.25725 6.12289 4.36055 6.02287C4.46384 5.92286 4.60394 5.86666 4.75002 5.86666ZM7.50404 5.86666C7.65012 5.86666 7.79022 5.92286 7.89352 6.02287C7.99681 6.12289 8.05484 6.25855 8.05484 6.4V12.8C8.05484 12.9414 7.99681 13.0771 7.89352 13.1771C7.79022 13.2771 7.65012 13.3333 7.50404 13.3333C7.35796 13.3333 7.21786 13.2771 7.11456 13.1771C7.01127 13.0771 6.95324 12.9414 6.95324 12.8V6.4C6.95324 6.25855 7.01127 6.12289 7.11456 6.02287C7.21786 5.92286 7.35796 5.86666 7.50404 5.86666ZM10.8089 6.4C10.8089 6.25855 10.7508 6.12289 10.6475 6.02287C10.5442 5.92286 10.4041 5.86666 10.2581 5.86666C10.112 5.86666 9.97188 5.92286 9.86858 6.02287C9.76529 6.12289 9.70726 6.25855 9.70726 6.4V12.8C9.70726 12.9414 9.76529 13.0771 9.86858 13.1771C9.97188 13.2771 10.112 13.3333 10.2581 13.3333C10.4041 13.3333 10.5442 13.2771 10.6475 13.1771C10.7508 13.0771 10.8089 12.9414 10.8089 12.8V6.4Z" fill="white"/>
<path fill-rule="evenodd" clip-rule="evenodd" d="M14.6627 3.2C14.6627 3.4829 14.5466 3.75421 14.34 3.95425C14.1335 4.15429 13.8533 4.26667 13.5611 4.26667H13.0103V13.8667C13.0103 14.4325 12.7782 14.9751 12.365 15.3752C11.9518 15.7752 11.3914 16 10.8071 16H4.19742C3.61309 16 3.0527 15.7752 2.63951 15.3752C2.22633 14.9751 1.99421 14.4325 1.99421 13.8667V4.26667H1.4434C1.15124 4.26667 0.871042 4.15429 0.66445 3.95425C0.457859 3.75421 0.341797 3.4829 0.341797 3.2V2.13333C0.341797 1.85044 0.457859 1.57912 0.66445 1.37909C0.871042 1.17905 1.15124 1.06667 1.4434 1.06667H5.29903C5.29903 0.783769 5.41509 0.512458 5.62168 0.312419C5.82828 0.112381 6.10847 0 6.40064 0L8.60385 0C8.89602 0 9.17622 0.112381 9.38281 0.312419C9.5894 0.512458 9.70546 0.783769 9.70546 1.06667H13.5611C13.8533 1.06667 14.1335 1.17905 14.34 1.37909C14.5466 1.57912 14.6627 1.85044 14.6627 2.13333V3.2ZM3.22581 4.26667L3.09582 4.3296V13.8667C3.09582 14.1496 3.21188 14.4209 3.41847 14.6209C3.62506 14.821 3.90526 14.9333 4.19742 14.9333H10.8071C11.0992 14.9333 11.3794 14.821 11.586 14.6209C11.7926 14.4209 11.9087 14.1496 11.9087 13.8667V4.3296L11.7787 4.26667H3.22581ZM1.4434 3.2V2.13333H13.5611V3.2H1.4434Z" fill="white"/>
</svg>


