<svg width="24" height="18" viewBox="0 0 24 18" fill="none" xmlns="http://www.w3.org/2000/svg">
<path fill-rule="evenodd" clip-rule="evenodd" d="M6.85714 15.4286C6.85714 15.2012 6.94745 14.9832 7.10819 14.8225C7.26894 14.6617 7.48696 14.5714 7.71429 14.5714H23.1429C23.3702 14.5714 23.5882 14.6617 23.7489 14.8225C23.9097 14.9832 24 15.2012 24 15.4286C24 15.6559 23.9097 15.8739 23.7489 16.0347C23.5882 16.1954 23.3702 16.2857 23.1429 16.2857H7.71429C7.48696 16.2857 7.26894 16.1954 7.10819 16.0347C6.94745 15.8739 6.85714 15.6559 6.85714 15.4286ZM6.85714 8.57143C6.85714 8.3441 6.94745 8.12608 7.10819 7.96534C7.26894 7.80459 7.48696 7.71429 7.71429 7.71429H23.1429C23.3702 7.71429 23.5882 7.80459 23.7489 7.96534C23.9097 8.12608 24 8.3441 24 8.57143C24 8.79876 23.9097 9.01677 23.7489 9.17752C23.5882 9.33827 23.3702 9.42857 23.1429 9.42857H7.71429C7.48696 9.42857 7.26894 9.33827 7.10819 9.17752C6.94745 9.01677 6.85714 8.79876 6.85714 8.57143ZM6.85714 1.71429C6.85714 1.48696 6.94745 1.26894 7.10819 1.10819C7.26894 0.947449 7.48696 0.857143 7.71429 0.857143H23.1429C23.3702 0.857143 23.5882 0.947449 23.7489 1.10819C23.9097 1.26894 24 1.48696 24 1.71429C24 1.94161 23.9097 2.15963 23.7489 2.32038C23.5882 2.48112 23.3702 2.57143 23.1429 2.57143H7.71429C7.48696 2.57143 7.26894 2.48112 7.10819 2.32038C6.94745 2.15963 6.85714 1.94161 6.85714 1.71429ZM1.71429 3.42857C2.16894 3.42857 2.60498 3.24796 2.92647 2.92647C3.24796 2.60498 3.42857 2.16894 3.42857 1.71429C3.42857 1.25963 3.24796 0.823593 2.92647 0.502103C2.60498 0.180612 2.16894 0 1.71429 0C1.25963 0 0.823593 0.180612 0.502103 0.502103C0.180612 0.823593 0 1.25963 0 1.71429C0 2.16894 0.180612 2.60498 0.502103 2.92647C0.823593 3.24796 1.25963 3.42857 1.71429 3.42857ZM1.71429 10.2857C2.16894 10.2857 2.60498 10.1051 2.92647 9.78361C3.24796 9.46212 3.42857 9.02608 3.42857 8.57143C3.42857 8.11677 3.24796 7.68074 2.92647 7.35925C2.60498 7.03775 2.16894 6.85714 1.71429 6.85714C1.25963 6.85714 0.823593 7.03775 0.502103 7.35925C0.180612 7.68074 0 8.11677 0 8.57143C0 9.02608 0.180612 9.46212 0.502103 9.78361C0.823593 10.1051 1.25963 10.2857 1.71429 10.2857ZM1.71429 17.1429C2.16894 17.1429 2.60498 16.9622 2.92647 16.6408C3.24796 16.3193 3.42857 15.8832 3.42857 15.4286C3.42857 14.9739 3.24796 14.5379 2.92647 14.2164C2.60498 13.8949 2.16894 13.7143 1.71429 13.7143C1.25963 13.7143 0.823593 13.8949 0.502103 14.2164C0.180612 14.5379 0 14.9739 0 15.4286C0 15.8832 0.180612 16.3193 0.502103 16.6408C0.823593 16.9622 1.25963 17.1429 1.71429 17.1429Z" fill="#606060"/>
</svg>
