<svg width="79" height="66" viewBox="0 0 79 66" fill="none" xmlns="http://www.w3.org/2000/svg">
<path d="M73.0993 0.0596924H5.34873C3.93016 0.0596924 2.56969 0.638369 1.56661 1.66842C0.563525 2.69847 0 4.09552 0 5.55223V60.4776C0 61.9343 0.563525 63.3314 1.56661 64.3614C2.56969 65.3915 3.93016 65.9701 5.34873 65.9701H73.0993C74.5178 65.9701 75.8783 65.3915 76.8814 64.3614C77.8845 63.3314 78.448 61.9343 78.448 60.4776V5.55223C78.448 4.09552 77.8845 2.69847 76.8814 1.66842C75.8783 0.638369 74.5178 0.0596924 73.0993 0.0596924ZM50.599 34.5345L64.1847 20.9313L74.8822 31.6601V58.9031L50.599 34.5345ZM5.34873 3.72138H73.0993C73.5721 3.72138 74.0256 3.91428 74.36 4.25763C74.6943 4.60098 74.8822 5.06666 74.8822 5.55223V26.5337L65.4328 17.0499C65.0995 16.7145 64.6514 16.5266 64.1847 16.5266C63.718 16.5266 63.27 16.7145 62.9367 17.0499L48.0316 31.9713L40.472 24.3733C40.1388 24.0379 39.6907 23.85 39.224 23.85C38.7573 23.85 38.3092 24.0379 37.976 24.3733L3.56582 58.8298V5.55223C3.56582 5.06666 3.75366 4.60098 4.08802 4.25763C4.42238 3.91428 4.87587 3.72138 5.34873 3.72138ZM5.34873 62.3084H5.22392L39.224 28.2547L73.0993 62.3084H5.34873ZM16.0462 25.6915C17.8093 25.6915 19.5328 25.1546 20.9988 24.1488C22.4648 23.1429 23.6074 21.7132 24.2821 20.0405C24.9569 18.3678 25.1334 16.5271 24.7894 14.7514C24.4455 12.9757 23.5964 11.3445 22.3497 10.0643C21.103 8.78405 19.5146 7.91219 17.7853 7.55897C16.0561 7.20575 14.2637 7.38704 12.6347 8.0799C11.0058 8.77276 9.61355 9.94608 8.63401 11.4515C7.65446 12.9569 7.13164 14.7268 7.13164 16.5373C7.13164 18.9652 8.07084 21.2936 9.74265 23.0103C11.4144 24.7271 13.6819 25.6915 16.0462 25.6915ZM16.0462 11.0448C17.1041 11.0448 18.1382 11.3669 19.0178 11.9704C19.8974 12.574 20.5829 13.4318 20.9878 14.4354C21.3926 15.439 21.4985 16.5434 21.2921 17.6088C21.0858 18.6743 20.5763 19.653 19.8283 20.4211C19.0803 21.1893 18.1272 21.7124 17.0897 21.9243C16.0521 22.1362 14.9767 22.0275 13.9993 21.6117C13.022 21.196 12.1866 20.492 11.5989 19.5888C11.0112 18.6855 10.6975 17.6236 10.6975 16.5373C10.6975 15.0806 11.261 13.6835 12.2641 12.6535C13.2671 11.6234 14.6276 11.0448 16.0462 11.0448Z" fill="#E3E5F5"/>
</svg>
