<svg width="20" height="12" viewBox="0 0 20 12" fill="none" xmlns="http://www.w3.org/2000/svg">
<path fill-rule="evenodd" clip-rule="evenodd" d="M0.412457 6.41246C0.303067 6.30307 0.241612 6.1547 0.241612 6C0.241612 5.8453 0.303067 5.69693 0.412457 5.58754L5.36194 0.638056C5.47133 0.528665 5.6197 0.46721 5.7744 0.46721C5.9291 0.46721 6.07747 0.528665 6.18686 0.638055C6.29625 0.747446 6.3577 0.895811 6.3577 1.05051C6.3577 1.20521 6.29625 1.35358 6.18686 1.46297L2.23304 5.41679L18.973 5.41596C19.1279 5.41596 19.2765 5.47749 19.386 5.58702C19.4955 5.69655 19.5571 5.8451 19.5571 6C19.5571 6.1549 19.4955 6.30345 19.386 6.41298C19.2765 6.52251 19.1279 6.58404 18.973 6.58404L2.23304 6.58321L6.18686 10.537C6.29625 10.6464 6.3577 10.7948 6.3577 10.9495C6.3577 11.1042 6.29625 11.2526 6.18686 11.3619C6.07747 11.4713 5.9291 11.5328 5.7744 11.5328C5.6197 11.5328 5.47133 11.4713 5.36194 11.3619L0.412457 6.41246Z" fill="black"/>
</svg>
