<svg width="16" height="17" viewBox="0 0 16 17" fill="none" xmlns="http://www.w3.org/2000/svg">
<path d="M12.1453 0.223807C12.1917 0.177246 12.2469 0.140304 12.3076 0.115099C12.3684 0.0898938 12.4335 0.0769196 12.4993 0.0769196C12.565 0.0769196 12.6301 0.0898938 12.6909 0.115099C12.7516 0.140304 12.8068 0.177246 12.8532 0.223807L15.8531 3.22368C15.8997 3.27012 15.9366 3.32529 15.9618 3.38603C15.987 3.44678 16 3.5119 16 3.57766C16 3.64342 15.987 3.70854 15.9618 3.76929C15.9366 3.83003 15.8997 3.8852 15.8531 3.93164L5.85355 13.9312C5.80557 13.9789 5.74842 14.0163 5.68556 14.0412L0.685776 16.0411C0.594916 16.0775 0.49538 16.0864 0.399508 16.0667C0.303636 16.0471 0.215644 15.9997 0.14644 15.9305C0.0772369 15.8613 0.0298655 15.7733 0.0101989 15.6774C-0.00946768 15.5815 -0.000564569 15.482 0.0358045 15.3911L2.03572 10.3914C2.06064 10.3285 2.09806 10.2714 2.14571 10.2234L12.1453 0.223807ZM11.2063 2.5777L13.4992 4.8706L14.7922 3.57766L12.4993 1.28476L11.2063 2.5777ZM12.7922 5.57757L10.4993 3.28467L3.99963 9.78439V10.0774H4.49961C4.63221 10.0774 4.75938 10.1301 4.85315 10.2238C4.94691 10.3176 4.99959 10.4448 4.99959 10.5774V11.0773H5.49957C5.63217 11.0773 5.75934 11.13 5.8531 11.2238C5.94687 11.3175 5.99954 11.4447 5.99954 11.5773V12.0773H6.29253L12.7922 5.57757ZM3.03167 10.7523L2.92568 10.8583L1.39774 14.6792L5.21858 13.1512L5.32457 13.0452C5.2292 13.0096 5.14697 12.9457 5.0889 12.8621C5.03082 12.7784 4.99966 12.6791 4.99959 12.5773V12.0773H4.49961C4.36701 12.0773 4.23984 12.0246 4.14607 11.9308C4.05231 11.8371 3.99963 11.7099 3.99963 11.5773V11.0773H3.49965C3.39784 11.0773 3.29847 11.0461 3.21484 10.988C3.13121 10.9299 3.06731 10.8477 3.03167 10.7523Z" fill="#A3A3A3"/>
</svg>
