<svg width="18" height="16" viewBox="0 0 18 16" fill="none" xmlns="http://www.w3.org/2000/svg">
<path d="M13.4748 0.146887C13.5227 0.100326 13.5797 0.0633849 13.6424 0.0381796C13.7052 0.0129742 13.7724 0 13.8403 0C13.9083 0 13.9755 0.0129742 14.0382 0.0381796C14.101 0.0633849 14.158 0.100326 14.2059 0.146887L17.3041 3.14676C17.3521 3.1932 17.3903 3.24837 17.4163 3.30912C17.4424 3.36986 17.4558 3.43498 17.4558 3.50074C17.4558 3.56651 17.4424 3.63162 17.4163 3.69237C17.3903 3.75311 17.3521 3.80828 17.3041 3.85473L6.97694 13.8543C6.92738 13.9019 6.86836 13.9394 6.80344 13.9643L1.63988 15.9642C1.54604 16.0006 1.44325 16.0095 1.34424 15.9898C1.24522 15.9701 1.15435 15.9228 1.08288 15.8536C1.01141 15.7844 0.962484 15.6964 0.942174 15.6005C0.921863 15.5046 0.931058 15.4051 0.968618 15.3142L3.03404 10.3144C3.05979 10.2516 3.09843 10.1944 3.14764 10.1465L13.4748 0.146887ZM12.505 2.50078L14.8731 4.79368L16.2083 3.50074L13.8403 1.20784L12.505 2.50078ZM14.1429 5.50065L11.7749 3.20775L5.06229 9.70747V10.0005H5.57864C5.71559 10.0005 5.84693 10.0531 5.94376 10.1469C6.0406 10.2407 6.095 10.3678 6.095 10.5004V11.0004H6.61136C6.7483 11.0004 6.87964 11.0531 6.97647 11.1469C7.07331 11.2406 7.12771 11.3678 7.12771 11.5004V12.0004H7.4303L14.1429 5.50065ZM4.06262 10.6754L3.95316 10.7814L2.37517 14.6023L6.32116 13.0743L6.43063 12.9683C6.33213 12.9327 6.24721 12.8688 6.18724 12.7852C6.12726 12.7015 6.09508 12.6022 6.095 12.5003V12.0004H5.57864C5.4417 12.0004 5.31036 11.9477 5.21353 11.8539C5.11669 11.7602 5.06229 11.633 5.06229 11.5004V11.0004H4.54593C4.44078 11.0003 4.33816 10.9692 4.25179 10.9111C4.16542 10.853 4.09943 10.7708 4.06262 10.6754Z" fill="white"/>
</svg>
