<svg width="16" height="17" viewBox="0 0 16 17" fill="none" xmlns="http://www.w3.org/2000/svg">
<path d="M12.1453 0.349235C12.1917 0.301759 12.2469 0.264093 12.3076 0.238392C12.3684 0.212692 12.4335 0.199463 12.4993 0.199463C12.565 0.199463 12.6301 0.212692 12.6909 0.238392C12.7516 0.264093 12.8068 0.301759 12.8532 0.349235L15.8531 3.40801C15.8997 3.45537 15.9366 3.51163 15.9618 3.57356C15.987 3.6355 16 3.70189 16 3.76895C16 3.83601 15.987 3.9024 15.9618 3.96434C15.9366 4.02627 15.8997 4.08253 15.8531 4.12989L5.85355 14.3258C5.80557 14.3744 5.74842 14.4126 5.68556 14.438L0.685776 16.4772C0.594916 16.5142 0.49538 16.5233 0.399508 16.5033C0.303636 16.4832 0.215644 16.4349 0.14644 16.3643C0.0772369 16.2938 0.0298655 16.2041 0.0101989 16.1063C-0.00946768 16.0086 -0.000564569 15.9071 0.0358045 15.8144L2.03572 10.7165C2.06064 10.6524 2.09806 10.5941 2.14571 10.5452L12.1453 0.349235ZM11.2063 2.74936L13.4992 5.08728L14.7922 3.76895L12.4993 1.43102L11.2063 2.74936ZM12.7922 5.80814L10.4993 3.47021L3.99963 10.0976V10.3963H4.49961C4.63221 10.3963 4.75938 10.45 4.85315 10.5456C4.94691 10.6412 4.99959 10.7709 4.99959 10.9061V11.4159H5.49957C5.63217 11.4159 5.75934 11.4696 5.8531 11.5652C5.94687 11.6608 5.99954 11.7905 5.99954 11.9257V12.4355H6.29253L12.7922 5.80814ZM3.03167 11.0845L2.92568 11.1926L1.39774 15.0885L5.21858 13.5305L5.32457 13.4225C5.2292 13.3861 5.14697 13.321 5.0889 13.2357C5.03082 13.1504 4.99966 13.0491 4.99959 12.9453V12.4355H4.49961C4.36701 12.4355 4.23984 12.3818 4.14607 12.2862C4.05231 12.1906 3.99963 12.0609 3.99963 11.9257V11.4159H3.49965C3.39784 11.4158 3.29847 11.384 3.21484 11.3248C3.13121 11.2656 3.06731 11.1818 3.03167 11.0845Z" fill="#00778B"/>
</svg>
