<svg width="47" height="33" viewBox="0 0 47 33" fill="none" xmlns="http://www.w3.org/2000/svg">
<path d="M43.3538 32.9201C43.3538 32.9201 46.1866 32.9201 46.1866 30.2001C46.1866 27.4801 43.3538 19.3201 32.0229 19.3201C20.6919 19.3201 17.8591 27.4801 17.8591 30.2001C17.8591 32.9201 20.6919 32.9201 20.6919 32.9201H43.3538ZM20.7542 30.2001C20.7333 30.1973 20.7125 30.1937 20.6919 30.1892C20.6947 29.4712 21.165 27.3876 22.8448 25.5108C24.4084 23.751 27.1562 22.0401 32.0229 22.0401C36.8867 22.0401 39.6345 23.7537 41.201 25.5108C42.8808 27.3876 43.3482 29.4739 43.3538 30.1892L43.3312 30.1947C43.318 30.1968 43.3048 30.1986 43.2915 30.2001H20.7542ZM32.0229 13.8801C33.5254 13.8801 34.9665 13.307 36.029 12.2868C37.0915 11.2666 37.6884 9.8829 37.6884 8.44012C37.6884 6.99734 37.0915 5.61366 36.029 4.59346C34.9665 3.57326 33.5254 3.00012 32.0229 3.00012C30.5203 3.00012 29.0792 3.57326 28.0168 4.59346C26.9543 5.61366 26.3574 6.99734 26.3574 8.44012C26.3574 9.8829 26.9543 11.2666 28.0168 12.2868C29.0792 13.307 30.5203 13.8801 32.0229 13.8801ZM40.5211 8.44012C40.5211 9.51171 40.3013 10.5728 39.8742 11.5628C39.4471 12.5528 38.8212 13.4524 38.032 14.2101C37.2429 14.9678 36.3061 15.5689 35.275 15.979C34.2439 16.3891 33.1389 16.6001 32.0229 16.6001C30.9069 16.6001 29.8018 16.3891 28.7707 15.979C27.7397 15.5689 26.8028 14.9678 26.0137 14.2101C25.2246 13.4524 24.5986 12.5528 24.1715 11.5628C23.7444 10.5728 23.5246 9.51171 23.5246 8.44012C23.5246 6.27595 24.42 4.20043 26.0137 2.67013C27.6074 1.13983 29.769 0.280121 32.0229 0.280121C34.2767 0.280121 36.4383 1.13983 38.032 2.67013C39.6258 4.20043 40.5211 6.27595 40.5211 8.44012ZM20.5106 20.0817C19.3774 19.7391 18.2094 19.5139 17.0263 19.4099C16.3616 19.3492 15.6941 19.3192 15.0264 19.3201C3.69542 19.3201 0.862671 27.4801 0.862671 30.2001C0.862671 32.0144 1.80598 32.9201 3.69542 32.9201H15.6383C15.2183 32.071 15.0089 31.14 15.0264 30.2001C15.0264 27.4529 16.0943 24.6459 18.1141 22.3012C18.8024 21.5016 19.6041 20.7536 20.5106 20.0817ZM14.7998 22.0401C13.1232 24.4589 12.2176 27.2947 12.1937 30.2001H3.69542C3.69542 29.4929 4.15999 27.3985 5.8483 25.5108C7.39215 23.7809 10.0748 22.0945 14.7998 22.0428V22.0401ZM5.11179 9.80012C5.11179 7.63595 6.00714 5.56043 7.60086 4.03013C9.19459 2.49983 11.3562 1.64012 13.61 1.64012C15.8639 1.64012 18.0255 2.49983 19.6192 4.03013C21.2129 5.56043 22.1083 7.63595 22.1083 9.80012C22.1083 11.9643 21.2129 14.0398 19.6192 15.5701C18.0255 17.1004 15.8639 17.9601 13.61 17.9601C11.3562 17.9601 9.19459 17.1004 7.60086 15.5701C6.00714 14.0398 5.11179 11.9643 5.11179 9.80012ZM13.61 4.36012C12.1074 4.36012 10.6664 4.93326 9.60392 5.95346C8.54143 6.97366 7.94453 8.35734 7.94453 9.80012C7.94453 11.2429 8.54143 12.6266 9.60392 13.6468C10.6664 14.667 12.1074 15.2401 13.61 15.2401C15.1126 15.2401 16.5536 14.667 17.6161 13.6468C18.6786 12.6266 19.2755 11.2429 19.2755 9.80012C19.2755 8.35734 18.6786 6.97366 17.6161 5.95346C16.5536 4.93326 15.1126 4.36012 13.61 4.36012Z" fill="#00778B"/>
</svg>

