<svg width="41" height="36" viewBox="0 0 41 36" fill="none" xmlns="http://www.w3.org/2000/svg">
<path d="M10.4751 35.5552C10.4751 35.5552 7.97559 35.5552 7.97559 33.2006C7.97559 30.8459 10.4751 23.782 20.473 23.782C30.4709 23.782 32.9704 30.8459 32.9704 33.2006C32.9704 35.5552 30.4709 35.5552 30.4709 35.5552H10.4751ZM20.473 21.5451C22.1302 21.5451 23.7196 20.9249 24.8915 19.8209C26.0633 18.717 26.7217 17.2197 26.7217 15.6584C26.7217 14.0972 26.0633 12.5999 24.8915 11.496C23.7196 10.392 22.1302 9.77182 20.473 9.77182C18.8157 9.77182 17.2263 10.392 16.0545 11.496C14.8826 12.5999 14.2243 14.0972 14.2243 15.6584C14.2243 17.2197 14.8826 18.717 16.0545 19.8209C17.2263 20.9249 18.8157 21.5451 20.473 21.5451Z" fill="#00778B"/>
<path d="M5.47613 0.235382C4.15033 0.235382 2.87882 0.731539 1.94133 1.6147C1.00385 2.49787 0.477173 3.6957 0.477173 4.94468L0.477173 27.3139C0.477173 28.2506 0.872179 29.149 1.57529 29.8113C2.27841 30.4737 3.23204 30.8458 4.22639 30.8458H5.85856C6.3831 29.1162 7.29124 27.5111 8.523 26.1365H2.97665V4.94468C2.97665 4.32019 3.23999 3.72128 3.70873 3.27969C4.17748 2.83811 4.81323 2.59003 5.47613 2.59003H35.4699C36.1328 2.59003 36.7686 2.83811 37.2373 3.27969C37.706 3.72128 37.9694 4.32019 37.9694 4.94468V26.1365H32.423C33.8077 27.6765 34.6476 29.3695 35.0875 30.8458H36.7196C37.714 30.8458 38.6676 30.4737 39.3707 29.8113C40.0739 29.149 40.4689 28.2506 40.4689 27.3139V4.94468C40.4689 3.6957 39.9422 2.49787 39.0047 1.6147C38.0672 0.731539 36.7957 0.235382 35.4699 0.235382H5.47613Z" fill="#00778B"/>
</svg>
