<svg width="24" height="24" viewBox="0 0 24 24" fill="none" xmlns="http://www.w3.org/2000/svg">
<path d="M0 2.57143C0 1.88944 0.270918 1.23539 0.753154 0.753154C1.23539 0.270918 1.88944 0 2.57143 0H7.71429C8.39627 0 9.05032 0.270918 9.53256 0.753154C10.0148 1.23539 10.2857 1.88944 10.2857 2.57143V7.71429C10.2857 8.39627 10.0148 9.05032 9.53256 9.53256C9.05032 10.0148 8.39627 10.2857 7.71429 10.2857H2.57143C1.88944 10.2857 1.23539 10.0148 0.753154 9.53256C0.270918 9.05032 0 8.39627 0 7.71429V2.57143ZM2.57143 1.71429C2.3441 1.71429 2.12608 1.80459 1.96534 1.96534C1.80459 2.12608 1.71429 2.3441 1.71429 2.57143V7.71429C1.71429 7.94161 1.80459 8.15963 1.96534 8.32038C2.12608 8.48112 2.3441 8.57143 2.57143 8.57143H7.71429C7.94161 8.57143 8.15963 8.48112 8.32038 8.32038C8.48112 8.15963 8.57143 7.94161 8.57143 7.71429V2.57143C8.57143 2.3441 8.48112 2.12608 8.32038 1.96534C8.15963 1.80459 7.94161 1.71429 7.71429 1.71429H2.57143ZM13.7143 2.57143C13.7143 1.88944 13.9852 1.23539 14.4674 0.753154C14.9497 0.270918 15.6037 0 16.2857 0H21.4286C22.1106 0 22.7646 0.270918 23.2468 0.753154C23.7291 1.23539 24 1.88944 24 2.57143V7.71429C24 8.39627 23.7291 9.05032 23.2468 9.53256C22.7646 10.0148 22.1106 10.2857 21.4286 10.2857H16.2857C15.6037 10.2857 14.9497 10.0148 14.4674 9.53256C13.9852 9.05032 13.7143 8.39627 13.7143 7.71429V2.57143ZM16.2857 1.71429C16.0584 1.71429 15.8404 1.80459 15.6796 1.96534C15.5189 2.12608 15.4286 2.3441 15.4286 2.57143V7.71429C15.4286 7.94161 15.5189 8.15963 15.6796 8.32038C15.8404 8.48112 16.0584 8.57143 16.2857 8.57143H21.4286C21.6559 8.57143 21.8739 8.48112 22.0347 8.32038C22.1954 8.15963 22.2857 7.94161 22.2857 7.71429V2.57143C22.2857 2.3441 22.1954 2.12608 22.0347 1.96534C21.8739 1.80459 21.6559 1.71429 21.4286 1.71429H16.2857ZM0 16.2857C0 15.6037 0.270918 14.9497 0.753154 14.4674C1.23539 13.9852 1.88944 13.7143 2.57143 13.7143H7.71429C8.39627 13.7143 9.05032 13.9852 9.53256 14.4674C10.0148 14.9497 10.2857 15.6037 10.2857 16.2857V21.4286C10.2857 22.1106 10.0148 22.7646 9.53256 23.2468C9.05032 23.7291 8.39627 24 7.71429 24H2.57143C1.88944 24 1.23539 23.7291 0.753154 23.2468C0.270918 22.7646 0 22.1106 0 21.4286V16.2857ZM2.57143 15.4286C2.3441 15.4286 2.12608 15.5189 1.96534 15.6796C1.80459 15.8404 1.71429 16.0584 1.71429 16.2857V21.4286C1.71429 21.6559 1.80459 21.8739 1.96534 22.0347C2.12608 22.1954 2.3441 22.2857 2.57143 22.2857H7.71429C7.94161 22.2857 8.15963 22.1954 8.32038 22.0347C8.48112 21.8739 8.57143 21.6559 8.57143 21.4286V16.2857C8.57143 16.0584 8.48112 15.8404 8.32038 15.6796C8.15963 15.5189 7.94161 15.4286 7.71429 15.4286H2.57143ZM13.7143 16.2857C13.7143 15.6037 13.9852 14.9497 14.4674 14.4674C14.9497 13.9852 15.6037 13.7143 16.2857 13.7143H21.4286C22.1106 13.7143 22.7646 13.9852 23.2468 14.4674C23.7291 14.9497 24 15.6037 24 16.2857V21.4286C24 22.1106 23.7291 22.7646 23.2468 23.2468C22.7646 23.7291 22.1106 24 21.4286 24H16.2857C15.6037 24 14.9497 23.7291 14.4674 23.2468C13.9852 22.7646 13.7143 22.1106 13.7143 21.4286V16.2857ZM16.2857 15.4286C16.0584 15.4286 15.8404 15.5189 15.6796 15.6796C15.5189 15.8404 15.4286 16.0584 15.4286 16.2857V21.4286C15.4286 21.6559 15.5189 21.8739 15.6796 22.0347C15.8404 22.1954 16.0584 22.2857 16.2857 22.2857H21.4286C21.6559 22.2857 21.8739 22.1954 22.0347 22.0347C22.1954 21.8739 22.2857 21.6559 22.2857 21.4286V16.2857C22.2857 16.0584 22.1954 15.8404 22.0347 15.6796C21.8739 15.5189 21.6559 15.4286 21.4286 15.4286H16.2857Z" fill="#00778B"/>
</svg>
